<svg width="500" height="500" viewBox="0 0 500 500" fill="none" xmlns="http://www.w3.org/2000/svg">
<path fill-rule="evenodd" clip-rule="evenodd" d="M484.31 38.0407L499.064 40.7503L493.644 70.2568L478.891 67.5472L408.803 54.6749C391.045 51.4135 372.813 51.7473 355.187 55.6565L154.952 100.064C131.883 105.181 107.984 105.282 84.872 100.362L16.8375 85.8796L2.16626 82.7565L8.41251 53.414L23.0838 56.5371L91.1182 71.0199C110.028 75.0452 129.582 74.9621 148.456 70.7761L348.691 26.3681C370.235 21.5902 392.518 21.1823 414.222 25.1684L484.31 38.0407ZM484.31 163.672L499.064 166.382L493.644 195.888L478.891 193.179L408.803 180.306C391.045 177.045 372.813 177.379 355.187 181.288L154.952 225.696C131.883 230.812 107.984 230.914 84.872 225.994L16.8375 211.511L2.16626 208.388L8.41251 179.045L23.0838 182.168L91.1182 196.651C110.028 200.677 129.582 200.593 148.456 196.407L348.691 151.999C370.235 147.222 392.518 146.814 414.222 150.8L484.31 163.672ZM499.064 292.013L484.31 289.303L414.222 276.431C392.518 272.445 370.235 272.853 348.691 277.631L148.456 322.039C129.582 326.225 110.028 326.308 91.1182 322.282L23.0838 307.8L8.41251 304.677L2.16626 334.019L16.8375 337.142L84.872 351.625C107.984 356.545 131.883 356.443 154.952 351.327L355.187 306.919C372.813 303.01 391.045 302.676 408.803 305.937L478.891 318.81L493.644 321.519L499.064 292.013ZM484.31 414.934L499.064 417.644L493.644 447.15L478.891 444.441L408.803 431.568C391.045 428.307 372.813 428.641 355.187 432.55L154.952 476.958C131.883 482.074 107.984 482.176 84.872 477.256L16.8375 462.773L2.16626 459.65L8.41251 430.307L23.0838 433.43L91.1182 447.913C110.028 451.939 129.582 451.855 148.456 447.669L348.691 403.262C370.235 398.484 392.518 398.076 414.222 402.062L484.31 414.934Z" fill="white"/>
</svg>
