<svg width="500" height="500" viewBox="0 0 500 500" fill="none" xmlns="http://www.w3.org/2000/svg">
<g clip-path="url(#clip0_102_271)">
<path fill-rule="evenodd" clip-rule="evenodd" d="M0.000244141 100.336C0.000244141 89.2907 8.95455 80.3364 20.0002 80.3364H480C491.046 80.3364 500 89.2907 500 100.336V343.046C500 354.092 491.046 363.046 480 363.046H400.82V363.047H382.62C372.581 363.047 364.443 354.909 364.443 344.87C364.443 334.83 372.581 326.692 382.62 326.692H327.96C324.22 340.58 326.379 355.862 334.885 368.523C350.948 392.433 348.139 424.313 328.142 445.046L324.699 448.615C322.782 450.603 319.617 450.66 317.629 448.743C315.641 446.826 315.584 443.66 317.501 441.673L320.944 438.104C337.67 420.763 340.019 394.098 326.584 374.099C316.943 359.75 314.123 342.584 317.664 326.692H273.08C269.34 340.58 271.499 355.862 280.005 368.523C296.068 392.433 293.259 424.313 273.262 445.046L269.819 448.615C267.902 450.603 264.737 450.66 262.749 448.743C260.762 446.826 260.705 443.66 262.622 441.673L266.064 438.104C282.79 420.763 285.14 394.098 271.704 374.099C262.064 359.75 259.243 342.584 262.785 326.692H218.2C214.46 340.58 216.619 355.862 225.124 368.523C241.188 392.433 238.379 424.313 218.381 445.046L214.939 448.615C213.022 450.603 209.856 450.66 207.869 448.743C205.881 446.826 205.824 443.66 207.741 441.673L211.184 438.104C227.91 420.763 230.259 394.098 216.824 374.099C207.183 359.75 204.362 342.584 207.904 326.692H163.319C159.579 340.58 161.738 355.862 170.243 368.523C186.307 392.433 183.498 424.313 163.5 445.046L160.058 448.615C158.141 450.603 154.975 450.66 152.988 448.743C151 446.826 150.943 443.66 152.86 441.673L156.303 438.104C173.029 420.763 175.378 394.098 161.943 374.099C152.302 359.75 149.481 342.584 153.023 326.692H116.89C126.929 326.692 135.068 334.83 135.068 344.87C135.068 354.909 126.929 363.047 116.89 363.047H98.6902V363.046H20.0002C8.95455 363.046 0.000244141 354.092 0.000244141 343.046V100.336ZM327.96 326.691C330.349 317.823 335.143 309.523 342.225 302.836L346.483 298.816C348.491 296.92 348.582 293.756 346.686 291.748C344.79 289.74 341.626 289.649 339.618 291.545L335.36 295.565C326.202 304.211 320.245 315.113 317.664 326.691H273.081C275.469 317.823 280.263 309.523 287.345 302.836L291.603 298.816C293.611 296.92 293.702 293.756 291.806 291.748C289.911 289.74 286.746 289.649 284.738 291.545L280.48 295.565C271.323 304.211 265.365 315.113 262.785 326.691H218.2C220.589 317.823 225.383 309.523 232.465 302.836L236.723 298.816C238.731 296.92 238.822 293.756 236.926 291.748C235.03 289.74 231.866 289.649 229.858 291.545L225.6 295.565C216.442 304.211 210.485 315.113 207.904 326.691H163.319C165.708 317.823 170.502 309.523 177.584 302.836L181.842 298.816C183.85 296.92 183.941 293.756 182.045 291.748C180.149 289.74 176.985 289.649 174.977 291.545L170.719 295.565C161.561 304.211 155.604 315.113 153.023 326.691H45.3325C39.8097 326.691 35.3325 322.214 35.3325 316.691V127.818C35.3325 122.295 39.8097 117.818 45.3325 117.818H453.645C459.168 117.818 463.645 122.295 463.645 127.818V316.691C463.645 322.214 459.168 326.691 453.645 326.691H327.96ZM413.156 202.125C431.109 202.125 445.662 187.572 445.662 169.62C445.662 151.668 431.109 137.115 413.156 137.115C395.204 137.115 380.651 151.668 380.651 169.62C380.651 187.572 395.204 202.125 413.156 202.125ZM413.157 185.873C422.133 185.873 429.41 178.597 429.41 169.62C429.41 160.644 422.133 153.368 413.157 153.368C404.181 153.368 396.904 160.644 396.904 169.62C396.904 178.597 404.181 185.873 413.157 185.873ZM74.3378 221.692C63.2921 221.692 54.3378 230.646 54.3378 241.692V284.412C54.3378 295.457 63.2921 304.412 74.3378 304.412H116.594V285.961H116.594V304.412H125.837C130.935 304.412 135.068 300.279 135.068 295.181C135.068 290.236 131.179 286.199 126.294 285.961H373.216C368.33 286.199 364.442 290.236 364.442 295.181C364.442 300.279 368.574 304.412 373.672 304.412H382.915V304.412H425.662C436.707 304.412 445.662 295.457 445.662 284.412V241.692C445.662 230.646 436.707 221.692 425.662 221.692H74.3378ZM96.6572 240.152C85.6115 240.152 76.6572 249.106 76.6572 260.152V265.949C76.6572 276.995 85.6115 285.949 96.6572 285.949H403.342C414.388 285.949 423.342 276.995 423.342 265.949V260.152C423.342 249.106 414.388 240.152 403.342 240.152H96.6572Z" fill="white"/>
</g>
<defs>
<clipPath id="clip0_102_271">
<rect width="500" height="500" fill="white" transform="translate(0.000244141)"/>
</clipPath>
</defs>
</svg>
