<svg width="500" height="500" viewBox="0 0 500 500" fill="none" xmlns="http://www.w3.org/2000/svg">
<g clip-path="url(#clip0_102_456)">
<path d="M131.917 197.447V302.553M486.277 276.276V223.724M97.7931 407.658H376.031C405.433 407.658 420.135 407.658 431.364 401.93C441.242 396.892 449.274 388.852 454.306 378.964C460.028 367.723 460.028 353.006 460.028 323.574V176.426C460.028 146.994 460.028 132.278 454.306 121.036C449.274 111.148 441.242 103.108 431.364 98.0698C420.135 92.3418 405.433 92.3418 376.031 92.3418H97.7931C68.3917 92.3418 53.6908 92.3418 42.461 98.0698C32.5827 103.108 24.5516 111.148 19.5186 121.036C13.7966 132.278 13.7966 146.994 13.7966 176.426V323.574C13.7966 353.006 13.7966 367.723 19.5186 378.964C24.5516 388.852 32.5827 396.892 42.461 401.93C53.6908 407.658 68.3915 407.658 97.7931 407.658Z" stroke="white" stroke-width="27" stroke-linecap="round" stroke-linejoin="round"/>
</g>
<defs>
<clipPath id="clip0_102_456">
<rect width="500" height="500" fill="white" transform="translate(0.000244141)"/>
</clipPath>
</defs>
</svg>
