<svg width="500" height="500" viewBox="0 0 500 500" fill="none" xmlns="http://www.w3.org/2000/svg">
<g clip-path="url(#clip0_102_450)">
<path d="M457.323 491.933C467.085 501.665 482.915 501.665 492.678 491.933C502.44 482.2 502.44 466.419 492.678 456.686L457.323 491.933ZM42.6778 8.06639C32.9145 -1.66666 17.0855 -1.66666 7.3223 8.06639C-2.4407 17.7997 -2.4407 33.5801 7.3223 43.3134L42.6778 8.06639ZM450 274.923C450 288.688 461.193 299.846 475 299.846C488.808 299.846 500 288.688 500 274.923H450ZM500 225.076C500 211.311 488.808 200.153 475 200.153C461.193 200.153 450 211.311 450 225.076H500ZM400 424.463C413.808 424.463 425 413.305 425 399.54C425 385.774 413.808 374.616 400 374.616V424.463ZM100 125.383C113.807 125.383 125 114.225 125 100.46C125 86.6952 113.807 75.5365 100 75.5365V125.383ZM375 424.463C388.808 424.463 400 413.305 400 399.54C400 385.774 388.808 374.616 375 374.616V424.463ZM325 374.616C311.193 374.616 300 385.774 300 399.54C300 413.305 311.193 424.463 325 424.463V374.616ZM241.26 75.5365C227.453 75.5365 216.26 86.6952 216.26 100.46C216.26 114.225 227.453 125.383 241.26 125.383V75.5365ZM425.01 308.32C425.01 322.085 436.203 333.244 450.01 333.244C463.818 333.244 475.01 322.085 475.01 308.32H425.01ZM492.678 456.686L42.6778 8.06639L7.3223 43.3134L457.323 491.933L492.678 456.686ZM500 274.923V225.076H450V274.923H500ZM400 374.616H105V424.463H400V374.616ZM50 319.785V175.23H4.38109e-05V319.785H50ZM105 374.616C90.5863 374.616 81.2793 374.596 74.196 374.021C67.4043 373.467 64.8863 372.528 63.6503 371.9L40.9508 416.313C50.4103 421.118 60.2408 422.895 70.1243 423.7C79.716 424.483 91.4113 424.463 105 424.463V374.616ZM4.38109e-05 319.785C4.38109e-05 333.333 -0.0194555 344.992 0.764295 354.553C1.57179 364.408 3.3548 374.208 8.17455 383.639L52.7248 361.008C52.095 359.774 51.153 357.265 50.5983 350.496C50.0195 343.432 50 334.156 50 319.785H4.38109e-05ZM63.6503 371.9C58.9463 369.51 55.1218 365.699 52.7248 361.008L8.17455 383.639C15.365 397.708 26.8385 409.145 40.9508 416.313L63.6503 371.9ZM50 175.23C50 163.276 50.0135 155.559 50.4178 149.652C50.8068 143.97 51.472 141.806 51.903 140.769L5.70904 121.693C2.33404 129.817 1.09629 138.039 0.533791 146.259C-0.0134585 154.256 4.38109e-05 163.958 4.38109e-05 175.23H50ZM100 75.5365C88.6935 75.5365 78.9615 75.5231 70.9405 76.0687C62.6948 76.6294 54.447 77.8634 46.2988 81.228L65.433 127.28C66.4733 126.851 68.644 126.187 74.344 125.8C80.2685 125.397 88.0095 125.383 100 125.383V75.5365ZM51.903 140.769C54.4403 134.662 59.3073 129.81 65.433 127.28L46.2988 81.228C27.9218 88.8167 13.321 103.373 5.70904 121.693L51.903 140.769ZM375 374.616H325V424.463H375V374.616ZM241.26 125.383H400.01V75.5365H241.26V125.383ZM425.01 150.306V308.32H475.01V150.306H425.01ZM400.01 125.383C413.818 125.383 425.01 136.542 425.01 150.306H475.01C475.01 109.012 441.43 75.5365 400.01 75.5365V125.383Z" fill="white"/>
</g>
<defs>
<clipPath id="clip0_102_450">
<rect width="500" height="500" fill="white"/>
</clipPath>
</defs>
</svg>
