<svg width="500" height="500" viewBox="0 0 500 500" fill="none" xmlns="http://www.w3.org/2000/svg">
<g clip-path="url(#clip0_102_454)">
<path d="M223.727 171.954L184.356 250H289.345L249.974 328.047M486.198 276.016V223.985M97.7402 406.093H375.96C405.36 406.093 420.061 406.093 431.289 400.421C441.166 395.434 449.198 387.474 454.229 377.684C459.951 366.555 459.951 351.983 459.951 322.844V177.157C459.951 148.018 459.951 133.447 454.229 122.318C449.198 112.527 441.166 104.567 431.289 99.5793C420.061 93.9082 405.36 93.9082 375.96 93.9082H97.7402C68.3407 93.9082 53.6408 93.9082 42.4117 99.5793C32.5341 104.567 24.5035 112.527 19.4709 122.318C13.7493 133.447 13.7493 148.017 13.7493 177.157V322.844C13.7493 351.983 13.7493 366.555 19.4709 377.684C24.5035 387.474 32.5341 395.434 42.4117 400.421C53.6408 406.093 68.3405 406.093 97.7402 406.093Z" stroke="white" stroke-width="27" stroke-linecap="round" stroke-linejoin="round"/>
</g>
<defs>
<clipPath id="clip0_102_454">
<rect width="500" height="500" fill="white" transform="translate(0.000244141)"/>
</clipPath>
</defs>
</svg>
