<svg width="500" height="500" viewBox="0 0 500 500" fill="none" xmlns="http://www.w3.org/2000/svg">
<g clip-path="url(#clip0_102_460)">
<path d="M131.726 197.262V302.738M236.736 197.262V302.738M341.746 197.262V302.738M486.135 276.369V223.631M97.5982 408.213H375.874C405.28 408.213 419.984 408.213 431.215 402.464C441.094 397.409 449.127 389.341 454.159 379.418C459.882 368.138 459.882 353.368 459.882 323.833V176.167C459.882 146.632 459.882 131.863 454.159 120.582C449.127 110.659 441.094 102.591 431.215 97.5352C419.984 91.7871 405.28 91.7871 375.874 91.7871H97.5982C68.1927 91.7871 53.4898 91.7871 42.2584 97.5352C32.3789 102.591 24.3466 110.659 19.313 120.582C13.5902 131.863 13.5902 146.631 13.5902 176.167V323.833C13.5902 353.368 13.5902 368.138 19.313 379.418C24.3466 389.341 32.3789 397.409 42.2584 402.464C53.4898 408.213 68.1925 408.213 97.5982 408.213Z" stroke="white" stroke-width="27" stroke-linecap="round" stroke-linejoin="round"/>
</g>
<defs>
<clipPath id="clip0_102_460">
<rect width="500" height="500" fill="white" transform="translate(0.000244141)"/>
</clipPath>
</defs>
</svg>
