<svg width="500" height="500" viewBox="0 0 500 500" fill="none" xmlns="http://www.w3.org/2000/svg">
<g clip-path="url(#clip0_102_458)">
<path d="M132.032 197.409V302.591M237.081 197.409V302.591M486.575 276.295V223.704M97.8903 407.773H376.273C405.689 407.773 420.399 407.773 431.634 402.04C441.517 396.999 449.553 388.953 454.587 379.058C460.313 367.809 460.313 353.081 460.313 323.627V176.372C460.313 146.919 460.313 132.192 454.587 120.942C449.553 111.046 441.517 103.001 431.634 97.9587C420.399 92.2266 405.689 92.2266 376.273 92.2266H97.8903C68.4737 92.2266 53.7651 92.2266 42.5295 97.9587C32.6461 103.001 24.6109 111.046 19.5753 120.942C13.8503 132.192 13.8503 146.918 13.8503 176.372V323.627C13.8503 353.081 13.8503 367.809 19.5753 379.058C24.6109 388.953 32.6461 396.999 42.5295 402.04C53.7651 407.773 68.4734 407.773 97.8903 407.773Z" stroke="white" stroke-width="27" stroke-linecap="round" stroke-linejoin="round"/>
</g>
<defs>
<clipPath id="clip0_102_458">
<rect width="500" height="500" fill="white" transform="translate(0.000244141)"/>
</clipPath>
</defs>
</svg>
