<svg width="500" height="500" viewBox="0 0 500 500" fill="none" xmlns="http://www.w3.org/2000/svg">
<g clip-path="url(#clip0_102_452)">
<path d="M132.337 92.5557H98.2246C68.8324 92.5557 54.136 92.5557 42.9097 98.2759C33.0346 103.307 25.006 111.336 19.9746 121.211C14.2544 132.437 14.2544 147.134 14.2544 176.526V323.474C14.2544 352.866 14.2544 367.563 19.9746 378.789C25.006 388.663 33.0346 396.693 42.9097 401.723C54.136 407.444 68.8324 407.444 98.2246 407.444H132.337M342.263 92.5557H376.376C405.768 92.5557 420.465 92.5557 431.691 98.2759C441.566 103.307 449.595 111.336 454.626 121.211C460.346 132.437 460.346 147.134 460.346 176.526V323.474C460.346 352.866 460.346 367.563 454.626 378.789C449.595 388.663 441.566 396.693 431.691 401.723C420.465 407.444 405.768 407.444 376.376 407.444H342.263M237.3 92.5557V328.722M237.3 407.444H237.563M486.587 276.24V223.759" stroke="white" stroke-width="27" stroke-linecap="round" stroke-linejoin="round"/>
</g>
<defs>
<clipPath id="clip0_102_452">
<rect width="500" height="500" fill="white"/>
</clipPath>
</defs>
</svg>
