<svg width="500" height="500" viewBox="0 0 500 500" fill="none" xmlns="http://www.w3.org/2000/svg">
<g clip-path="url(#clip0_102_136)">
<path fill-rule="evenodd" clip-rule="evenodd" d="M290.105 39.8895L290.105 40.037V84.5885C342.842 100.552 382.04 147.68 386.274 204.546C388.608 221.657 390.077 237.302 391.429 251.698V251.698C396.858 309.507 400.397 347.189 450.431 378.924V431.775H321.249C319.745 469.709 288.518 500 250.216 500C211.913 500 180.686 469.709 179.182 431.775H49.5484L49.5485 378.924C101.367 345.571 104.902 307.649 110.419 248.461C111.639 235.374 112.955 221.247 114.912 205.901C115.373 198.758 116.385 191.766 117.906 184.966L117.961 184.626L118.022 184.242L118.081 184.196C128.945 136.93 164.438 99.07 210.326 84.8488V39.8892H210.326C210.326 17.859 228.186 0 250.216 0C272.246 0 290.105 17.8591 290.105 39.8895ZM218.621 431.874L218.621 431.775H281.81L281.811 431.843L281.811 431.933L281.811 432.07C281.811 449.52 267.666 463.665 250.216 463.665C232.766 463.665 218.62 449.52 218.62 432.07C218.62 432.005 218.62 431.939 218.621 431.874ZM348.015 211.379C346.224 159.068 303.375 117.18 250.685 116.932L250.684 116.931L250.683 116.932L250.482 116.931C250.394 116.931 250.305 116.931 250.216 116.931C197.455 116.931 154.447 158.685 152.432 210.952L152.383 210.998C149.542 232.38 148.083 251.307 146.775 268.275L146.775 268.275C142.706 321.066 140.098 354.889 101.876 384.637H397.572C360.666 356.332 358.056 322.723 354.051 271.163C352.68 253.509 351.146 233.75 348.015 211.379ZM35.1279 190.876C31.1206 133.341 59.914 78.4679 109.535 49.0733L154.861 22.2233C158.425 20.1122 159.603 15.5118 157.492 11.948C155.381 8.38422 150.78 7.20659 147.216 9.3177L101.89 36.1678C47.3883 68.4536 15.7627 128.724 20.1642 191.918L23.8246 244.473C24.1124 248.605 27.6954 251.721 31.8275 251.434C35.9597 251.146 39.0761 247.563 38.7883 243.431L35.1279 190.876ZM77.7655 223.158C68.7693 158.486 101.945 95.2614 160.274 65.9162L179.882 56.0519C183.582 54.1903 185.073 49.6816 183.211 45.9813C181.35 42.2811 176.841 40.7905 173.141 42.6521L153.533 52.5164C89.4659 84.748 53.0274 154.191 62.9085 225.225L65.9325 246.965C66.5032 251.067 70.2917 253.931 74.3943 253.36C78.497 252.789 81.3602 249.001 80.7895 244.898L77.7655 223.158ZM389.651 49.3184C439.272 78.713 468.065 133.586 464.058 191.121L460.398 243.676C460.11 247.808 463.226 251.391 467.359 251.679C471.491 251.966 475.074 248.85 475.361 244.718L479.022 192.163C483.423 128.969 451.798 68.6986 397.296 36.4128L351.97 9.56272C348.406 7.45161 343.805 8.62924 341.694 12.193C339.583 15.7568 340.761 20.3572 344.325 22.4683L389.651 49.3184ZM340.15 65.9162C398.48 95.2614 431.655 158.486 422.659 223.158L419.635 244.898C419.064 249.001 421.927 252.789 426.03 253.36C430.133 253.93 433.921 251.067 434.492 246.965L437.516 225.225C447.397 154.191 410.959 84.748 346.891 52.5164L327.284 42.652C323.584 40.7905 319.075 42.281 317.213 45.9813C315.352 49.6815 316.842 54.1903 320.543 56.0519L340.15 65.9162Z" fill="white"/>
</g>
<defs>
<clipPath id="clip0_102_136">
<rect width="500" height="500" fill="white" transform="translate(0.000244141)"/>
</clipPath>
</defs>
</svg>
