<svg width="500" height="500" viewBox="0 0 500 500" fill="none" xmlns="http://www.w3.org/2000/svg">
<path fill-rule="evenodd" clip-rule="evenodd" d="M97.8811 0C94.2278 0 91.2662 2.96158 91.2662 6.61487V20.959H40.148C23.5794 20.959 10.1479 34.3904 10.1479 50.959V470C10.1479 486.568 23.5794 500 40.1479 500H459.74C476.308 500 489.74 486.568 489.74 470V50.959C489.74 34.3904 476.308 20.959 459.74 20.959H409.235V6.61487C409.235 2.96158 406.274 0 402.62 0H385.636C381.983 0 379.021 2.96158 379.021 6.61487V20.959H352.141V6.61487C352.141 2.96158 349.179 0 345.526 0H328.542C324.889 0 321.927 2.96158 321.927 6.61487V20.959H295.047V6.61487C295.047 2.96158 292.085 0 288.432 0H271.448C267.795 0 264.833 2.96158 264.833 6.61487V20.959H235.668V6.61487C235.668 2.96158 232.707 0 229.053 0H212.07C208.416 0 205.455 2.96158 205.455 6.61487V20.959H178.574V6.61487C178.574 2.96158 175.612 0 171.959 0H154.975C151.322 0 148.36 2.96158 148.36 6.61487V20.959H121.48V6.61487C121.48 2.96158 118.518 0 114.865 0H97.8811ZM401.59 20.959H401.591V10.4523C401.591 8.6203 400.106 7.13517 398.273 7.13517H389.757C387.925 7.13517 386.439 8.62031 386.439 10.4523V116.597C386.439 118.429 387.925 119.914 389.757 119.914H398.273C400.106 119.914 401.591 118.429 401.591 116.597V56.9973H401.59V20.959ZM438.511 56.9973H409.235V93.9311C414.398 98.272 417.679 104.779 417.679 112.052C417.679 125.121 407.084 135.716 394.015 135.716C380.946 135.716 370.351 125.121 370.351 112.052C370.351 104.673 373.728 98.0831 379.021 93.7433V56.9973H352.141V93.9311C357.304 98.272 360.585 104.779 360.585 112.052C360.585 125.121 349.99 135.716 336.921 135.716C323.852 135.716 313.257 125.121 313.257 112.052C313.257 104.673 316.634 98.0831 321.927 93.7433V56.9973H295.047V93.9311C300.21 98.272 303.491 104.779 303.491 112.052C303.491 125.121 292.896 135.716 279.827 135.716C266.758 135.716 256.163 125.121 256.163 112.052C256.163 104.673 259.54 98.0831 264.833 93.7433V56.9973H235.668V93.9309C240.831 98.2718 244.113 104.779 244.113 112.052C244.113 125.121 233.518 135.716 220.449 135.716C207.38 135.716 196.785 125.121 196.785 112.052C196.785 104.673 200.162 98.0834 205.455 93.7436V56.9973H178.574V93.931C183.737 98.2719 187.018 104.779 187.018 112.052C187.018 125.121 176.423 135.716 163.354 135.716C150.285 135.716 139.69 125.121 139.69 112.052C139.69 104.673 143.067 98.0833 148.36 93.7435V56.9973H121.48V93.9309C126.643 98.2718 129.924 104.779 129.924 112.052C129.924 125.121 119.329 135.716 106.26 135.716C93.191 135.716 82.5963 125.121 82.5963 112.052C82.5963 104.673 85.9734 98.0834 91.2662 93.7436V56.9973H61.3757C53.0915 56.9973 46.3757 63.713 46.3757 71.9973V448.665C46.3757 456.949 53.0914 463.665 61.3757 463.665H438.511C446.795 463.665 453.511 456.949 453.511 448.665V71.9973C453.511 63.7131 446.795 56.9973 438.511 56.9973ZM344.496 20.959V10.4523C344.496 8.6203 343.011 7.13517 341.179 7.13517H332.662C330.83 7.13517 329.345 8.62031 329.345 10.4523V116.597C329.345 118.429 330.83 119.914 332.662 119.914H341.179C343.011 119.914 344.496 118.429 344.496 116.597V56.9973H344.496V20.959H344.496ZM287.402 20.959H287.402V10.4523C287.402 8.6203 285.917 7.13517 284.085 7.13517H275.568C273.736 7.13517 272.251 8.62031 272.251 10.4523V116.597C272.251 118.429 273.736 119.914 275.568 119.914H284.085C285.917 119.914 287.402 118.429 287.402 116.597V56.9973H287.402V20.959ZM228.024 56.9973V20.959V10.4523C228.024 8.6203 226.538 7.13517 224.706 7.13517H216.19C214.358 7.13517 212.872 8.62031 212.872 10.4523V20.959V56.9973V116.597C212.872 118.429 214.358 119.914 216.19 119.914H224.706C226.538 119.914 228.024 118.429 228.024 116.597V56.9973ZM170.929 20.959V56.9973L170.929 116.597C170.929 118.429 169.444 119.914 167.612 119.914H159.095C157.263 119.914 155.778 118.429 155.778 116.597V56.9973V20.959V10.4523C155.778 8.62031 157.263 7.13517 159.095 7.13517H167.612C169.444 7.13517 170.929 8.6203 170.929 10.4523L170.929 20.959ZM113.835 20.959L113.835 10.4523C113.835 8.6203 112.35 7.13517 110.518 7.13517H102.001C100.169 7.13517 98.6841 8.62031 98.6841 10.4523L98.6841 20.959V56.9973L98.6841 116.597C98.6841 118.429 100.169 119.914 102.001 119.914H110.518C112.35 119.914 113.835 118.429 113.835 116.597L113.835 56.9973V20.959ZM82.4835 369.802C79.7221 369.802 77.4835 372.041 77.4835 374.802V426.123C77.4835 428.884 79.7221 431.123 82.4835 431.123H140.959C143.721 431.123 145.959 428.884 145.959 426.123V374.802C145.959 372.041 143.721 369.802 140.959 369.802H82.4835ZM77.4835 293.474C77.4835 290.713 79.7221 288.474 82.4835 288.474H140.959C143.721 288.474 145.959 290.713 145.959 293.474V344.795C145.959 347.556 143.721 349.795 140.959 349.795H82.4835C79.7221 349.795 77.4835 347.556 77.4835 344.795V293.474ZM174.289 369.802C171.528 369.802 169.289 372.041 169.289 374.802V426.123C169.289 428.884 171.528 431.123 174.289 431.123H232.765C235.526 431.123 237.765 428.884 237.765 426.123V374.802C237.765 372.041 235.526 369.802 232.765 369.802H174.289ZM169.289 293.474C169.289 290.713 171.528 288.474 174.289 288.474H232.765C235.526 288.474 237.765 290.713 237.765 293.474V344.795C237.765 347.556 235.526 349.795 232.765 349.795H174.289C171.528 349.795 169.289 347.556 169.289 344.795V293.474ZM174.289 207.145C171.528 207.145 169.289 209.384 169.289 212.145V263.466C169.289 266.227 171.528 268.466 174.289 268.466H232.765C235.526 268.466 237.765 266.227 237.765 263.466V212.145C237.765 209.384 235.526 207.145 232.765 207.145H174.289ZM261.097 374.802C261.097 372.041 263.336 369.802 266.097 369.802H324.573C327.334 369.802 329.573 372.041 329.573 374.802V426.123C329.573 428.884 327.334 431.123 324.573 431.123H266.097C263.336 431.123 261.097 428.884 261.097 426.123V374.802ZM266.097 288.474C263.336 288.474 261.097 290.713 261.097 293.474V344.795C261.097 347.556 263.336 349.795 266.097 349.795H324.573C327.334 349.795 329.573 347.556 329.573 344.795V293.474C329.573 290.713 327.334 288.474 324.573 288.474H266.097ZM261.097 212.145C261.097 209.384 263.336 207.145 266.097 207.145H324.573C327.334 207.145 329.573 209.384 329.573 212.145V263.466C329.573 266.227 327.334 268.466 324.573 268.466H266.097C263.336 268.466 261.097 266.227 261.097 263.466V212.145ZM352.903 374.803C352.903 372.041 355.141 369.803 357.903 369.803H416.379C419.14 369.803 421.379 372.041 421.379 374.803V426.123C421.379 428.885 419.14 431.123 416.379 431.123H357.903C355.141 431.123 352.903 428.885 352.903 426.123V374.803ZM367.645 385.504C367.645 384.124 368.764 383.004 370.145 383.004H404.138C405.518 383.004 406.638 384.124 406.638 385.504V415.422C406.638 416.803 405.518 417.922 404.138 417.922H370.145C368.764 417.922 367.645 416.803 367.645 415.422V385.504ZM357.903 288.474C355.141 288.474 352.903 290.713 352.903 293.474V344.795C352.903 347.556 355.141 349.795 357.903 349.795H416.379C419.14 349.795 421.379 347.556 421.379 344.795V293.474C421.379 290.713 419.14 288.474 416.379 288.474H357.903ZM370.145 301.675C368.764 301.675 367.645 302.795 367.645 304.175V334.093C367.645 335.474 368.764 336.593 370.145 336.593H404.138C405.518 336.593 406.638 335.474 406.638 334.093V304.175C406.638 302.795 405.518 301.675 404.138 301.675H370.145ZM352.903 212.145C352.903 209.384 355.141 207.145 357.903 207.145H416.379C419.14 207.145 421.379 209.384 421.379 212.145V263.466C421.379 266.227 419.14 268.466 416.379 268.466H357.903C355.141 268.466 352.903 266.227 352.903 263.466V212.145ZM367.645 222.846C367.645 221.466 368.764 220.346 370.145 220.346H404.138C405.518 220.346 406.638 221.466 406.638 222.846V252.764C406.638 254.145 405.518 255.264 404.138 255.264H370.145C368.764 255.264 367.645 254.145 367.645 252.764V222.846Z" fill="white"/>
</svg>
