<svg width="500" height="500" viewBox="0 0 500 500" fill="none" xmlns="http://www.w3.org/2000/svg">
<g clip-path="url(#clip0_102_262)">
<rect x="-0.000976562" y="445.456" width="500.001" height="54.5439" rx="7" fill="white"/>
<rect x="54.543" width="500" height="54.5439" rx="7" transform="rotate(90 54.543 0)" fill="white"/>
<path d="M490.093 0.612793H403.683C395.404 0.612793 391.258 10.6196 397.113 16.4754L423.96 43.3222L267.28 200.002L212.415 145.136L197.71 130.432C192.735 125.456 184.669 125.456 179.693 130.432L86.1672 223.954C81.1917 228.929 81.1917 236.995 86.1672 241.97L100.872 256.675C105.847 261.65 113.913 261.65 118.888 256.675L188.699 186.864L258.163 256.327C263.139 261.303 271.204 261.303 276.18 256.327L283.657 248.85C284.042 248.544 284.445 248.271 284.801 247.914L456.677 76.0388L483.524 102.886C489.379 108.741 499.386 104.595 499.386 96.3164V9.90611C499.386 4.77301 495.226 0.612793 490.093 0.612793Z" fill="white"/>
<path d="M386.467 175.731V404.821C386.467 411.859 392.17 417.562 399.207 417.562H439.892C446.929 417.562 452.632 411.859 452.632 404.821V109.566L386.467 175.731Z" fill="white"/>
<path d="M300.711 261.493V404.821C300.711 411.859 306.414 417.562 313.451 417.562H354.136C361.173 417.562 366.876 411.859 366.876 404.821V195.328L300.711 261.493Z" fill="white"/>
<path d="M267.173 280.909C258.199 280.909 249.768 277.416 243.421 271.069L214.948 242.601V404.822C214.948 411.859 220.651 417.562 227.688 417.562H268.373C275.41 417.562 281.113 411.859 281.113 404.822V277.856C276.791 279.835 272.07 280.909 267.173 280.909Z" fill="white"/>
<path d="M188.7 216.346L133.635 271.411C132.255 272.792 130.758 274.015 129.192 275.117V404.821C129.192 411.858 134.895 417.561 141.932 417.561H182.617C189.655 417.561 195.357 411.858 195.357 404.821V223.003L188.7 216.346Z" fill="white"/>
</g>
<defs>
<clipPath id="clip0_102_262">
<rect width="500" height="500" fill="white"/>
</clipPath>
</defs>
</svg>
