<svg width="500" height="500" viewBox="0 0 500 500" fill="none" xmlns="http://www.w3.org/2000/svg">
<g clip-path="url(#clip0_102_240)">
<path fill-rule="evenodd" clip-rule="evenodd" d="M500.085 250C500.085 388.071 388.156 500 250.085 500C112.014 500 0.0849609 388.071 0.0849609 250C0.0849609 111.929 112.014 0 250.085 0C388.156 0 500.085 111.929 500.085 250ZM226.692 452.978V430.986L226.692 430.913L226.692 430.841V430.373H226.698C226.985 417.709 237.345 407.531 250.082 407.531C262.819 407.531 273.178 417.709 273.466 430.373H273.472V453.032C367.449 442.406 442.064 367.883 452.831 273.949H430.768L430.672 273.949L430.577 273.949H430.127V273.943C417.465 273.653 407.29 263.295 407.29 250.559C407.29 237.824 417.465 227.465 430.127 227.176V227.169H452.849C442.156 133.237 367.623 58.6815 273.701 47.9547V69.952L273.701 69.9711L273.701 69.9901V70.5165H273.695C273.405 83.1782 263.046 93.3532 250.311 93.3532C237.575 93.3532 227.217 83.1782 226.927 70.5165H226.921V47.9557C133.08 58.6776 58.5961 133.118 47.8078 226.939H69.7073L69.7307 226.939L69.754 226.939H70.2752V226.945C82.9373 227.235 93.1129 237.593 93.1129 250.329C93.1129 263.065 82.9373 273.423 70.2752 273.713V273.719H47.7732C58.4273 367.606 132.858 442.15 226.692 452.978ZM226.921 156.093C226.921 143.127 237.432 132.616 250.398 132.616C263.364 132.616 273.875 143.127 273.875 156.093V225.527L394.997 309.135C405.668 316.5 408.347 331.121 400.982 341.792C393.616 352.462 378.995 355.141 368.324 347.776L237.037 257.152C230.031 252.315 226.47 244.351 226.935 236.43C226.926 236.158 226.921 235.885 226.921 235.61V156.093Z" fill="white"/>
</g>
<defs>
<clipPath id="clip0_102_240">
<rect width="500" height="500" fill="white"/>
</clipPath>
</defs>
</svg>
