<svg width="500" height="500" viewBox="0 0 500 500" fill="none" xmlns="http://www.w3.org/2000/svg">
<g clip-path="url(#clip0_102_443)">
<path d="M110.95 348.435L110.95 348.434C108.463 345.597 104.88 343.983 101.133 343.983C100.857 343.983 100.58 343.992 100.313 344.009L100.311 344.009C98.6766 344.113 97.1619 344.163 95.6738 344.163C56.2141 344.163 24.108 312.057 24.108 272.597C24.108 249.649 35.2461 227.921 53.9032 214.484L53.9034 214.484C58.8109 210.948 60.6473 204.503 58.34 198.912L58.3399 198.912C54.7671 190.256 52.9539 181.081 52.9539 171.632C52.9539 132.173 85.0601 100.067 124.52 100.067C133.052 100.067 141.392 101.552 149.315 104.479C155.778 106.868 162.986 103.818 165.774 97.5171L165.774 97.517C177.236 71.6116 202.939 54.8732 231.252 54.8732C253.553 54.8732 274.182 64.9972 287.866 82.6616C292.086 88.1126 299.817 89.3393 305.519 85.466L304.395 83.8116L305.519 85.4659C317.384 77.4047 331.267 73.1441 345.678 73.1441C385.137 73.1441 417.243 105.25 417.243 144.71C417.243 158.928 413.084 172.659 405.218 184.425C402.72 188.162 402.32 192.92 404.16 197.022C406 201.124 409.821 203.989 414.273 204.607C449.396 209.481 475.897 239.955 475.897 275.483C475.897 311.524 448.971 342.052 413.277 346.493C406.643 347.319 401.705 353.023 401.839 359.707L401.839 359.709C401.849 360.172 401.857 360.619 401.857 361.062C401.857 400.521 369.751 432.628 330.291 432.628C306.896 432.628 284.926 421.145 271.525 401.91C268.858 398.078 264.334 395.97 259.702 396.366C255.054 396.764 250.971 399.613 248.994 403.84C237.262 428.92 211.797 445.128 184.133 445.128C144.673 445.128 112.567 413.022 112.567 373.562C112.567 368.869 113.028 364.162 113.937 359.57C114.724 355.595 113.619 351.482 110.95 348.435ZM86.4623 373.564C86.4623 427.42 130.274 471.233 184.132 471.233C215.349 471.233 244.495 456.123 262.703 431.559C280.724 448.82 304.886 458.733 330.29 458.733C381.007 458.733 422.811 419.885 427.518 370.381C470.681 359.88 502 320.888 502 275.484C502 233.164 474.461 196.118 435.577 182.939C440.692 170.929 443.347 157.968 443.347 144.71C443.347 90.8537 399.535 47.0404 345.678 47.0404C329.941 47.0404 314.65 50.7704 300.857 57.9108C282.57 39.2664 257.769 28.7695 231.252 28.7695C196.523 28.7695 164.675 47.222 147.229 76.621C139.824 74.8552 132.222 73.964 124.518 73.964C70.6613 73.964 26.8481 117.776 26.8481 171.633C26.8481 181.161 28.2029 190.502 30.889 199.513C10.1382 217.947 -2 244.598 -2 272.599C-2 323.376 36.9433 365.223 86.5334 369.845C86.4861 371.084 86.4623 372.325 86.4623 373.564Z" fill="white" stroke="white" stroke-width="4"/>
<path d="M291.167 397.051L291.167 397.051C300.801 402.561 311.786 405.473 322.936 405.473C339.74 405.473 355.625 399.013 367.657 387.284C372.501 382.562 372.601 374.808 367.88 369.964L367.88 369.964C363.158 365.121 355.403 365.02 350.56 369.742C343.125 376.987 333.319 380.975 322.936 380.975C316.044 380.975 309.263 379.181 303.329 375.786L303.329 375.786C297.454 372.426 289.973 374.468 286.616 380.338L287.483 380.834L286.616 380.338C283.257 386.21 285.296 393.692 291.167 397.051ZM371.798 362.632L371.799 362.632C372.527 362.761 373.25 362.824 373.966 362.824C379.787 362.824 384.95 358.662 386.009 352.73C386.257 351.348 386.46 349.943 386.614 348.555L386.614 348.555C387.361 341.833 382.519 335.776 375.796 335.029C369.061 334.277 363.017 339.126 362.269 345.847C362.174 346.702 362.049 347.57 361.896 348.42L361.896 348.421C360.706 355.079 365.14 361.442 371.798 362.632Z" fill="white" stroke="white" stroke-width="2"/>
<path d="M126.29 220.38C126.29 212.73 128.16 207.487 131.356 204.153C134.538 200.834 139.353 199.079 145.966 199.079C154.739 199.079 159.276 202.107 161.751 205.541C164.316 209.1 164.925 213.446 165.1 216.506C165.221 219.303 166.502 221.488 168.719 222.885C170.821 224.209 173.603 224.728 176.671 224.728C179.985 224.728 183.077 224.3 185.258 222.274C187.47 220.22 188.245 217.007 188.245 212.793C188.245 202.605 183.899 193.863 176.28 187.71C168.692 181.583 157.966 178.1 145.242 178.1C134.008 178.1 123.449 180.929 115.675 187.764C107.855 194.64 103.142 205.314 103.142 220.38V272.943C103.142 288.002 107.806 298.676 115.58 305.554C123.311 312.393 133.827 315.223 145.062 315.223C157.798 315.223 168.576 311.643 176.209 305.326C183.871 298.985 188.246 289.975 188.246 279.445C188.246 275.306 187.465 272.103 185.236 270.032C183.041 267.991 179.917 267.51 176.491 267.51C173.721 267.51 171.036 267.93 168.934 269.197C166.706 270.54 165.337 272.714 165.106 275.665C164.742 279.668 164.168 284.267 161.698 287.893C159.348 291.342 155.028 294.244 146.327 294.244C139.52 294.244 134.615 292.481 131.393 289.161C128.16 285.83 126.29 280.593 126.29 272.943V220.38Z" fill="white" stroke="white" stroke-width="4"/>
<path d="M200.862 220.381V272.944C200.862 287.985 205.38 298.668 213.166 305.555C220.906 312.403 231.567 315.224 243.324 315.224C254.993 315.224 265.693 312.402 273.498 305.561C281.35 298.679 285.966 287.998 285.966 272.944V220.381C285.966 205.327 281.35 194.646 273.498 187.763C265.693 180.923 254.993 178.101 243.324 178.101C231.567 178.101 220.906 180.921 213.166 187.77C205.38 194.657 200.862 205.339 200.862 220.381ZM243.326 199.079C249.648 199.079 254.43 200.824 257.645 204.157C260.871 207.502 262.819 212.753 262.819 220.38V272.943C262.819 280.57 260.871 285.822 257.645 289.166C254.43 292.499 249.648 294.244 243.326 294.244C236.907 294.244 232.182 292.496 229.04 289.179C225.88 285.842 224.011 280.592 224.011 272.943V220.38C224.011 212.73 225.88 207.48 229.04 204.144C232.182 200.827 236.907 199.079 243.326 199.079Z" fill="white" stroke="white" stroke-width="4"/>
<path d="M339.421 178.1C361.256 178.1 380.077 193.053 380.077 216.045C380.077 236.573 364.579 249.982 349.989 260.564C347.65 262.261 345.341 263.88 343.107 265.447C338.229 268.867 333.708 272.038 330 275.223C324.552 279.903 321.553 284.065 321.553 288.298V293.161H372.659C375.08 293.161 377.19 294.556 378.619 296.397C380.066 298.262 380.981 300.771 380.981 303.472C380.981 306.163 380.072 308.743 378.653 310.681C377.262 312.58 375.152 314.142 372.659 314.142H308.354C306.139 314.142 303.635 313.385 301.649 312.071C299.68 310.767 297.863 308.649 297.863 305.82V288.298C297.863 280.259 301.931 273.39 307.632 267.294C313.321 261.21 320.866 255.658 328.216 250.286C328.377 250.168 328.538 250.051 328.699 249.933C335.956 244.63 342.986 239.493 348.261 234.024C353.648 228.439 356.929 222.785 356.929 216.587C356.929 212.568 355.612 208.315 352.814 205.097C350.059 201.928 345.747 199.621 339.421 199.621C334.713 199.621 330.673 200.924 327.836 203.45C325.037 205.942 323.177 209.83 323.177 215.503C323.177 220.655 317.996 224.728 311.063 224.728C308.221 224.728 305.42 224.014 303.368 221.811C301.346 219.64 300.393 216.385 300.393 212.071L339.421 178.1ZM339.421 178.1C319.016 178.1 300.391 191.287 300.393 212.071L339.421 178.1Z" fill="white" stroke="white" stroke-width="4"/>
</g>
<defs>
<clipPath id="clip0_102_443">
<rect width="500" height="500" fill="white"/>
</clipPath>
</defs>
</svg>
