<svg width="500" height="500" viewBox="0 0 500 500" fill="none" xmlns="http://www.w3.org/2000/svg">
<g clip-path="url(#clip0_102_215)">
<path fill-rule="evenodd" clip-rule="evenodd" d="M247.989 2.08789H219.665L211.198 59.6194V59.635C185.016 64.685 160.709 74.9993 139.422 89.4328L139.318 89.3282L92.6889 54.6874L72.6218 74.7544L52.5936 94.7826L87.2873 141.451L87.3717 141.535C72.9702 162.82 62.6843 187.118 57.6562 213.285H57.5541L0.000488281 221.766V278.457L57.5541 286.932H57.6566C62.6849 313.1 72.9711 337.397 87.3727 358.682L87.3028 358.752L52.6034 405.446L92.6898 445.532L139.379 410.829L139.424 410.784C160.711 425.217 185.017 435.531 211.199 440.581L219.679 498.131H276.37L284.837 440.633C301.46 437.452 317.328 432.15 332.152 425.018L292.198 385.064C289.775 385.854 287.323 386.581 284.845 387.242C273.142 390.366 260.843 392.03 248.155 392.03C247.356 392.03 246.558 392.024 245.763 392.011C234.44 391.824 223.441 390.311 212.912 387.62C212.34 387.474 211.768 387.324 211.198 387.171V387.171C199.148 383.93 187.732 379.142 177.175 373.033C173.872 371.122 170.654 369.081 167.526 366.919C162.349 363.338 157.422 359.423 152.776 355.204C141.883 345.312 132.534 333.749 125.134 320.921C119.048 310.373 114.281 298.968 111.056 286.932C107.91 275.189 106.232 262.844 106.232 250.108C106.232 237.372 107.91 225.028 111.056 213.285C114.28 201.249 119.048 189.845 125.133 179.296C133.249 165.225 143.711 152.677 155.984 142.185C180.781 120.987 212.973 108.185 248.155 108.185C250.934 108.185 253.695 108.265 256.436 108.423C259.949 108.625 263.429 108.955 266.869 109.408C295.317 113.155 321.109 125.328 341.658 143.338C353.308 153.549 363.273 165.636 371.08 179.128C377.211 189.724 382.012 201.186 385.254 213.285C388.4 225.028 390.078 237.372 390.078 250.108C390.078 250.904 390.071 251.698 390.058 252.491C389.862 264.385 388.203 275.923 385.253 286.932C385.133 287.382 385.01 287.831 384.885 288.279L425.484 328.878C431.387 315.611 435.844 301.558 438.655 286.921L496.044 278.456V250.076V221.752L438.658 213.307C433.618 187.064 423.291 162.702 408.828 141.372L443.444 94.7756L423.377 74.7086L403.349 54.6804L356.738 89.3316C335.415 74.9023 311.067 64.6035 284.845 59.5838V59.5544L276.369 2.08789H247.989ZM212.019 313.116C239.658 320.881 255.154 319.716 282.792 313.116L451.695 498.129C484.428 493.263 494.698 482.215 500 449.824L314.988 277.947C320.292 245.63 321.07 227.745 314.988 196.662C304.146 177.942 296.153 168.684 271.16 159.09C256.966 156.405 248.694 155.346 232.892 154.915C216.062 154.47 209.713 156.968 203.153 165.667L247.503 196.662C255.452 201.694 258.585 205.36 258.636 215.448C255.206 237.004 248.207 247.781 227.326 264.812C216.897 266.324 211.696 264.216 202.973 257.891L165.401 234.235C161.728 237.741 160.658 240.493 160.53 246.759C172.717 281.418 183.718 296.254 212.019 313.116Z" fill="white"/>
</g>
<defs>
<clipPath id="clip0_102_215">
<rect width="500" height="500" fill="white" transform="translate(0.000244141)"/>
</clipPath>
</defs>
</svg>
