<svg width="500" height="500" viewBox="0 0 500 500" fill="none" xmlns="http://www.w3.org/2000/svg">
<path fill-rule="evenodd" clip-rule="evenodd" d="M232.494 0H265.876V70.4741L300.312 10.8298L329.221 27.5206L265.876 137.237L265.876 137.237V147.246L290.201 105.738L327.798 106.017L265.876 213.268L265.876 221.156L272.707 217.212L334.629 109.96L353.669 142.38L329.884 184.201L338.552 179.196L401.897 69.4802L430.806 86.171L396.371 145.815L457.403 110.578L474.094 139.487L413.168 174.663L481.888 174.663V208.044H355.349L346.605 213.093L394.675 213.404L413.232 246.103H289.429L282.605 250.043L289.361 253.944H413.204L394.648 286.643L346.538 286.955L355.206 291.96H481.895V325.341H413.024L474.056 360.578L457.365 389.488L396.44 354.312L430.8 413.825L401.89 430.516L338.622 320.931L329.877 315.882L353.642 357.667L334.602 390.087L272.701 282.871L265.876 278.931L265.876 286.733L327.798 393.984L290.201 394.263L265.876 352.754V362.764L265.876 362.763L329.221 472.48L300.312 489.17L265.876 429.526V500H232.494V429.648L198.134 489.162L169.225 472.471L232.494 362.885V352.789L208.189 394.263L170.593 393.984L232.494 286.767V278.975L225.746 282.871L163.845 390.087L144.805 357.667L168.57 315.881L159.826 320.93L96.5564 430.516L67.647 413.825L102.007 354.312L41.0811 389.487L24.3903 360.578L85.4214 325.341H16.5518L16.5518 291.96H143.24L151.908 286.955L103.799 286.643L85.2423 253.944H209.086L215.841 250.044L209.017 246.103H85.2147L103.771 213.404L151.84 213.093L143.097 208.044H16.5588L16.5588 174.663L85.278 174.663L24.3527 139.488L41.0435 110.578L102.076 145.815L67.6404 86.171L96.5498 69.4802L159.894 179.196L159.894 179.197L168.562 184.201L144.777 142.38L163.817 109.96L225.739 217.212L225.739 217.212L232.494 221.112V213.233L170.593 106.017L208.189 105.738L232.494 147.212V137.115L169.225 27.5285L198.134 10.8376L232.494 70.3513V0Z" fill="white"/>
</svg>
