<svg width="500" height="500" viewBox="0 0 500 500" fill="none" xmlns="http://www.w3.org/2000/svg">
<g clip-path="url(#clip0_102_356)">
<path fill-rule="evenodd" clip-rule="evenodd" d="M76.2465 150.705C117.863 150.705 151.599 116.969 151.599 75.3526C151.599 33.7365 117.863 0 76.2465 0C34.6305 0 0.893976 33.7365 0.893976 75.3526C0.893976 116.969 34.6305 150.705 76.2465 150.705ZM75.2962 325.352C116.912 325.352 150.649 291.616 150.649 250C150.649 208.384 116.912 174.647 75.2962 174.647C33.6801 174.647 -0.0563965 208.384 -0.0563965 250C-0.0563965 291.616 33.6801 325.352 75.2962 325.352ZM151.599 424.647C151.599 466.263 117.863 499.999 76.2465 499.999C34.6305 499.999 0.893976 466.263 0.893976 424.647C0.893976 383.031 34.6305 349.294 76.2465 349.294C117.863 349.294 151.599 383.031 151.599 424.647ZM191.457 0C183.173 0 176.457 6.71572 176.457 15V27.6998C176.457 35.9841 183.173 42.6998 191.457 42.6998H484.944C493.228 42.6998 499.944 35.9841 499.944 27.6998V15C499.944 6.71573 493.228 0 484.944 0H191.457ZM176.457 69.0028C176.457 60.7186 183.173 54.0028 191.457 54.0028H484.944C493.228 54.0028 499.944 60.7186 499.944 69.0028V81.7026C499.944 89.9869 493.228 96.7026 484.944 96.7026H191.457C183.173 96.7026 176.457 89.9869 176.457 81.7026V69.0028ZM191.457 108.005C183.173 108.005 176.457 114.721 176.457 123.005V135.705C176.457 143.989 183.173 150.705 191.457 150.705H484.944C493.228 150.705 499.944 143.989 499.944 135.705V123.005C499.944 114.721 493.228 108.005 484.944 108.005H191.457ZM176.457 189.647C176.457 181.363 183.173 174.647 191.457 174.647H484.944C493.228 174.647 499.944 181.363 499.944 189.647V202.347C499.944 210.631 493.228 217.347 484.944 217.347H191.457C183.173 217.347 176.457 210.631 176.457 202.347V189.647ZM191.457 228.65C183.173 228.65 176.457 235.366 176.457 243.65V256.35C176.457 264.634 183.173 271.35 191.457 271.35H484.944C493.228 271.35 499.944 264.634 499.944 256.35V243.65C499.944 235.366 493.228 228.65 484.944 228.65H191.457ZM176.457 297.654C176.457 289.369 183.173 282.654 191.457 282.654H484.944C493.228 282.654 499.944 289.369 499.944 297.654V310.353C499.944 318.638 493.228 325.353 484.944 325.353H191.457C183.173 325.353 176.457 318.638 176.457 310.353V297.654ZM191.457 349.294C183.173 349.294 176.457 356.01 176.457 364.294V376.994C176.457 385.278 183.173 391.994 191.457 391.994H484.944C493.228 391.994 499.944 385.278 499.944 376.994V364.294C499.944 356.01 493.228 349.294 484.944 349.294H191.457ZM176.457 418.298C176.457 410.013 183.173 403.298 191.457 403.298H484.944C493.228 403.298 499.944 410.013 499.944 418.298V430.997C499.944 439.282 493.228 445.997 484.944 445.997H191.457C183.173 445.997 176.457 439.282 176.457 430.997V418.298ZM191.457 457.3C183.173 457.3 176.457 464.016 176.457 472.3V485C176.457 493.284 183.173 500 191.457 500H484.944C493.228 500 499.944 493.284 499.944 485V472.3C499.944 464.016 493.228 457.3 484.944 457.3H191.457Z" fill="white"/>
</g>
<defs>
<clipPath id="clip0_102_356">
<rect width="500" height="500" fill="white" transform="translate(0.000244141)"/>
</clipPath>
</defs>
</svg>
