<svg width="513" height="513" viewBox="0 0 513 513" fill="none" xmlns="http://www.w3.org/2000/svg">
<path fill-rule="evenodd" clip-rule="evenodd" d="M405.791 25.578C377.684 28.3696 353.263 47.9533 343.784 75.3059C340.567 84.5888 339.814 89.3834 339.854 100.305C339.933 121.733 345.383 133.704 367.763 161.61C378.881 175.473 402.044 199.591 406.399 201.839C410.138 203.769 418.837 203.73 422.642 201.766C429.576 198.188 460.146 164.031 474.29 144.06C484.075 130.242 488.95 115.432 488.95 99.5196C488.95 88.034 486.286 77.5246 480.295 65.3733C476.359 57.3899 474.185 54.4606 466.535 46.8325C459.063 39.3821 455.819 36.9598 448.262 33.1911C434.807 26.4803 421.224 24.046 405.791 25.578ZM173.95 150.094C165.147 152.934 159.932 156.054 153.862 162.112C143.325 172.629 139.502 183.478 140.13 201.076C140.517 211.893 140.792 213.218 144.085 220.129C151.451 235.587 165.477 245.911 181.95 248.002C186.075 248.525 221.4 248.967 260.45 248.985L331.45 249.017L337.45 251.854C344.258 255.073 350.152 261.022 353.303 267.856C354.94 271.405 355.433 274.425 355.44 280.952C355.452 291.058 353.119 296.805 346.199 303.712C339.567 310.33 334.595 312.087 319.95 312.991C313.075 313.414 305.65 314.282 303.45 314.919C287.356 319.581 273.341 334.599 269.828 350.949C268.366 357.752 269.246 371.716 271.581 378.761C275.637 391.001 287 402.785 299.626 407.843C305.417 410.164 305.753 410.18 359.45 410.687C412.127 411.185 413.565 411.251 418.126 413.355C424.748 416.409 431.447 422.951 434.68 429.52C437.173 434.587 437.45 436.2 437.45 445.631C437.45 454.265 437.07 456.932 435.289 460.777C430.735 470.611 421.798 477.511 410.956 479.563C407.579 480.202 351.533 480.562 255.424 480.562C110.11 480.562 105.096 480.624 102.861 482.43C99.6503 485.025 99.6503 491.071 102.861 493.666C105.096 495.472 110.201 495.533 259.379 495.533C397.534 495.533 414.152 495.367 419.018 493.943C448.799 485.223 462.845 449.969 448.173 420.767C441.515 407.516 426.593 397.516 410.771 395.7C406.194 395.175 381.718 394.742 356.378 394.738C303.775 394.729 304.497 394.825 295.57 386.681C291.99 383.415 289.359 379.833 287.492 375.68C284.966 370.064 284.76 368.722 285.151 360.419C285.474 353.557 286.129 350.259 287.808 347.028C291.183 340.536 296.521 335.203 302.63 332.22C307.336 329.923 309.96 329.431 320.79 328.814C334.781 328.017 341.791 326.1 350.051 320.809C365.39 310.986 374.123 291.49 371.145 273.716C368.095 255.513 355.875 241.359 337.45 234.69C335.436 233.96 309.14 233.43 257.427 233.075L180.404 232.547L173.634 229.219C165.751 225.345 160.079 218.987 157.445 211.073C154.954 203.587 155.647 188.264 158.762 181.953C161.6 176.202 167.598 169.894 172.659 167.339C180.394 163.433 184.995 163.182 248.999 163.182C309.617 163.182 310.993 163.139 312.95 161.186C314.188 159.951 314.95 157.86 314.95 155.697C314.95 153.534 314.188 151.443 312.95 150.208C310.989 148.25 309.654 148.213 245.2 148.265C185.002 148.314 178.986 148.469 173.95 150.094ZM91.4503 270.155C75.7033 271.538 59.4643 279.26 47.9143 290.857C39.4703 299.336 34.2683 307.331 30.3283 317.88C22.5263 338.771 23.5373 358.1 33.4613 377.78C41.5053 393.733 79.8073 438.96 90.6403 445.295C95.9173 448.382 102.884 448.699 108.369 446.101C115.809 442.578 148.243 405.983 161.566 386.083C168.028 376.429 171.194 369.046 173.359 358.586C180.268 325.204 162.147 290.233 130.526 275.924C118.804 270.619 106.629 268.822 91.4503 270.155Z" fill="#F5617C"/>
</svg>
