<svg width="399" height="513" viewBox="0 0 399 513" fill="none" xmlns="http://www.w3.org/2000/svg">
<g clip-path="url(#clip0_2_2)">
<path fill-rule="evenodd" clip-rule="evenodd" d="M235.929 220.01H394.338C395.524 219.995 396.669 220.448 397.524 221.271C397.956 221.707 398.297 222.226 398.525 222.796C398.753 223.366 398.864 223.976 398.852 224.59V439.452C398.836 458.773 391.218 477.311 377.644 491.06C370.95 497.843 362.977 503.23 354.187 506.91C345.397 510.59 335.964 512.49 326.434 512.5H73.0072C63.4777 512.49 54.0447 510.59 45.2545 506.91C36.4643 503.23 28.4914 497.843 21.7974 491.06C8.19166 477.278 0.571067 458.686 0.590001 439.319V73.5826C0.614697 54.2736 8.23202 35.7488 21.7974 22.0077C28.4859 15.2132 36.4563 9.81357 45.2468 6.1219C54.0373 2.43023 63.473 0.519896 73.0072 0.501599H176.987C177.601 0.485241 178.212 0.594552 178.783 0.82283C179.354 1.05111 179.872 1.39354 180.306 1.82914C180.738 2.26509 181.078 2.78355 181.306 3.3537C181.534 3.92385 181.646 4.53404 181.633 5.14798V165.15C181.619 179.67 187.331 193.611 197.53 203.947C202.551 209.03 208.53 213.067 215.121 215.825C221.712 218.582 228.785 220.004 235.929 220.01ZM221.659 15.1709L384.382 179.553C384.701 179.873 384.919 180.247 385.007 180.689C385.096 181.132 385.051 181.592 384.88 182.009C384.71 182.426 384.422 182.784 384.05 183.038C383.679 183.294 383.24 183.433 382.789 183.436H235.93C233.547 183.437 231.188 182.965 228.989 182.048C226.79 181.13 224.795 179.786 223.119 178.093C219.713 174.647 217.804 169.995 217.809 165.15V16.7971C217.847 16.3209 218.032 15.8683 218.34 15.5028C218.527 15.2509 218.765 15.0409 219.038 14.8862C219.311 14.7315 219.614 14.6355 219.926 14.6042C220.238 14.573 220.554 14.6073 220.852 14.7048C221.151 14.8024 221.425 14.9611 221.659 15.1709Z" fill="#2697FF"/>
</g>
<defs>
<clipPath id="clip0_2_2">
<rect width="398" height="512" fill="white" transform="translate(0.589966 0.5)"/>
</clipPath>
</defs>
</svg>
