<svg width="500" height="500" viewBox="0 0 500 500" fill="none" xmlns="http://www.w3.org/2000/svg">
<g clip-path="url(#clip0_102_69)">
<path fill-rule="evenodd" clip-rule="evenodd" d="M237.137 345.787C299.069 345.787 349.275 295.581 349.275 233.649C341.284 178.591 297.844 104.172 256.689 33.6674C250.06 22.311 243.49 11.0561 237.137 0C187.492 79.6959 131.901 170.215 125 233.649C125 295.581 175.206 345.787 237.137 345.787ZM164.563 248.637C169.905 282.231 181.471 300.745 192.776 314.415L192.729 314.423C192.704 314.427 192.679 314.431 192.654 314.435L192.066 313.934C180.846 304.388 160.07 286.712 154.015 248.634C149.116 217.824 157.619 188.889 165.051 178.321C160.597 194.774 160.081 220.451 164.563 248.637ZM394.559 500C445.313 500 486.457 458.856 486.457 408.102C479.908 362.981 444.308 301.994 410.582 244.214C405.149 234.907 399.765 225.684 394.559 216.623C353.874 281.935 308.317 356.117 302.661 408.102C302.661 458.856 343.805 500 394.559 500ZM335.084 420.385C339.461 447.915 348.94 463.088 358.205 474.29L358.165 474.297L358.105 474.307L357.623 473.897C348.428 466.074 331.401 451.588 326.439 420.382C322.424 395.132 329.393 371.419 335.484 362.76C331.834 376.243 331.41 397.286 335.084 420.385ZM165.184 423.952C165.184 464.514 132.302 497.396 91.7397 497.396C51.1775 497.396 18.2954 464.514 18.2954 423.952C22.8156 382.405 59.2243 323.12 91.7397 270.924C95.9004 278.165 100.203 285.536 104.545 292.974C131.499 339.151 159.95 387.891 165.184 423.952ZM62.6851 476.848C55.2811 467.895 47.7056 455.769 44.2069 433.767C41.2714 415.306 41.6095 398.489 44.5267 387.713C39.6589 394.634 34.0895 413.585 37.2984 433.765C41.2641 458.704 54.8712 470.281 62.2197 476.533L62.605 476.861C62.6317 476.857 62.6584 476.852 62.6851 476.848Z" fill="white"/>
</g>
<defs>
<clipPath id="clip0_102_69">
<rect width="500" height="500" fill="white" transform="translate(0.000244141)"/>
</clipPath>
</defs>
</svg>
