<svg width="500" height="500" viewBox="0 0 500 500" fill="none" xmlns="http://www.w3.org/2000/svg">
<path d="M388.675 8.10794C387.103 5.3404 384.187 3.63428 381.028 3.63428H199.297C195.514 3.63428 192.152 6.07176 190.943 9.69177L113.058 242.777C112.151 245.495 112.595 248.488 114.25 250.817C115.906 253.147 118.572 254.529 121.412 254.529H195.246L110.269 484.335C108.766 488.397 110.381 492.964 114.094 495.146C115.481 495.96 117.009 496.355 118.524 496.355C121.063 496.355 123.563 495.248 125.29 493.164L361.829 207.636C364.026 204.984 364.505 201.286 363.055 198.153C361.607 195.02 358.492 193.017 355.068 193.017H286.78L388.64 17.0339C390.234 14.2794 390.248 10.8755 388.675 8.10794ZM263.8 197.425C262.206 200.18 262.192 203.584 263.765 206.351C265.337 209.119 268.253 210.825 271.411 210.825H336.193L144.795 441.867L216.21 248.739C217.221 246.006 216.841 242.946 215.193 240.547C213.546 238.15 210.84 236.719 207.951 236.719H133.692L205.626 21.4434H365.661L263.8 197.425Z" fill="white" stroke="white" stroke-width="7"/>
</svg>
