<svg width="500" height="500" viewBox="0 0 500 500" fill="none" xmlns="http://www.w3.org/2000/svg">
<g clip-path="url(#clip0_102_420)">
<path d="M500 380.952V476.19C500 482.505 497.492 488.561 493.026 493.026C488.561 497.491 482.505 500 476.191 500C469.876 500 463.82 497.491 459.355 493.026C454.889 488.561 452.381 482.505 452.381 476.19V438.428L397.786 493.024C393.295 497.361 387.281 499.761 381.038 499.706C374.795 499.652 368.824 497.148 364.409 492.734C359.995 488.319 357.491 482.347 357.436 476.105C357.382 469.862 359.782 463.847 364.119 459.357L418.714 404.762H380.952C374.638 404.762 368.582 402.253 364.117 397.788C359.651 393.323 357.143 387.267 357.143 380.952C357.143 374.638 359.651 368.581 364.117 364.116C368.582 359.651 374.638 357.143 380.952 357.143H476.191C482.505 357.143 488.561 359.651 493.026 364.116C497.492 368.581 500 374.638 500 380.952ZM59.524 500H123.81C137.257 499.996 150.551 497.145 162.818 491.634C175.084 486.122 186.044 478.076 194.976 468.024L342.833 301.69C347.315 296.65 352.817 292.619 358.974 289.865C365.131 287.111 371.803 285.696 378.548 285.714H416.643C432.43 285.714 447.57 279.443 458.733 268.28C469.895 257.117 476.167 241.977 476.167 226.19C476.167 210.404 469.895 195.264 458.733 184.101C447.57 172.938 432.43 166.667 416.643 166.667H352.381C338.934 166.67 325.639 169.521 313.373 175.033C301.107 180.544 290.147 188.591 281.214 198.643L133.334 364.976C128.852 370.016 123.35 374.047 117.193 376.801C111.036 379.556 104.364 380.97 97.6192 380.952H59.524C43.7373 380.952 28.5972 387.223 17.4344 398.386C6.27148 409.549 0.000244141 424.689 0.000244141 440.476C0.000244141 456.263 6.27148 471.403 17.4344 482.566C28.5972 493.729 43.7373 500 59.524 500ZM142.857 119.048C154.63 119.048 166.138 115.557 175.927 109.016C185.716 102.475 193.345 93.1791 197.85 82.3026C202.355 71.426 203.534 59.4578 201.237 47.9113C198.941 36.3648 193.272 25.7587 184.947 17.4341C176.622 9.10959 166.016 3.4405 154.47 1.14376C142.923 -1.15298 130.955 0.0257907 120.079 4.531C109.202 9.03622 99.9057 16.6655 93.3651 26.4542C86.8246 36.2428 83.3335 47.7511 83.3335 59.5238C83.3335 75.3105 89.6048 90.4506 100.768 101.613C111.931 112.776 127.071 119.048 142.857 119.048ZM213.191 203.381C210.487 185.592 201.157 169.483 187.071 158.287C172.985 147.091 155.187 141.636 137.247 143.016C119.307 144.396 102.552 152.509 90.3445 165.728C78.137 178.946 71.3798 196.293 71.4288 214.286V333.333H97.6192L213.191 203.381Z" fill="white"/>
</g>
<defs>
<clipPath id="clip0_102_420">
<rect width="500" height="500" fill="white" transform="translate(0.000244141)"/>
</clipPath>
</defs>
</svg>
