<svg width="500" height="500" viewBox="0 0 500 500" fill="none" xmlns="http://www.w3.org/2000/svg">
<path fill-rule="evenodd" clip-rule="evenodd" d="M250.251 299.268C216.885 299.268 185.541 286.299 161.94 262.756C83.3182 184.224 139.762 49.8779 250.251 49.8779C360.666 49.8779 417.26 184.149 338.563 262.756C314.962 286.299 283.618 299.268 250.251 299.268ZM373.528 298.019C484.043 187.665 404.422 0 250.177 0C96.2802 0 15.7357 187.665 126.275 298.019C154.023 325.727 199.602 341.987 224.577 347.15V400.244H149.652V450.122H224.577V500H274.527V450.122H349.452V400.244H274.527V347.15C324.477 341.987 345.756 325.727 373.528 298.019Z" fill="white"/>
</svg>
