<svg width="500" height="500" viewBox="0 0 500 500" fill="none" xmlns="http://www.w3.org/2000/svg">
<g clip-path="url(#clip0_102_426)">
<mask id="path-1-outside-1_102_426" maskUnits="userSpaceOnUse" x="-3.99976" y="0.460938" width="508" height="500" fill="black">
<rect fill="white" x="-3.99976" y="0.460938" width="508" height="500"/>
<path fill-rule="evenodd" clip-rule="evenodd" d="M214.276 4.46094H187.499V111.62H53.5645V13.3951H17.8386V183.036H53.5645V138.401H258.609C258.768 145.219 258.9 150.859 258.907 151.18M258.907 151.186C258.907 151.191 258.908 151.194 258.908 151.194H258.955L258.957 151.252C260.985 235.923 343.414 308.047 392.853 308.005L392.883 308.005V308.068H428.586V290.188H393.063L392.85 290.155C339.93 281.988 289.86 233.309 276.804 151.232L276.779 151.076V138.402H274.763L274.763 138.401H276.779V111.62H214.276V4.46094M274.742 138.402C274.742 138.402 274.742 138.402 274.742 138.401H258.648C258.726 141.621 258.812 145.207 258.907 149.187V138.402H274.742ZM276.772 151.186C276.773 151.192 276.773 151.195 276.773 151.195L258.955 151.194C258.955 151.191 258.955 151.189 258.955 151.186H276.772ZM0.000244141 183.036H35.7262V361.616H53.5892V495.537H17.8633V361.617H0.000244141V183.036ZM53.5892 424.115H455.36V138.402H482.135V424.115V424.116V450.896H53.5892V424.115ZM348.208 450.897H321.433V495.53H348.208V450.897ZM500 111.62H410.714V138.401H500V111.62ZM410.714 138.402H428.586V290.188H410.714V138.402Z"/>
</mask>
<path fill-rule="evenodd" clip-rule="evenodd" d="M214.276 4.46094H187.499V111.62H53.5645V13.3951H17.8386V183.036H53.5645V138.401H258.609C258.768 145.219 258.9 150.859 258.907 151.18M258.907 151.186C258.907 151.191 258.908 151.194 258.908 151.194H258.955L258.957 151.252C260.985 235.923 343.414 308.047 392.853 308.005L392.883 308.005V308.068H428.586V290.188H393.063L392.85 290.155C339.93 281.988 289.86 233.309 276.804 151.232L276.779 151.076V138.402H274.763L274.763 138.401H276.779V111.62H214.276V4.46094M274.742 138.402C274.742 138.402 274.742 138.402 274.742 138.401H258.648C258.726 141.621 258.812 145.207 258.907 149.187V138.402H274.742ZM276.772 151.186C276.773 151.192 276.773 151.195 276.773 151.195L258.955 151.194C258.955 151.191 258.955 151.189 258.955 151.186H276.772ZM0.000244141 183.036H35.7262V361.616H53.5892V495.537H17.8633V361.617H0.000244141V183.036ZM53.5892 424.115H455.36V138.402H482.135V424.115V424.116V450.896H53.5892V424.115ZM348.208 450.897H321.433V495.53H348.208V450.897ZM500 111.62H410.714V138.401H500V111.62ZM410.714 138.402H428.586V290.188H410.714V138.402Z" fill="white"/>
<path d="M214.276 4.46094L216.19 3.87889L212.363 5.04297L214.276 4.46094ZM260.821 150.598L216.19 3.87889L212.363 5.04299L256.994 151.762L260.821 150.598ZM212.363 5.04297L256.994 151.768L260.821 150.604L216.19 3.87891L212.363 5.04297ZM187.499 4.46094V0.460938H183.499V4.46094H187.499ZM214.276 4.46094H218.276V0.460938H214.276V4.46094ZM187.499 111.62V115.62H191.499V111.62H187.499ZM53.5645 111.62H49.5645V115.62H53.5645V111.62ZM53.5645 13.3951H57.5645V9.3951H53.5645V13.3951ZM17.8386 13.3951V9.3951H13.8386V13.3951H17.8386ZM17.8386 183.036H13.8386V187.036H17.8386V183.036ZM53.5645 183.036V187.036H57.5645V183.036H53.5645ZM53.5645 138.401V134.401H49.5645V138.401H53.5645ZM258.609 138.401L262.608 138.308L262.517 134.401H258.609V138.401ZM258.908 151.194L254.92 151.508L255.21 155.194H258.908V151.194ZM258.957 151.252L254.958 151.347L254.958 151.347L258.957 151.252ZM392.853 308.005L392.856 312.005L392.857 312.005L392.853 308.005ZM392.883 308.005H396.883V304.001L392.879 304.005L392.883 308.005ZM392.883 308.068H388.883V312.068H392.883V308.068ZM428.586 308.068V312.068H432.586V308.068H428.586ZM428.586 290.188H432.586V286.188H428.586V290.188ZM393.063 290.188L392.453 294.141L392.756 294.188H393.063V290.188ZM392.85 290.155L393.46 286.202L393.46 286.202L392.85 290.155ZM276.804 151.232L280.754 150.604L280.754 150.604L276.804 151.232ZM276.779 151.076H272.779V151.393L272.829 151.705L276.779 151.076ZM276.779 138.402H280.779V134.402H276.779V138.402ZM274.763 138.402L270.809 139.01L271.331 142.402H274.763V138.402ZM274.763 138.401V134.401H270.1L270.809 139.01L274.763 138.401ZM276.779 138.401V142.401H280.779V138.401H276.779ZM276.779 111.62H280.779V107.62H276.779V111.62ZM214.276 111.62H210.276V115.62H214.276V111.62ZM274.742 138.402V142.402H278.742V138.402H274.742ZM274.742 138.401H278.742V134.401H274.742V138.401ZM258.648 138.401V134.401H254.551L254.65 138.498L258.648 138.401ZM258.907 149.187L254.908 149.283L262.907 149.187H258.907ZM258.907 138.402V134.402H254.907V138.402H258.907ZM276.773 151.195L276.773 155.195L281.447 155.195L280.725 150.577L276.773 151.195ZM276.772 151.186L280.723 150.564L280.191 147.186H276.772V151.186ZM258.955 151.186V147.186H254.864L254.956 151.276L258.955 151.186ZM35.7262 183.036H39.7262V179.036H35.7262V183.036ZM0.000244141 183.036V179.036H-3.99976V183.036H0.000244141ZM35.7262 361.616H31.7262V365.616H35.7262V361.616ZM53.5892 361.616H57.5892V357.616H53.5892V361.616ZM53.5892 495.537V499.537H57.5892V495.537H53.5892ZM17.8633 495.537H13.8633V499.537H17.8633V495.537ZM17.8633 361.617H21.8633V357.617H17.8633V361.617ZM0.000244141 361.617H-3.99976V365.617H0.000244141V361.617ZM455.36 424.115V428.115H459.36V424.115H455.36ZM53.5892 424.115V420.115H49.5892V424.115H53.5892ZM455.36 138.402V134.402H451.36V138.402H455.36ZM482.135 138.402H486.135V134.402H482.135V138.402ZM482.135 450.896V454.896H486.135V450.896H482.135ZM53.5892 450.896H49.5892V454.896H53.5892V450.896ZM321.433 450.897V446.897H317.433V450.897H321.433ZM348.208 450.897H352.208V446.897H348.208V450.897ZM321.433 495.53H317.433V499.53H321.433V495.53ZM348.208 495.53V499.53H352.208V495.53H348.208ZM410.714 111.62V107.62H406.714V111.62H410.714ZM500 111.62H504V107.62H500V111.62ZM410.714 138.401H406.714V142.401H410.714V138.401ZM500 138.401V142.401H504V138.401H500ZM428.586 138.402H432.586V134.402H428.586V138.402ZM410.714 138.402V134.402H406.714V138.402H410.714ZM428.586 290.188V294.188H432.586V290.188H428.586ZM410.714 290.188H406.714V294.188H410.714V290.188ZM187.499 8.46094H214.276V0.460938H187.499V8.46094ZM191.499 111.62V4.46094H183.499V111.62H191.499ZM53.5645 115.62H187.499V107.62H53.5645V115.62ZM49.5645 13.3951V111.62H57.5645V13.3951H49.5645ZM17.8386 17.3951H53.5645V9.3951H17.8386V17.3951ZM21.8386 183.036V13.3951H13.8386V183.036H21.8386ZM53.5645 179.036H17.8386V187.036H53.5645V179.036ZM49.5645 138.401V183.036H57.5645V138.401H49.5645ZM258.609 134.401H53.5645V142.401H258.609V134.401ZM262.906 151.086C262.899 150.766 262.767 145.126 262.608 138.308L254.61 138.494C254.769 145.312 254.901 150.953 254.908 151.273L262.906 151.086ZM258.908 151.194C262.895 150.88 262.895 150.881 262.895 150.881C262.895 150.881 262.895 150.881 262.895 150.881C262.895 150.882 262.895 150.882 262.895 150.882C262.895 150.883 262.895 150.883 262.895 150.884C262.896 150.885 262.896 150.886 262.896 150.887C262.896 150.89 262.896 150.892 262.896 150.894C262.897 150.899 262.897 150.903 262.897 150.908C262.898 150.917 262.899 150.926 262.899 150.935C262.9 150.954 262.901 150.972 262.902 150.99C262.904 151.025 262.905 151.061 262.906 151.096L254.908 151.276C254.909 151.317 254.911 151.356 254.913 151.395C254.913 151.414 254.915 151.433 254.916 151.452C254.916 151.461 254.917 151.471 254.918 151.48C254.918 151.485 254.918 151.489 254.919 151.494C254.919 151.496 254.919 151.499 254.919 151.501C254.919 151.502 254.919 151.503 254.92 151.504C254.92 151.505 254.92 151.505 254.92 151.506C254.92 151.506 254.92 151.507 254.92 151.507C254.92 151.507 254.92 151.507 254.92 151.507C254.92 151.508 254.92 151.508 258.908 151.194ZM258.955 147.194H258.908V155.194H258.955V147.194ZM262.955 151.156L262.954 151.099L254.956 151.29L254.958 151.347L262.955 151.156ZM392.85 304.005C381.393 304.015 367.645 299.816 353.285 291.931C338.972 284.071 324.296 272.681 311.033 258.648C284.466 230.539 263.94 192.24 262.955 151.156L254.958 151.347C256.002 194.935 277.705 235.033 305.219 264.143C318.996 278.721 334.323 290.645 349.434 298.943C364.498 307.215 379.593 312.016 392.856 312.005L392.85 304.005ZM392.879 304.005L392.849 304.005L392.857 312.005L392.887 312.005L392.879 304.005ZM396.883 308.068V308.005H388.883V308.068H396.883ZM428.586 304.068H392.883V312.068H428.586V304.068ZM424.586 290.188V308.068H432.586V290.188H424.586ZM393.063 294.188H428.586V286.188H393.063V294.188ZM392.24 294.109L392.453 294.141L393.673 286.235L393.46 286.202L392.24 294.109ZM272.854 151.86C286.114 235.225 337.21 285.616 392.24 294.109L393.46 286.202C342.65 278.361 293.605 231.392 280.754 150.604L272.854 151.86ZM272.829 151.705L272.854 151.86L280.754 150.604L280.73 150.448L272.829 151.705ZM272.779 138.402V151.076H280.779V138.402H272.779ZM274.763 142.402H276.779V134.402H274.763V142.402ZM270.809 139.01L270.809 139.01L278.716 137.794L278.716 137.793L270.809 139.01ZM276.779 134.401H274.763V142.401H276.779V134.401ZM272.779 111.62V138.401H280.779V111.62H272.779ZM214.276 115.62H276.779V107.62H214.276V115.62ZM210.276 4.46094V111.62H218.276V4.46094H210.276ZM278.742 138.402C278.742 138.253 278.734 138.12 278.723 138.005C278.711 137.891 278.697 137.793 278.683 137.716C278.677 137.678 278.67 137.644 278.664 137.615C278.659 137.586 278.653 137.562 278.649 137.543C278.645 137.524 278.642 137.509 278.639 137.5C278.638 137.495 278.637 137.491 278.637 137.489C278.637 137.488 278.636 137.487 278.636 137.486C278.636 137.486 278.636 137.486 278.636 137.486C278.636 137.486 278.636 137.486 278.636 137.486C278.636 137.485 278.636 137.485 278.636 137.485C278.636 137.485 278.636 137.485 278.636 137.485C278.636 137.485 278.636 137.487 278.637 137.489C278.637 137.491 278.638 137.495 278.639 137.5C278.642 137.509 278.645 137.524 278.649 137.543C278.653 137.562 278.659 137.586 278.664 137.615C278.67 137.644 278.677 137.678 278.683 137.716C278.697 137.793 278.711 137.89 278.723 138.005C278.734 138.12 278.742 138.253 278.742 138.401H270.742C270.742 138.55 270.751 138.683 270.762 138.798C270.774 138.912 270.788 139.01 270.802 139.087C270.808 139.125 270.815 139.159 270.821 139.188C270.826 139.217 270.831 139.241 270.836 139.26C270.84 139.279 270.843 139.294 270.845 139.303C270.846 139.308 270.847 139.312 270.848 139.314C270.848 139.315 270.848 139.316 270.849 139.317C270.849 139.317 270.849 139.317 270.849 139.318C270.849 139.318 270.849 139.318 270.849 139.318C270.849 139.318 270.849 139.318 270.849 139.318C270.849 139.318 270.849 139.318 270.849 139.318C270.849 139.318 270.848 139.316 270.848 139.314C270.847 139.312 270.847 139.308 270.845 139.303C270.843 139.294 270.84 139.279 270.836 139.26C270.832 139.241 270.826 139.217 270.821 139.188C270.815 139.159 270.808 139.125 270.802 139.087C270.788 139.011 270.774 138.913 270.762 138.798C270.751 138.683 270.742 138.55 270.742 138.402H278.742ZM274.742 134.401H258.648V142.401H274.742V134.401ZM254.65 138.498C254.727 141.717 254.813 145.302 254.908 149.283L262.906 149.091C262.811 145.111 262.725 141.525 262.647 138.305L254.65 138.498ZM262.907 149.187V138.402H254.907V149.187H262.907ZM258.907 142.402H274.742V134.402H258.907V142.402ZM276.773 151.195C280.725 150.577 280.725 150.577 280.725 150.577C280.725 150.577 280.725 150.577 280.725 150.577C280.725 150.577 280.725 150.577 280.725 150.577C280.725 150.577 280.725 150.577 280.725 150.577C280.725 150.577 280.725 150.577 280.725 150.577C280.725 150.577 280.725 150.577 280.725 150.577C280.725 150.577 280.725 150.577 280.725 150.577C280.725 150.576 280.725 150.576 280.725 150.576C280.725 150.575 280.724 150.574 280.724 150.573C280.724 150.57 280.723 150.567 280.723 150.564L272.82 151.808C272.821 151.81 272.821 151.812 272.821 151.812C272.821 151.813 272.821 151.813 272.821 151.813C272.821 151.813 272.821 151.813 272.821 151.813C272.821 151.813 272.821 151.813 272.821 151.813C272.821 151.812 272.821 151.812 272.821 151.812C272.821 151.812 272.821 151.812 272.821 151.812C272.821 151.812 272.821 151.812 272.821 151.812C272.821 151.812 272.821 151.812 272.821 151.812C272.821 151.812 272.821 151.812 272.821 151.812C272.821 151.812 272.821 151.812 276.773 151.195ZM258.955 155.194L276.773 155.195L276.773 147.195L258.955 147.194L258.955 155.194ZM254.956 151.276C254.956 151.278 254.956 151.279 254.956 151.28C254.956 151.282 254.956 151.283 254.956 151.284L262.954 151.104C262.954 151.103 262.954 151.101 262.954 151.1C262.954 151.099 262.954 151.097 262.954 151.096L254.956 151.276ZM276.772 147.186H258.955V155.186H276.772V147.186ZM35.7262 179.036H0.000244141V187.036H35.7262V179.036ZM39.7262 361.616V183.036H31.7262V361.616H39.7262ZM53.5892 357.616H35.7262V365.616H53.5892V357.616ZM57.5892 495.537V361.616H49.5892V495.537H57.5892ZM17.8633 499.537H53.5892V491.537H17.8633V499.537ZM13.8633 361.617V495.537H21.8633V361.617H13.8633ZM0.000244141 365.617H17.8633V357.617H0.000244141V365.617ZM-3.99976 183.036V361.617H4.00024V183.036H-3.99976ZM455.36 420.115H53.5892V428.115H455.36V420.115ZM451.36 138.402V424.115H459.36V138.402H451.36ZM482.135 134.402H455.36V142.402H482.135V134.402ZM486.135 424.115V138.402H478.135V424.115H486.135ZM486.135 424.116V424.115H478.135V424.116H486.135ZM486.135 450.896V424.116H478.135V450.896H486.135ZM53.5892 454.896H482.135V446.896H53.5892V454.896ZM49.5892 424.115V450.896H57.5892V424.115H49.5892ZM321.433 454.897H348.208V446.897H321.433V454.897ZM325.433 495.53V450.897H317.433V495.53H325.433ZM348.208 491.53H321.433V499.53H348.208V491.53ZM344.208 450.897V495.53H352.208V450.897H344.208ZM410.714 115.62H500V107.62H410.714V115.62ZM414.714 138.401V111.62H406.714V138.401H414.714ZM500 134.401H410.714V142.401H500V134.401ZM496 111.62V138.401H504V111.62H496ZM428.586 134.402H410.714V142.402H428.586V134.402ZM432.586 290.188V138.402H424.586V290.188H432.586ZM410.714 294.188H428.586V286.188H410.714V294.188ZM406.714 138.402V290.188H414.714V138.402H406.714Z" fill="white" mask="url(#path-1-outside-1_102_426)"/>
</g>
<defs>
<clipPath id="clip0_102_426">
<rect width="500" height="500" fill="white" transform="translate(0.000244141)"/>
</clipPath>
</defs>
</svg>
