<svg width="513" height="389" viewBox="0 0 513 389" fill="none" xmlns="http://www.w3.org/2000/svg">
<g clip-path="url(#clip0_2_6)">
<path d="M512.18 89.1428C512.148 81.6195 510.581 74.1819 507.573 67.2853C504.566 60.3888 500.182 54.1785 494.69 49.0349C483.252 38.3083 468.143 32.3605 452.46 32.4102H217.903C212.879 32.4199 207.956 30.9996 203.71 28.3155L174.055 9.54113C164.122 3.26831 152.606 -0.041465 140.857 0.000392147H59.9201C44.2299 -0.0545321 29.1132 5.89359 17.6699 16.625C12.1779 21.7687 7.79393 27.979 4.78655 34.8755C1.77917 41.772 0.211633 49.2097 0.179932 56.733L0.179932 105.358C0.184406 106.433 0.408302 107.496 0.837919 108.482C1.26754 109.468 1.89384 110.355 2.67849 111.091C4.31408 112.626 6.47639 113.476 8.72009 113.466H503.64C505.883 113.476 508.046 112.626 509.681 111.091C510.466 110.355 511.092 109.468 511.522 108.482C511.952 107.496 512.175 106.433 512.18 105.358V89.1428ZM0.179932 332.268C0.211633 339.791 1.77917 347.229 4.78655 354.125C7.79393 361.022 12.1779 367.232 17.6699 372.376C29.1132 383.107 44.2299 389.055 59.9201 389H452.44C468.123 389.05 483.231 383.102 494.67 372.376C500.165 367.234 504.553 361.024 507.564 354.128C510.575 347.231 512.146 339.793 512.18 332.268V153.983C512.175 152.908 511.952 151.845 511.522 150.859C511.092 149.873 510.466 148.986 509.681 148.25C508.046 146.715 505.883 145.865 503.64 145.875H8.72009C6.47639 145.865 4.31408 146.715 2.67849 148.25C1.89384 148.986 1.26754 149.873 0.837919 150.859C0.408302 151.845 0.184406 152.908 0.179932 153.983L0.179932 332.268Z" fill="#FFCF26"/>
</g>
<defs>
<clipPath id="clip0_2_6">
<rect width="512" height="389" fill="white" transform="translate(0.179932)"/>
</clipPath>
</defs>
</svg>
