<svg width="500" height="500" viewBox="0 0 500 500" fill="none" xmlns="http://www.w3.org/2000/svg">
<path fill-rule="evenodd" clip-rule="evenodd" d="M393.431 237.725C379.579 304.239 320.631 354.213 250.001 354.213C179.37 354.213 120.422 304.239 106.57 237.725H176.017C179.302 251.714 186.448 264.208 196.263 274.022C210.008 287.777 229.012 296.292 250.01 296.292C269.259 296.292 286.924 289.009 300.405 277.014C301.558 276.095 302.673 275.098 303.748 274.022C313.563 264.208 320.709 251.714 323.994 237.725H393.431ZM112.699 441.58H224.847V413.895C177.542 408.186 135.125 386.581 103.119 354.565C65.5115 316.968 42.2646 265.029 42.2646 207.664C42.2646 150.31 65.5115 98.3806 103.119 60.7828C116.043 47.8592 130.56 36.0989 146.455 26.6653C206.958 -9.24128 295.575 -8.92846 355.618 27.8677C370.712 37.1156 384.535 48.4164 396.892 60.7828C434.49 98.3806 457.736 150.31 457.736 207.674C457.736 265.029 434.49 316.968 396.892 354.565C364.876 386.581 322.459 408.186 275.144 413.895V441.58H387.292C406.668 441.58 422.504 457.485 422.504 476.792V500H77.4869V476.792C77.4869 457.417 93.3335 441.58 112.699 441.58ZM250.001 31.5727C347.28 31.5727 426.131 110.424 426.131 207.703C426.131 304.973 347.28 383.834 250.001 383.834C152.721 383.834 73.8698 304.973 73.8698 207.703C73.8698 110.424 152.721 31.5727 250.001 31.5727ZM166.134 87.1482C163.24 82.143 164.941 75.7398 169.937 72.8364C174.942 69.9427 181.345 71.6535 184.239 76.649L197.328 99.3093C200.222 104.305 198.521 110.718 193.516 113.611C188.521 116.505 182.108 114.804 179.214 109.808L166.134 87.1482ZM117.382 146.057C112.387 143.193 110.656 136.799 113.53 131.794C116.395 126.799 122.788 125.078 127.783 127.943L150.444 141.023C155.439 143.887 157.169 150.28 154.295 155.286C151.431 160.281 145.038 162.002 140.042 159.137L117.382 146.057ZM372.218 122.038C377.213 119.174 383.607 120.894 386.471 125.89C389.345 130.895 387.615 137.288 382.619 140.153L359.959 153.233C354.963 156.097 348.57 154.376 345.706 149.381C342.832 144.376 344.562 137.982 349.557 135.118L372.218 122.038ZM313.26 73.2861C316.124 68.2906 322.517 66.5701 327.513 69.4344C332.518 72.2987 334.239 78.6921 331.374 83.6973L318.294 106.348C315.42 111.343 309.037 113.074 304.031 110.2C299.036 107.335 297.315 100.942 300.18 95.9464L313.26 73.2861ZM237.81 60.4798C237.81 54.6925 242.503 49.9903 248.29 49.9903C254.087 49.9903 258.779 54.6925 258.779 60.4798V86.6496C258.779 92.4369 254.087 97.139 248.29 97.139C242.503 97.139 237.81 92.4369 237.81 86.6496V60.4798ZM266.698 189.247C277.725 195.19 285.233 206.863 285.233 220.285C285.233 239.739 269.464 255.507 250.01 255.507C230.556 255.507 214.778 239.739 214.778 220.285C214.778 206.863 222.286 195.19 233.333 189.247V133.945L250.01 117.267L266.698 133.945V189.247Z" fill="white"/>
</svg>
