<svg width="500" height="500" viewBox="0 0 500 500" fill="none" xmlns="http://www.w3.org/2000/svg">
<g clip-path="url(#clip0_102_293)">
<path d="M93.025 157.43C93.025 89.0275 148.675 33.3774 217.078 33.3774C285.48 33.3774 341.13 89.0275 341.13 157.43C341.13 165.449 340.341 173.532 338.786 181.457L371.538 187.888C373.509 177.849 374.509 167.602 374.509 157.43C374.509 70.6232 303.886 0 217.079 0C130.272 0 59.6487 70.6232 59.6487 157.43C59.6487 193.074 71.9104 228.005 94.1731 255.789L120.219 234.917C102.428 212.715 93.025 185.921 93.025 157.43Z" fill="white"/>
<path d="M217.078 89.0063C254.807 89.0063 285.502 119.701 285.502 157.43H318.879C318.879 101.297 273.211 55.6289 217.078 55.6289C160.945 55.6289 115.277 101.297 115.277 157.43C115.277 175.055 119.881 192.453 128.59 207.744L157.593 191.223C151.745 180.958 148.654 169.272 148.654 157.43C148.654 119.701 179.349 89.0063 217.078 89.0063Z" fill="white"/>
<path d="M393.978 240.263C388.834 240.263 383.886 241.108 379.261 242.667C373.568 223.619 355.884 209.696 335.011 209.696C329.574 209.696 324.357 210.647 319.509 212.381C313.106 194.56 296.042 181.778 276.044 181.778C271.605 181.778 267.316 182.421 263.25 183.596V157.43C263.25 131.971 242.537 111.258 217.078 111.258C191.619 111.258 170.906 131.971 170.906 157.43V254.625C166.839 253.45 162.55 252.807 158.111 252.807C132.652 252.807 111.939 273.52 111.939 298.979V385.594C111.939 448.678 163.261 500 226.343 500H325.746C388.828 500 440.15 448.678 440.15 385.594V286.435C440.15 260.975 419.437 240.263 393.978 240.263ZM406.773 385.596C406.773 430.275 370.423 466.624 325.746 466.624H226.343C181.665 466.624 145.316 430.275 145.316 385.596V298.98C145.316 291.925 151.056 286.185 158.111 286.185C165.166 286.185 170.906 291.925 170.906 298.98V366.371H204.283V157.43C204.283 150.375 210.023 144.635 217.078 144.635C224.133 144.635 229.872 150.375 229.872 157.43V227.95V276.928V286.435H263.25V276.928V227.95C263.25 220.895 268.99 215.155 276.044 215.155C283.099 215.155 288.839 220.895 288.839 227.95V286.435H322.217V255.868C322.217 248.813 327.956 243.073 335.011 243.073C342.066 243.073 347.806 248.813 347.806 255.868V286.435H381.183C381.183 279.38 386.923 273.64 393.978 273.64C401.033 273.64 406.773 279.38 406.773 286.435V385.596Z" fill="white"/>
</g>
<defs>
<clipPath id="clip0_102_293">
<rect width="500" height="500" fill="white" transform="translate(0.000244141)"/>
</clipPath>
</defs>
</svg>
