<svg width="500" height="500" viewBox="0 0 500 500" fill="none" xmlns="http://www.w3.org/2000/svg">
<g clip-path="url(#clip0_102_125)">
<path fill-rule="evenodd" clip-rule="evenodd" d="M429.341 321.992C429.341 420.303 349.644 500 251.333 500C153.022 500 73.3259 411.878 73.3259 313.567C73.3259 286.393 95.6689 238.452 120.254 206.912C133.103 190.428 149.658 174.908 165.792 159.783C176.852 149.415 187.713 139.232 197.046 129.053C222.13 101.695 237.349 74.6548 244.673 51.4149C244.673 49.1739 244.715 46.9449 244.756 44.7302L244.756 44.7286C245.052 28.8074 245.335 13.6227 230.109 0C283.793 21.8225 326.903 70.2567 359.103 123.735C382.393 184.359 382.393 200.11 382.393 254.358C374.871 316.096 368.364 330.756 361.605 345.986C360.251 349.036 358.887 352.109 357.503 355.587C402.159 319.165 405.087 307.359 410.212 250.59C410.212 249.379 410.213 248.16 410.213 246.931C410.215 243.015 410.217 239.012 410.2 234.956C412.729 242.521 416.573 255.084 416.573 255.084C425.059 283.88 429.341 307.839 429.341 321.992ZM304.148 340.155C358.166 402.31 304.148 471.923 250.857 466.236C201.382 466.236 161.275 423.89 161.275 371.653C161.275 330.903 185.683 294.143 219.906 279.948C224.913 277.87 223.069 283.463 220.138 292.353C217.422 300.588 213.774 311.652 213.774 322.07C213.774 353.118 219.543 362.8 230.897 381.851L231.371 382.646C233.322 384.358 234.478 385.776 236.061 387.717C239.278 391.663 244.259 397.772 261.274 412.903C294.387 387.893 299.544 355.672 301.524 343.299C302.351 338.133 302.624 336.427 304.148 340.155Z" fill="white"/>
</g>
<defs>
<clipPath id="clip0_102_125">
<rect width="500" height="500" fill="white" transform="translate(0.000244141)"/>
</clipPath>
</defs>
</svg>
