<svg width="500" height="500" viewBox="0 0 500 500" fill="none" xmlns="http://www.w3.org/2000/svg">
<g clip-path="url(#clip0_102_3)">
<path fill-rule="evenodd" clip-rule="evenodd" d="M249.99 94.0019L35.3981 274.066C33.2828 275.841 30.129 275.565 28.354 273.449L1.12985 241.005C-0.645155 238.89 -0.369232 235.736 1.74614 233.961L233.887 39.1718C238.579 35.2341 244.294 33.315 249.976 33.3223C255.666 33.3086 261.392 35.2275 266.093 39.1717L347.275 107.292V40.9653H425.163V172.647L498.234 233.961C500.349 235.736 500.625 238.89 498.85 241.005L471.626 273.449C469.851 275.565 466.697 275.841 464.582 274.066L249.99 94.0019ZM424.969 262.797L250.382 114.407L75.7954 262.797H75.6001V450.3C75.6001 455.823 80.0773 460.3 85.6002 460.3H415.164C420.686 460.3 425.164 455.823 425.164 450.3V262.962V262.797H424.969ZM274.088 313.483H351.309V460.3H274.088V313.483ZM171.405 305.884H132.954V344.336H171.405V305.884ZM181.891 305.884H220.343V344.336H181.891V305.884ZM171.405 354.823H132.954V393.275H171.405V354.823ZM181.891 354.823H220.343V393.275H181.891V354.823Z" fill="white"/>
</g>
<defs>
<clipPath id="clip0_102_3">
<rect width="500" height="500" fill="white"/>
</clipPath>
</defs>
</svg>
