<svg width="500" height="500" viewBox="0 0 500 500" fill="none" xmlns="http://www.w3.org/2000/svg">
<g clip-path="url(#clip0_102_158)">
<path fill-rule="evenodd" clip-rule="evenodd" d="M338.183 39.5511C338.183 61.3946 320.476 79.1022 298.632 79.1022C276.789 79.1022 259.081 61.3946 259.081 39.5511C259.081 17.7076 276.789 0 298.632 0C320.476 0 338.183 17.7076 338.183 39.5511ZM134.159 99.2951C156.003 99.2951 173.711 81.5875 173.711 59.744C173.711 37.9005 156.003 20.1929 134.159 20.1929C112.316 20.1929 94.6084 37.9005 94.6084 59.744C94.6084 81.5875 112.316 99.2951 134.159 99.2951ZM286.412 118.034C286.412 142.558 266.532 162.438 242.008 162.438C217.484 162.438 197.604 142.558 197.604 118.034C197.604 93.5104 217.484 73.63 242.008 73.63C266.532 73.63 286.412 93.5104 286.412 118.034ZM285.106 235.222C285.106 269.463 257.349 297.22 223.108 297.22C188.868 297.22 161.11 269.463 161.11 235.222C161.11 200.982 188.868 173.224 223.108 173.224C257.349 173.224 285.106 200.982 285.106 235.222ZM358.91 173.223C383.434 173.223 403.314 153.343 403.314 128.819C403.314 104.296 383.434 84.4152 358.91 84.4152C334.386 84.4152 314.506 104.296 314.506 128.819C314.506 153.343 334.386 173.223 358.91 173.223ZM454.323 385.593C454.323 410.117 434.443 429.997 409.919 429.997C385.395 429.997 365.515 410.117 365.515 385.593C365.515 361.069 385.395 341.189 409.919 341.189C434.443 341.189 454.323 361.069 454.323 385.593ZM125.107 221.055C149.63 221.055 169.511 201.174 169.511 176.651C169.511 152.127 149.63 132.247 125.107 132.247C100.583 132.247 80.7025 152.127 80.7025 176.651C80.7025 201.174 100.583 221.055 125.107 221.055ZM89.4062 230.414C89.4062 252.257 71.6986 269.965 49.8551 269.965C28.0117 269.965 10.304 252.257 10.304 230.414C10.304 208.57 28.0117 190.863 49.8551 190.863C71.6986 190.863 89.4062 208.57 89.4062 230.414ZM334.364 307.415C356.207 307.415 373.915 289.707 373.915 267.864C373.915 246.02 356.207 228.313 334.364 228.313C312.521 228.313 294.813 246.02 294.813 267.864C294.813 289.707 312.521 307.415 334.364 307.415ZM449.023 195.617C449.023 211.631 436.041 224.614 420.027 224.614C404.012 224.614 391.03 211.631 391.03 195.617C391.03 179.602 404.012 166.62 420.027 166.62C436.041 166.62 449.023 179.602 449.023 195.617ZM456.792 150.57C464.538 150.57 470.817 144.291 470.817 136.545C470.817 128.799 464.538 122.52 456.792 122.52C449.046 122.52 442.766 128.799 442.766 136.545C442.766 144.291 449.046 150.57 456.792 150.57ZM418.318 253.839C418.318 261.585 412.039 267.865 404.293 267.865C396.547 267.865 390.268 261.585 390.268 253.839C390.268 246.093 396.547 239.814 404.293 239.814C412.039 239.814 418.318 246.093 418.318 253.839ZM397.2 325.271C404.946 325.271 411.225 318.991 411.225 311.245C411.225 303.499 404.946 297.22 397.2 297.22C389.454 297.22 383.174 303.499 383.174 311.245C383.174 318.991 389.454 325.271 397.2 325.271ZM360.228 345.628C360.228 353.374 353.948 359.653 346.202 359.653C338.456 359.653 332.177 353.374 332.177 345.628C332.177 337.882 338.456 331.603 346.202 331.603C353.948 331.603 360.228 337.882 360.228 345.628ZM251.199 500C258.945 500 265.224 493.721 265.224 485.975C265.224 478.229 258.945 471.95 251.199 471.95C243.453 471.95 237.173 478.229 237.173 485.975C237.173 493.721 243.453 500 251.199 500ZM229.408 433.838C229.408 441.584 223.129 447.863 215.383 447.863C207.637 447.863 201.357 441.584 201.357 433.838C201.357 426.092 207.637 419.813 215.383 419.813C223.129 419.813 229.408 426.092 229.408 433.838ZM179.684 352.266C187.43 352.266 193.709 345.987 193.709 338.241C193.709 330.495 187.43 324.215 179.684 324.215C171.938 324.215 165.659 330.495 165.659 338.241C165.659 345.987 171.938 352.266 179.684 352.266ZM114.606 307.415C114.606 315.161 108.326 321.441 100.58 321.441C92.8345 321.441 86.5551 315.161 86.5551 307.415C86.5551 299.669 92.8345 293.39 100.58 293.39C108.326 293.39 114.606 299.669 114.606 307.415ZM18.4321 154.977C26.178 154.977 32.4574 148.698 32.4574 140.952C32.4574 133.206 26.178 126.926 18.4321 126.926C10.6862 126.926 4.40684 133.206 4.40684 140.952C4.40684 148.698 10.6862 154.977 18.4321 154.977ZM160.109 289.538C160.109 297.284 153.83 303.563 146.084 303.563C138.338 303.563 132.059 297.284 132.059 289.538C132.059 281.792 138.338 275.513 146.084 275.513C153.83 275.513 160.109 281.792 160.109 289.538ZM469.023 313.617C485.038 313.617 498.02 300.635 498.02 284.62C498.02 268.606 485.038 255.623 469.023 255.623C453.009 255.623 440.027 268.606 440.027 284.62C440.027 300.635 453.009 313.617 469.023 313.617ZM361.174 438.037C361.174 454.052 348.191 467.034 332.177 467.034C316.162 467.034 303.18 454.052 303.18 438.037C303.18 422.023 316.162 409.04 332.177 409.04C348.191 409.04 361.174 422.023 361.174 438.037ZM268.959 403.133C290.803 403.133 308.511 385.425 308.511 363.582C308.511 341.738 290.803 324.03 268.959 324.03C247.116 324.03 229.408 341.738 229.408 363.582C229.408 385.425 247.116 403.133 268.959 403.133ZM81.0826 349.371C81.0826 371.215 63.3749 388.922 41.5314 388.922C19.688 388.922 1.98035 371.215 1.98035 349.371C1.98035 327.528 19.688 309.82 41.5314 309.82C63.3749 309.82 81.0826 327.528 81.0826 349.371ZM146.944 454.837C171.468 454.837 191.348 434.957 191.348 410.433C191.348 385.91 171.468 366.029 146.944 366.029C122.42 366.029 102.54 385.91 102.54 410.433C102.54 434.957 122.42 454.837 146.944 454.837Z" fill="white"/>
</g>
<defs>
<clipPath id="clip0_102_158">
<rect width="500" height="500" fill="white" transform="translate(0.000244141)"/>
</clipPath>
</defs>
</svg>
