<svg width="500" height="500" viewBox="0 0 500 500" fill="none" xmlns="http://www.w3.org/2000/svg">
<g clip-path="url(#clip0_102_441)">
<path d="M249.992 0.0078125C111.94 0.0078125 0.000244141 111.939 0.000244141 250C0.000244141 388.06 111.94 499.992 249.992 499.992C388.077 499.992 500 388.061 500 250C500 111.938 388.077 0.0078125 249.992 0.0078125ZM293.889 364.773C283.776 375.996 277.981 382.666 267.066 393.1C250.544 408.898 231.784 413.104 217.199 397.511C196.236 375.09 218.223 306.882 218.759 304.299C222.696 286.17 230.556 249.936 230.556 249.936C230.556 249.936 213.576 260.331 203.496 264.017C196.062 266.734 187.652 263.167 185.572 255.976C183.635 249.314 185.178 245.077 189.258 240.525C199.369 229.31 205.165 222.641 216.081 212.206C232.618 196.4 251.362 192.203 265.947 207.788C286.911 230.209 271.443 267.097 266.01 293.234C265.475 295.825 252.59 355.37 252.59 355.37C252.59 355.37 269.569 344.974 279.65 341.281C287.099 338.572 295.51 342.147 297.589 349.33C299.527 355.993 297.969 360.229 293.889 364.773ZM266.767 171.995C243.441 174.042 222.886 156.796 220.838 133.453C218.807 110.135 236.053 89.5722 259.38 87.541C282.691 85.4931 303.261 102.756 305.293 126.074C307.34 149.393 290.077 169.964 266.767 171.995Z" fill="white"/>
</g>
<defs>
<clipPath id="clip0_102_441">
<rect width="500" height="500" fill="white" transform="translate(0.000244141)"/>
</clipPath>
</defs>
</svg>
