<svg width="500" height="500" viewBox="0 0 500 500" fill="none" xmlns="http://www.w3.org/2000/svg">
<path d="M161.017 230.829C149.502 230.829 140.174 240.157 140.174 251.672C140.174 263.187 149.502 272.515 161.017 272.515C172.532 272.515 181.867 263.187 181.867 251.672C181.867 240.157 172.532 230.829 161.017 230.829Z" fill="white"/>
<path d="M250.007 230.829C238.493 230.829 229.158 240.157 229.158 251.672C229.158 263.187 238.493 272.515 250.007 272.515C261.515 272.515 270.857 263.187 270.857 251.672C270.858 240.157 261.515 230.829 250.007 230.829Z" fill="white"/>
<path d="M338.99 230.829C327.476 230.829 318.141 240.157 318.141 251.672C318.141 263.187 327.476 272.515 338.99 272.515C350.505 272.515 359.84 263.187 359.84 251.672C359.84 240.157 350.505 230.829 338.99 230.829Z" fill="white"/>
<path d="M386.503 131.617H113.504C92.5307 131.617 75.4517 148.688 75.4517 169.663V461.947C75.4517 482.928 92.5307 500 113.504 500H386.503C407.484 500 424.548 482.928 424.548 461.947V169.663C424.549 148.688 407.485 131.617 386.503 131.617ZM157.308 475.988L161.017 392.436L164.726 475.988H157.308ZM246.285 475.988L250.007 392.436L253.716 475.988H246.285ZM335.275 475.988L338.991 392.436L342.706 475.988H335.275ZM400.537 461.947C400.537 469.691 394.24 475.988 386.504 475.988H361.875L362.553 378.437C364.089 380.685 366.609 382.201 369.529 382.063C374.005 381.848 377.458 378.05 377.243 373.572L380.703 304.185C380.703 276.893 353.051 275.551 338.991 275.551C324.929 275.551 297.278 276.893 297.278 304.185L299.602 373.572C299.395 378.05 302.84 381.848 307.318 382.063C311.231 382.25 314.48 379.564 315.414 375.918L316.103 475.987H272.895L273.566 378.436C275.102 380.684 277.624 382.2 280.544 382.062C285.014 381.847 288.474 378.049 288.267 373.571L291.712 304.184C291.712 276.892 264.061 275.55 250.006 275.55C235.938 275.55 208.286 276.892 208.286 304.184L210.611 373.571C210.403 378.049 213.85 381.847 218.333 382.062C222.246 382.249 225.502 379.557 226.426 375.896L227.111 475.986H183.911L184.578 378.435C186.114 380.683 188.636 382.199 191.56 382.061C196.037 381.846 199.484 378.048 199.276 373.57L202.729 304.183C202.729 276.892 175.084 275.549 161.016 275.549C146.961 275.549 119.31 276.892 119.31 304.183L121.628 373.57C121.414 378.048 124.873 381.846 129.344 382.061C133.272 382.248 136.52 379.556 137.444 375.895L138.129 475.985H113.504C105.76 475.985 99.4643 469.688 99.4643 461.944V169.663C99.4643 161.927 105.761 155.629 113.504 155.629H386.503C394.239 155.629 400.536 161.927 400.536 169.663V461.947H400.537Z" fill="white"/>
<path d="M277.272 69.082L305.796 40.5576V104.692C305.796 110.54 310.544 115.28 316.39 115.28C322.244 115.28 326.992 110.54 326.992 104.692V40.5576L355.515 69.082C357.591 71.1513 360.297 72.1894 363.003 72.1894C365.715 72.1894 368.435 71.1513 370.497 69.082C374.642 64.9443 374.642 58.2392 370.497 54.1074L323.885 7.48828L316.391 0L308.904 7.48828L262.292 54.1074C258.153 58.2382 258.153 64.9443 262.292 69.082C266.428 73.2197 273.141 73.2197 277.272 69.082Z" fill="white"/>
<path d="M176.124 112.18C176.124 112.186 176.124 112.186 176.124 112.186L183.612 119.674L191.106 112.186C191.106 112.186 191.113 112.186 191.113 112.18L237.711 65.5664C241.857 61.4287 241.857 54.7168 237.711 50.5849C233.587 46.4472 226.874 46.4472 222.737 50.5849L194.212 79.1162V14.9824C194.212 9.12793 189.464 4.3877 183.611 4.3877C177.771 4.3877 173.023 9.12793 173.023 14.9824V79.1162L144.493 50.5849C140.362 46.4472 133.649 46.4472 129.51 50.5849C125.372 54.7158 125.372 61.4287 129.51 65.5664L176.124 112.18Z" fill="white"/>
</svg>
