<svg width="500" height="500" viewBox="0 0 500 500" fill="none" xmlns="http://www.w3.org/2000/svg">
<path d="M285.322 488.502C285.322 482.148 280.179 477.005 273.825 477.005H223.933C217.579 477.005 212.436 482.148 212.436 488.502C212.436 494.857 217.579 500 223.933 500H273.825C280.179 500 285.322 494.857 285.322 488.502Z" fill="white"/>
<path d="M281.901 449.073H215.669C209.316 449.073 204.175 454.216 204.175 460.57C204.175 466.925 209.316 472.068 215.669 472.068H281.901C288.254 472.068 293.396 466.925 293.396 460.57C293.396 454.216 288.254 449.073 281.901 449.073Z" fill="white"/>
<path d="M281.901 421.14H215.669C209.316 421.14 204.175 426.283 204.175 432.637C204.175 438.991 209.316 444.135 215.669 444.135H281.901C288.254 444.135 293.396 438.991 293.396 432.637C293.396 426.283 288.254 421.14 281.901 421.14Z" fill="white"/>
<path fill-rule="evenodd" clip-rule="evenodd" d="M296.562 374.725V388.689C296.562 403.528 284.488 415.602 269.648 415.592H228.148C213.308 415.592 201.239 403.523 201.239 388.684V374.71C201.239 350.473 191.011 326.653 173.178 309.354C150.545 287.399 138.57 256.7 140.322 225.135C143.226 172.793 184.593 128.991 236.55 123.246C240.652 122.791 244.808 122.563 248.901 122.563C308.868 122.563 357.652 171.348 357.652 231.315C357.652 261.351 345.673 289.309 323.92 310.037C306.532 326.603 296.562 350.182 296.562 374.725ZM255.282 378.189C258.689 378.189 262.245 375.423 262.245 372.012V361.565C262.245 335.542 270.926 310.539 289.431 292.907C304.899 278.167 321.472 258.143 321.472 236.786C321.472 194.143 291.551 159.577 248.911 159.577C245.982 159.577 243.005 159.74 240.063 160.067C203.153 164.149 178.21 195.193 176.145 232.4C174.898 254.858 189.307 276.688 205.398 292.298C222.801 311.965 233.164 334.571 237.169 361.565V372.012C237.169 375.419 240.008 378.189 243.419 378.189H255.282Z" fill="white"/>
<path d="M148.527 317.479L89.3268 376.679C83.6486 382.357 83.6497 391.55 89.3293 397.23C95.0089 402.91 104.202 402.911 109.88 397.233L169.08 338.033C174.758 332.355 174.757 323.161 169.078 317.482C163.398 311.802 154.205 311.801 148.527 317.479Z" fill="white"/>
<path d="M387.908 397.232L328.708 338.032C323.03 332.354 323.031 323.161 328.711 317.481C334.39 311.801 343.583 311.8 349.262 317.478L408.461 376.678C414.14 382.356 414.138 391.55 408.459 397.229C402.779 402.909 393.586 402.91 387.908 397.232Z" fill="white"/>
<path d="M116.529 209.181H32.8075C24.7773 209.181 18.2776 215.682 18.2776 223.715C18.2776 231.747 24.7773 238.248 32.8075 238.248H116.529C124.559 238.248 131.059 231.747 131.059 223.715C131.059 215.682 124.559 209.181 116.529 209.181Z" fill="white"/>
<path d="M464.757 209.181H381.036C373.005 209.181 366.506 215.682 366.506 223.715C366.506 231.747 373.005 238.248 381.036 238.248H464.757C472.787 238.248 479.287 231.747 479.287 223.715C479.287 215.682 472.787 209.181 464.757 209.181Z" fill="white"/>
<path d="M387.908 64.2722L328.708 123.472C323.03 129.15 323.031 138.343 328.711 144.023C334.39 149.703 343.583 149.704 349.262 144.026L408.461 84.8257C414.14 79.1475 414.138 69.9544 408.459 64.2748C402.779 58.5952 393.586 58.594 387.908 64.2722Z" fill="white"/>
<path d="M148.527 144.026L89.3268 84.8263C83.6486 79.1481 83.6497 69.955 89.3293 64.2754C95.0089 58.5957 104.202 58.5946 109.88 64.2728L169.08 123.473C174.758 129.151 174.757 138.344 169.078 144.024C163.398 149.703 154.205 149.704 148.527 144.026Z" fill="white"/>
<path d="M234.37 14.5299V98.2511C234.37 106.281 240.871 112.781 248.904 112.781C256.936 112.781 263.437 106.281 263.437 98.2511V14.5299C263.437 6.4997 256.936 0 248.904 0C240.871 0 234.37 6.4997 234.37 14.5299Z" fill="white"/>
</svg>
