<svg width="500" height="500" viewBox="0 0 500 500" fill="none" xmlns="http://www.w3.org/2000/svg">
<g clip-path="url(#clip0_102_185)">
<path fill-rule="evenodd" clip-rule="evenodd" d="M174.964 450.013C106.005 450.013 49.9031 393.952 49.9031 325.044C49.9031 256.136 106.005 200.075 174.964 200.075C243.922 200.075 300.024 256.136 300.024 325.044C300.024 393.952 243.922 450.013 174.964 450.013ZM300.024 0V49.9875H414.73L279.664 185.003C250.45 163.134 214.283 150.063 174.964 150.063C78.2668 150.063 -0.121155 228.394 -0.121155 325.019C-0.121155 421.645 78.2668 500 174.964 500C271.66 500 350.048 421.67 350.048 325.044C350.048 285.754 336.917 249.612 315.056 220.395L450.097 85.4523V199.95H500.121V0H300.024Z" fill="white"/>
</g>
<defs>
<clipPath id="clip0_102_185">
<rect width="500" height="500" fill="white"/>
</clipPath>
</defs>
</svg>
