<svg width="513" height="433" viewBox="0 0 513 433" fill="none" xmlns="http://www.w3.org/2000/svg">
<g clip-path="url(#clip0_2_8)">
<path d="M457.832 0H54.8882C47.7142 0.0054257 40.6125 1.43289 33.9941 4.19979C27.3757 6.96668 21.3721 11.018 16.3307 16.1194C6.06888 26.501 0.328405 40.5156 0.360239 55.1091V377.891C0.34918 392.457 6.0881 406.44 16.3307 416.802C21.3655 421.917 27.3662 425.983 33.9849 428.764C40.6036 431.544 47.7086 432.984 54.8882 433H457.832C465.006 432.995 472.108 431.567 478.726 428.8C485.345 426.033 491.348 421.982 496.39 416.881C506.652 406.499 512.392 392.484 512.36 377.891V55.1091C512.392 40.5156 506.652 26.501 496.39 16.1194C491.348 11.018 485.345 6.96668 478.726 4.19979C472.108 1.43289 465.006 0.0054257 457.832 0ZM181.077 304.576V128.424L331.92 216.5L181.077 304.576Z" fill="#26E5FF"/>
</g>
<defs>
<clipPath id="clip0_2_8">
<rect width="512" height="433" fill="white" transform="translate(0.360107)"/>
</clipPath>
</defs>
</svg>
