<svg width="500" height="500" viewBox="0 0 500 500" fill="none" xmlns="http://www.w3.org/2000/svg">
<g clip-path="url(#clip0_102_370)">
<path d="M20.2769 250.221H479.723M250 148.122V250.221M109.614 250.221V352.32M390.386 250.221V352.32M201.503 148.122H298.497C312.794 148.122 319.94 148.122 325.4 145.34C330.204 142.893 334.107 138.988 336.555 134.185C339.337 128.725 339.337 121.578 339.337 107.282V61.3377C339.337 47.0426 339.337 39.8948 336.555 34.4348C334.107 29.6321 330.204 25.7273 325.4 23.28C319.94 20.498 312.794 20.498 298.497 20.498H201.503C187.208 20.498 180.06 20.498 174.6 23.28C169.797 25.7273 165.892 29.6321 163.445 34.4348C160.663 39.8948 160.663 47.0426 160.663 61.3377V107.282C160.663 121.578 160.663 128.725 163.445 134.185C165.892 138.988 169.797 142.893 174.6 145.34C180.06 148.122 187.208 148.122 201.503 148.122ZM341.889 479.944H438.883C453.18 479.944 460.327 479.944 465.787 477.162C470.59 474.714 474.493 470.812 476.941 466.008C479.723 460.548 479.723 453.401 479.723 439.105V393.16C479.723 378.864 479.723 371.717 476.941 366.257C474.493 361.453 470.59 357.55 465.787 355.103C460.327 352.32 453.18 352.32 438.883 352.32H341.889C327.593 352.32 320.446 352.32 314.986 355.103C310.182 357.55 306.28 361.453 303.832 366.257C301.05 371.717 301.05 378.864 301.05 393.16V439.105C301.05 453.401 301.05 460.548 303.832 466.008C306.28 470.812 310.182 474.714 314.986 477.162C320.446 479.944 327.593 479.944 341.889 479.944ZM61.1165 479.944H158.111C172.406 479.944 179.554 479.944 185.014 477.162C189.816 474.714 193.721 470.812 196.168 466.008C198.95 460.548 198.95 453.401 198.95 439.105V393.16C198.95 378.864 198.95 371.717 196.168 366.257C193.721 361.453 189.816 357.55 185.014 355.103C179.554 352.32 172.406 352.32 158.111 352.32H61.1165C46.8214 352.32 39.6737 352.32 34.2136 355.103C29.4109 357.55 25.5061 361.453 23.0588 366.257C20.2769 371.717 20.2769 378.864 20.2769 393.16V439.105C20.2769 453.401 20.2769 460.548 23.0588 466.008C25.5061 470.812 29.4109 474.714 34.2136 477.162C39.6737 479.944 46.8214 479.944 61.1165 479.944Z" stroke="white" stroke-width="40" stroke-linecap="round" stroke-linejoin="round"/>
</g>
<defs>
<clipPath id="clip0_102_370">
<rect width="500" height="500" fill="white"/>
</clipPath>
</defs>
</svg>
