<svg width="500" height="500" viewBox="0 0 500 500" fill="none" xmlns="http://www.w3.org/2000/svg">
<path fill-rule="evenodd" clip-rule="evenodd" d="M334.425 136.321H334.41C334.409 89.7262 296.636 51.9536 250.041 51.9536C203.446 51.9536 165.674 89.7262 165.673 136.321H165.665H113.228L113.228 136.304V135.936H113.229C113.649 60.7887 174.697 0 249.943 0C325.189 0 386.237 60.7887 386.657 135.936H386.659V178.036H334.425V136.321ZM68.2 224.801C68.2 208.233 81.6314 194.801 98.2 194.801H401.687C418.256 194.801 431.687 208.233 431.687 224.801V470C431.687 486.568 418.256 500 401.687 500H98.1999C81.6314 500 68.2 486.568 68.2 470V224.801ZM288.528 322.815C288.528 336.887 280.994 349.2 269.74 355.941V397.909V397.909C269.74 408.912 260.82 417.831 249.818 417.831C238.815 417.831 229.896 408.912 229.896 397.909V397.909V355.789C218.781 349.017 211.359 336.782 211.359 322.815C211.359 301.505 228.634 284.23 249.943 284.23C271.253 284.23 288.528 301.505 288.528 322.815Z" fill="white"/>
</svg>
