<svg width="500" height="500" viewBox="0 0 500 500" fill="none" xmlns="http://www.w3.org/2000/svg">
<path d="M425.201 273.126L358.472 309.636L101.412 154.849L85.5517 183.295L196.527 249.87C188.825 256.206 183.488 264.957 181.379 274.705C179.271 284.453 180.514 294.627 184.909 303.581C184.381 309.172 182.73 314.599 180.054 319.537C177.378 324.474 173.733 328.821 169.336 332.315C160.822 340.175 149.933 344.976 138.387 345.962H65.4372V335.663H55.138V273.867H3.6416V459.254H55.138V397.458H65.4372V376.86H139.695C158.029 377.416 175.965 371.453 190.316 360.031C201.247 351.173 210.121 340.043 216.322 327.413C219.325 328.195 222.399 328.672 225.498 328.834C235.786 328.882 245.778 325.395 253.802 318.957C261.826 312.519 267.396 303.52 269.579 293.466L375.425 357.095L425.201 273.126Z" fill="white"/>
<path d="M496.359 280.943L469.303 265.792L473.288 258.768L454.153 248.047L400.524 343.83L419.66 354.551L423.079 348.444L450.136 363.604L496.359 280.943Z" fill="white"/>
<path d="M484.824 218.601L286.573 101.035L257.972 147.01L241.648 136.351L269.302 90.7973L255.181 82.4238L227.373 127.04L210.338 115.907L237.631 72.0422L223.747 63.8029L196.815 107.06L179.78 95.9262L206.239 53.4109L193.808 46.0366C185.689 41.8254 176.521 40.0683 167.421 40.9797C162.461 40.9544 157.564 42.0917 153.123 44.3006C148.682 46.5095 144.82 49.7283 141.848 53.6991L92.978 128.534L355.022 287.802L484.824 218.601Z" fill="white"/>
</svg>
