<svg width="500" height="500" viewBox="0 0 500 500" fill="none" xmlns="http://www.w3.org/2000/svg">
<g clip-path="url(#clip0_102_204)">
<path fill-rule="evenodd" clip-rule="evenodd" d="M1.19125 100.527L0.655762 186.835L78.1258 264.931L188.366 265.609L188.386 265.59L395.217 499.993L395.216 499.994L395.218 499.994L395.223 500L395.228 499.994L498.997 498.424L499.288 395.077L462.746 431.916V462.431H416.83V416.713H462.746V431.914L499.275 395.081L266.788 188.483L266.799 188.472L267.48 78.7064L190.01 0.610681L90.7296 0L164.422 69.5132L176.153 123.886L124.451 175.585L67.5508 162.953L1.19125 100.527ZM456.802 40.9757L493.428 78.7751L466.17 115.655L434.557 127.301L343.43 214.138L314.323 186.137L407.053 97.1673L418.917 68.2925L456.802 40.9757ZM163.792 298.515C165.581 295.86 169.379 295.485 171.605 297.787L226.141 354.175C228.356 356.466 227.877 360.224 225.191 361.938C170.47 396.862 144.133 428.457 108.039 471.755C100.637 480.634 92.8251 490.006 84.2736 499.999L21.0909 434.671C30.963 426.971 40.2215 419.955 49.0077 413.297C93.2313 379.783 125.489 355.337 163.792 298.515Z" fill="white"/>
</g>
<defs>
<clipPath id="clip0_102_204">
<rect width="500" height="500" fill="white" transform="translate(0.000244141)"/>
</clipPath>
</defs>
</svg>
