<svg width="513" height="513" viewBox="0 0 513 513" fill="none" xmlns="http://www.w3.org/2000/svg">
<path fill-rule="evenodd" clip-rule="evenodd" d="M152.278 18.616C136.117 24.952 110.101 40.469 93.7277 53.537C50.6908 87.888 19.0775 138.68 6.9143 193.017C2.59474 212.316 1.09567 226.334 1.08768 247.5C1.0787 270.417 2.83227 285.354 8.01515 306.5C19.0646 351.583 40.8101 390.17 73.6929 423.042C111.044 460.382 157.305 484.262 209.003 492.893C284.981 505.576 363.912 481.056 420.085 427.318C439.305 408.933 456.457 386.107 469.054 362.156C475.931 349.077 476.437 344.996 471.761 340.31C467.694 336.235 464.189 336.345 452.077 340.927C428.214 349.953 402.104 354.5 374.139 354.5C347.107 354.5 326.858 351.268 302.097 343.002C219.82 315.537 161.479 244.689 148.927 157C146.994 143.494 147.293 109.574 149.47 95.536C152.123 78.427 157.491 58.663 163.62 43.442C169.884 27.889 170.248 24.816 166.336 20.513C162.732 16.55 158.874 16.03 152.278 18.616ZM433.065 86.655C429.815 88.436 428.574 90.651 428.574 94.668C428.574 101.335 430.54 101.913 454.709 102.35C466.134 102.557 475.482 102.965 475.482 103.256C475.482 104.028 468.812 111.732 448.313 134.637C425.471 160.158 425.58 160.017 425.58 164.201C425.58 168.919 427.138 171.419 431.117 173.085C436.166 175.198 503.258 175.156 507.348 173.037C512.128 170.561 512.843 165.279 509.005 160.806L506.598 158L481.482 157.5L456.367 157L475.157 135.946C506.545 100.773 506.422 100.933 506.422 95.5C506.422 90.946 504.995 88.945 500.442 87.12C497.017 85.747 491.725 85.505 465.731 85.53C445.467 85.551 434.383 85.932 433.065 86.655ZM224.895 95.423C221.507 98.817 221.166 102.273 223.884 105.639C225.768 107.973 226.04 108.003 247.837 108.304C259.962 108.471 269.884 108.942 269.884 109.35C269.884 110.198 259.05 122.649 237.559 146.5C217.997 168.209 217.315 169.369 220.497 175.533C223.517 181.385 224.352 181.5 263.922 181.5H299.979L302.896 178.577C307.225 174.24 306.61 168.172 301.549 165.273C299.989 164.38 292.016 163.851 274.813 163.5L250.299 163L274.544 136C299.851 107.817 302.21 104.393 300.238 98.697C299.703 97.152 297.817 95.253 295.822 94.252C292.722 92.695 288.798 92.503 260.076 92.502L227.812 92.5L224.895 95.423ZM337.579 161.605C331.815 163.788 332.311 172.346 338.277 173.627C339.909 173.977 347.891 174.317 356.015 174.382C368.433 174.481 370.659 174.725 369.988 175.914C369.549 176.692 360.827 186.953 350.606 198.718C340.384 210.483 331.698 221.13 331.303 222.378C330.214 225.816 332.491 230.21 335.999 231.435C337.862 232.086 349.479 232.5 365.895 232.5C387.951 232.5 393.266 232.229 395.673 230.982C398.958 229.28 400.321 225.662 398.772 222.761C396.386 218.295 395.147 218.021 374.954 217.5L355.574 217L375.082 195.141C396.85 170.751 398.126 168.54 393.252 163.652L390.606 161L365.426 160.797C350.367 160.676 339.174 161 337.579 161.605Z" fill="#5A60BC"/>
</svg>
