<svg width="512" height="513" viewBox="0 0 512 513" fill="none" xmlns="http://www.w3.org/2000/svg">
<path fill-rule="evenodd" clip-rule="evenodd" d="M132.461 1.6647C111.206 3.42526 96.069 14.2501 85.909 34.9557C77.878 51.3207 74.012 70.0192 71.95 102.457C70.626 123.296 71.854 137.097 77.488 164.679C87.166 212.062 103.769 253.483 118.142 266.106L121.124 268.726L132.812 265.761C139.24 264.13 159.121 259.278 176.991 254.978C204.867 248.27 209.78 246.814 211.583 244.721C215.395 240.299 220.773 220.591 224.166 198.613C226.983 180.365 227.823 138.338 225.692 122.262C221.326 89.3255 210.04 55.3868 196.817 35.4317C194.452 31.8637 189.434 25.7037 185.665 21.7435C170.093 5.38044 155.247 -0.222611 132.461 1.6647ZM356.124 121.841C342.342 125.54 326.08 138.152 316.253 152.761C306.557 167.175 298.329 186.873 292.512 209.592C286.104 234.623 285.545 239.603 285.522 271.97C285.495 308.318 287.843 327.543 295.207 351.289C299.614 365.498 299.684 365.55 321.508 370.709C331.404 373.048 350.975 377.815 365 381.301C394.048 388.521 392.008 388.629 398.892 379.506C412.87 360.981 425.799 326.129 434.489 283.549C440.146 255.828 441.315 242.748 440.03 221.568C439.43 211.687 438.252 198.949 437.412 193.26C431.204 151.226 415.255 128.237 387.824 121.783C379.864 119.911 363.201 119.941 356.124 121.841ZM207 268.076C203.975 269.169 186.875 274.357 169 279.605C151.125 284.853 134.7 289.686 132.5 290.347L128.5 291.549L128.811 296.48C129.369 305.347 131.977 320.188 134.676 329.857C143.845 362.71 160.733 384.359 182.287 390.893C197.837 395.607 213.514 391.486 225.2 379.614C246.944 357.522 245.881 317.499 222.479 277.139C218.333 269.989 215.673 266.417 214.399 266.285C213.355 266.178 210.025 266.984 207 268.076ZM292.32 391.486C266.488 433.522 264.1 473.923 286.033 497.875C292.375 504.8 303.094 510.447 311.699 511.397C342.182 514.762 368.166 488.138 378.963 442.476C381.404 432.154 384.164 411.428 383.208 410.604C382.819 410.269 369.675 406.278 354 401.739C338.325 397.199 319.125 391.519 311.334 389.117C303.543 386.715 297.009 384.749 296.814 384.749C296.62 384.749 294.597 387.782 292.32 391.486Z" fill="#5CC6E7"/>
</svg>
