<svg width="500" height="500" viewBox="0 0 500 500" fill="none" xmlns="http://www.w3.org/2000/svg">
<g clip-path="url(#clip0_102_462)">
<mask id="path-1-outside-1_102_462" maskUnits="userSpaceOnUse" x="-0.739502" y="-0.830078" width="501" height="501" fill="black">
<rect fill="white" x="-0.739502" y="-0.830078" width="501" height="501"/>
<path fill-rule="evenodd" clip-rule="evenodd" d="M263.868 88.3248C263.868 94.0306 268.492 98.6564 274.199 98.6564C279.905 98.6564 284.531 94.0306 284.531 88.3262C284.531 75.5273 281.536 56.3641 277.078 40.6406C270.217 16.4411 261.643 5.16992 250.092 5.16992C238.541 5.16992 229.966 16.4411 223.106 40.6393C218.648 56.3627 215.653 75.5259 215.653 88.3248C215.653 94.0306 220.278 98.6564 225.985 98.6564C231.692 98.6564 236.317 94.0306 236.317 88.3248C236.317 68.2221 244.103 37.661 250.092 27.9203C256.082 37.6624 263.868 68.2235 263.868 88.3248ZM118.723 163.057C116.078 163.057 113.435 162.049 111.417 160.03C102.367 150.978 90.9336 135.312 82.9686 121.041C70.7097 99.079 68.8018 85.0459 76.9693 76.8783C85.1396 68.7094 99.1728 70.6173 121.132 82.8762C135.403 90.8426 151.071 102.275 160.123 111.326C164.158 115.36 164.158 121.902 160.123 125.937C156.087 129.972 149.546 129.972 145.511 125.937C131.296 111.724 104.18 95.6186 93.0564 92.9654C95.7096 104.088 111.815 131.205 126.03 145.42C130.064 149.455 130.064 155.997 126.028 160.032C124.012 162.049 121.367 163.057 118.723 163.057ZM250.092 382.936C176.793 382.936 117.158 323.301 117.158 250.001C117.158 176.702 176.793 117.067 250.092 117.067C323.392 117.067 383.027 176.702 383.027 250.001C383.027 323.301 323.392 382.936 250.092 382.936ZM250.092 137.731C188.185 137.731 137.821 188.095 137.821 250.001C137.821 311.908 188.185 362.272 250.092 362.272C312 362.272 362.363 311.908 362.363 250.001C362.363 188.094 311.998 137.731 250.092 137.731ZM250.092 494.833C238.541 494.833 229.967 483.561 223.106 459.362C218.648 443.638 215.653 424.475 215.653 411.676C215.653 405.971 220.278 401.345 225.985 401.345C231.692 401.345 236.317 405.971 236.317 411.676C236.317 431.778 244.103 462.339 250.092 472.081C256.082 462.34 263.868 431.779 263.868 411.676C263.868 405.971 268.492 401.345 274.199 401.345C279.907 401.345 284.531 405.971 284.531 411.676C284.531 424.475 281.536 443.638 277.078 459.362C270.217 483.561 261.642 494.833 250.092 494.833ZM374.154 160.029C376.172 162.047 378.815 163.056 381.46 163.056C384.104 163.056 386.749 162.047 388.767 160.031C397.817 150.98 409.251 135.312 417.216 121.042C429.478 99.0779 431.384 85.0447 423.215 76.8772C415.051 68.7096 401.015 70.6175 379.051 82.8778C364.782 90.8428 349.114 102.275 340.063 111.326C336.028 115.361 336.028 121.903 340.063 125.937C344.098 129.972 350.639 129.972 354.675 125.937C368.889 111.724 396.004 95.6188 407.127 92.9656C404.474 104.089 388.369 131.205 374.155 145.417C370.119 149.452 370.119 155.994 374.154 160.029ZM89.8414 428.071C84.5075 428.071 80.2619 426.416 76.9695 423.124C68.8006 414.957 70.7072 400.923 82.9674 378.96C90.9338 364.689 102.366 349.023 111.415 339.972C115.452 335.937 121.992 335.937 126.027 339.972C130.062 344.007 130.062 350.549 126.027 354.582C111.813 368.796 95.7084 395.912 93.0539 407.034C104.176 404.381 131.293 388.277 145.508 374.062C149.543 370.028 156.085 370.03 160.119 374.062C164.154 378.097 164.154 384.639 160.117 388.674C151.067 397.725 135.399 409.157 121.13 417.122C108.025 424.441 97.7403 428.071 89.8414 428.071ZM401.436 274.109C401.436 279.815 406.061 284.44 411.768 284.44C424.567 284.44 443.73 281.444 459.452 276.988C483.652 270.126 494.923 261.552 494.923 250.001C494.923 238.451 483.652 229.875 459.452 223.015C443.73 218.557 424.567 215.563 411.768 215.563C406.061 215.563 401.436 220.188 401.436 225.894C401.436 231.6 406.061 236.226 411.768 236.226C431.871 236.226 462.433 244.012 472.173 250.001C462.431 255.99 431.869 263.777 411.768 263.777C406.061 263.777 401.436 268.403 401.436 274.109ZM88.4154 284.44C75.6165 284.44 56.4533 281.446 40.7312 276.988C16.5317 270.126 5.2605 261.551 5.2605 250.001C5.25912 238.452 16.5303 229.877 40.7298 223.015C56.4533 218.557 75.6165 215.563 88.4154 215.563C94.1226 215.563 98.747 220.188 98.747 225.894C98.747 231.6 94.1226 236.226 88.4154 236.226C68.314 236.226 37.7529 244.012 28.0109 250.001C37.7516 255.991 68.314 263.777 88.4154 263.777C94.1226 263.777 98.747 268.403 98.747 274.109C98.747 279.815 94.1226 284.44 88.4154 284.44ZM379.049 417.124C392.16 424.443 402.443 428.072 410.341 428.072C415.674 428.07 419.921 426.416 423.211 423.126C431.379 414.957 429.472 400.924 417.212 378.962C409.247 364.692 397.813 349.025 388.764 339.974C384.729 335.939 378.188 335.939 374.152 339.974C370.117 344.008 370.117 350.55 374.152 354.584C388.369 368.799 404.472 395.915 407.125 407.038C396.002 404.385 368.886 388.28 354.673 374.066C350.64 370.031 344.098 370.028 340.063 374.065C336.027 378.098 336.027 384.64 340.062 388.675C349.111 397.725 364.779 409.158 379.049 417.124Z"/>
</mask>
<path fill-rule="evenodd" clip-rule="evenodd" d="M263.868 88.3248C263.868 94.0306 268.492 98.6564 274.199 98.6564C279.905 98.6564 284.531 94.0306 284.531 88.3262C284.531 75.5273 281.536 56.3641 277.078 40.6406C270.217 16.4411 261.643 5.16992 250.092 5.16992C238.541 5.16992 229.966 16.4411 223.106 40.6393C218.648 56.3627 215.653 75.5259 215.653 88.3248C215.653 94.0306 220.278 98.6564 225.985 98.6564C231.692 98.6564 236.317 94.0306 236.317 88.3248C236.317 68.2221 244.103 37.661 250.092 27.9203C256.082 37.6624 263.868 68.2235 263.868 88.3248ZM118.723 163.057C116.078 163.057 113.435 162.049 111.417 160.03C102.367 150.978 90.9336 135.312 82.9686 121.041C70.7097 99.079 68.8018 85.0459 76.9693 76.8783C85.1396 68.7094 99.1728 70.6173 121.132 82.8762C135.403 90.8426 151.071 102.275 160.123 111.326C164.158 115.36 164.158 121.902 160.123 125.937C156.087 129.972 149.546 129.972 145.511 125.937C131.296 111.724 104.18 95.6186 93.0564 92.9654C95.7096 104.088 111.815 131.205 126.03 145.42C130.064 149.455 130.064 155.997 126.028 160.032C124.012 162.049 121.367 163.057 118.723 163.057ZM250.092 382.936C176.793 382.936 117.158 323.301 117.158 250.001C117.158 176.702 176.793 117.067 250.092 117.067C323.392 117.067 383.027 176.702 383.027 250.001C383.027 323.301 323.392 382.936 250.092 382.936ZM250.092 137.731C188.185 137.731 137.821 188.095 137.821 250.001C137.821 311.908 188.185 362.272 250.092 362.272C312 362.272 362.363 311.908 362.363 250.001C362.363 188.094 311.998 137.731 250.092 137.731ZM250.092 494.833C238.541 494.833 229.967 483.561 223.106 459.362C218.648 443.638 215.653 424.475 215.653 411.676C215.653 405.971 220.278 401.345 225.985 401.345C231.692 401.345 236.317 405.971 236.317 411.676C236.317 431.778 244.103 462.339 250.092 472.081C256.082 462.34 263.868 431.779 263.868 411.676C263.868 405.971 268.492 401.345 274.199 401.345C279.907 401.345 284.531 405.971 284.531 411.676C284.531 424.475 281.536 443.638 277.078 459.362C270.217 483.561 261.642 494.833 250.092 494.833ZM374.154 160.029C376.172 162.047 378.815 163.056 381.46 163.056C384.104 163.056 386.749 162.047 388.767 160.031C397.817 150.98 409.251 135.312 417.216 121.042C429.478 99.0779 431.384 85.0447 423.215 76.8772C415.051 68.7096 401.015 70.6175 379.051 82.8778C364.782 90.8428 349.114 102.275 340.063 111.326C336.028 115.361 336.028 121.903 340.063 125.937C344.098 129.972 350.639 129.972 354.675 125.937C368.889 111.724 396.004 95.6188 407.127 92.9656C404.474 104.089 388.369 131.205 374.155 145.417C370.119 149.452 370.119 155.994 374.154 160.029ZM89.8414 428.071C84.5075 428.071 80.2619 426.416 76.9695 423.124C68.8006 414.957 70.7072 400.923 82.9674 378.96C90.9338 364.689 102.366 349.023 111.415 339.972C115.452 335.937 121.992 335.937 126.027 339.972C130.062 344.007 130.062 350.549 126.027 354.582C111.813 368.796 95.7084 395.912 93.0539 407.034C104.176 404.381 131.293 388.277 145.508 374.062C149.543 370.028 156.085 370.03 160.119 374.062C164.154 378.097 164.154 384.639 160.117 388.674C151.067 397.725 135.399 409.157 121.13 417.122C108.025 424.441 97.7403 428.071 89.8414 428.071ZM401.436 274.109C401.436 279.815 406.061 284.44 411.768 284.44C424.567 284.44 443.73 281.444 459.452 276.988C483.652 270.126 494.923 261.552 494.923 250.001C494.923 238.451 483.652 229.875 459.452 223.015C443.73 218.557 424.567 215.563 411.768 215.563C406.061 215.563 401.436 220.188 401.436 225.894C401.436 231.6 406.061 236.226 411.768 236.226C431.871 236.226 462.433 244.012 472.173 250.001C462.431 255.99 431.869 263.777 411.768 263.777C406.061 263.777 401.436 268.403 401.436 274.109ZM88.4154 284.44C75.6165 284.44 56.4533 281.446 40.7312 276.988C16.5317 270.126 5.2605 261.551 5.2605 250.001C5.25912 238.452 16.5303 229.877 40.7298 223.015C56.4533 218.557 75.6165 215.563 88.4154 215.563C94.1226 215.563 98.747 220.188 98.747 225.894C98.747 231.6 94.1226 236.226 88.4154 236.226C68.314 236.226 37.7529 244.012 28.0109 250.001C37.7516 255.991 68.314 263.777 88.4154 263.777C94.1226 263.777 98.747 268.403 98.747 274.109C98.747 279.815 94.1226 284.44 88.4154 284.44ZM379.049 417.124C392.16 424.443 402.443 428.072 410.341 428.072C415.674 428.07 419.921 426.416 423.211 423.126C431.379 414.957 429.472 400.924 417.212 378.962C409.247 364.692 397.813 349.025 388.764 339.974C384.729 335.939 378.188 335.939 374.152 339.974C370.117 344.008 370.117 350.55 374.152 354.584C388.369 368.799 404.472 395.915 407.125 407.038C396.002 404.385 368.886 388.28 354.673 374.066C350.64 370.031 344.098 370.028 340.063 374.065C336.027 378.098 336.027 384.64 340.062 388.675C349.111 397.725 364.779 409.158 379.049 417.124Z" fill="white"/>
<path d="M277.078 40.6406L281.908 39.2715L281.908 39.2713L277.078 40.6406ZM223.106 40.6393L227.935 42.0084L227.935 42.0084L223.106 40.6393ZM250.092 27.9203L254.368 25.2912L250.092 18.3366L245.816 25.291L250.092 27.9203ZM111.417 160.03L107.867 163.579L107.867 163.58L111.417 160.03ZM82.9686 121.041L87.3517 118.595L87.3517 118.595L82.9686 121.041ZM76.9693 76.8783L73.4202 73.3286L73.4199 73.3289L76.9693 76.8783ZM121.132 82.8762L123.579 78.4932L123.579 78.4932L121.132 82.8762ZM160.123 111.326L163.672 107.776L163.672 107.776L160.123 111.326ZM160.123 125.937L163.672 129.487L163.672 129.487L160.123 125.937ZM145.511 125.937L149.061 122.388L149.06 122.388L145.511 125.937ZM93.0564 92.9654L94.221 88.0827L86.2793 86.1885L88.1737 94.1302L93.0564 92.9654ZM126.03 145.42L129.579 141.871L129.579 141.871L126.03 145.42ZM126.028 160.032L122.479 156.482L122.479 156.482L126.028 160.032ZM223.106 459.362L218.276 460.731L218.276 460.731L223.106 459.362ZM250.092 472.081L245.816 474.71L250.092 481.665L254.368 474.71L250.092 472.081ZM277.078 459.362L281.908 460.731L281.908 460.731L277.078 459.362ZM374.154 160.029L370.604 163.579L370.604 163.579L374.154 160.029ZM388.767 160.031L392.315 163.581L392.316 163.58L388.767 160.031ZM417.216 121.042L412.833 118.595L412.833 118.595L417.216 121.042ZM423.215 76.8772L419.665 80.426L419.666 80.4269L423.215 76.8772ZM379.051 82.8778L376.604 78.4947L376.604 78.4947L379.051 82.8778ZM340.063 111.326L343.613 114.875L343.613 114.875L340.063 111.326ZM340.063 125.937L343.613 122.388L343.613 122.388L340.063 125.937ZM354.675 125.937L358.224 129.488L358.224 129.487L354.675 125.937ZM407.127 92.9656L412.01 94.1302L413.904 86.1885L405.962 88.0829L407.127 92.9656ZM374.155 145.417L377.704 148.968L377.704 148.967L374.155 145.417ZM76.9695 423.124L80.519 419.575L80.5187 419.574L76.9695 423.124ZM82.9674 378.96L78.5845 376.513L78.5843 376.513L82.9674 378.96ZM111.415 339.972L107.866 336.422L107.866 336.423L111.415 339.972ZM126.027 339.972L122.478 343.521L122.478 343.521L126.027 339.972ZM126.027 354.582L122.478 351.032L122.478 351.033L126.027 354.582ZM93.0539 407.034L88.1713 405.869L86.2757 413.812L94.2186 411.917L93.0539 407.034ZM145.508 374.062L149.058 377.612L149.058 377.612L145.508 374.062ZM160.119 374.062L163.668 370.513L163.668 370.512L160.119 374.062ZM160.117 388.674L156.569 385.124L156.568 385.125L160.117 388.674ZM121.13 417.122L118.683 412.739L118.682 412.74L121.13 417.122ZM459.452 276.988L460.821 281.817L460.822 281.817L459.452 276.988ZM459.452 223.015L458.083 227.844L458.083 227.844L459.452 223.015ZM472.173 250.001L474.801 254.278L481.757 250.003L474.802 245.726L472.173 250.001ZM40.7312 276.988L39.3619 281.817L39.3619 281.817L40.7312 276.988ZM5.2605 250.001L10.2802 250.001L10.2802 250.001L5.2605 250.001ZM40.7298 223.015L39.3607 218.186L39.3605 218.186L40.7298 223.015ZM28.0109 250.001L25.3818 245.725L18.4272 250.001L25.3815 254.277L28.0109 250.001ZM410.341 428.072L410.341 433.091L410.342 433.091L410.341 428.072ZM379.049 417.124L381.496 412.741L381.496 412.741L379.049 417.124ZM423.211 423.126L426.761 426.676L426.761 426.675L423.211 423.126ZM417.212 378.962L412.829 381.408L412.829 381.408L417.212 378.962ZM388.764 339.974L392.314 336.425L392.313 336.425L388.764 339.974ZM374.152 339.974L377.701 343.524L377.701 343.524L374.152 339.974ZM374.152 354.584L370.603 358.134L370.603 358.134L374.152 354.584ZM407.125 407.038L405.961 411.92L413.902 413.815L412.008 405.873L407.125 407.038ZM354.673 374.066L351.123 377.615L351.124 377.615L354.673 374.066ZM340.063 374.065L343.611 377.615L343.613 377.613L340.063 374.065ZM340.062 388.675L343.611 385.126L343.611 385.125L340.062 388.675ZM274.199 93.6368C271.265 93.6368 268.887 91.2588 268.887 88.3248H258.848C258.848 96.8025 265.719 103.676 274.199 103.676V93.6368ZM279.511 88.3262C279.511 91.2579 277.133 93.6368 274.199 93.6368V103.676C282.677 103.676 289.551 96.8034 289.551 88.3262H279.511ZM272.249 42.0098C276.614 57.4044 279.511 76.0975 279.511 88.3262H289.551C289.551 74.957 286.459 55.3238 281.908 39.2715L272.249 42.0098ZM250.092 10.1896C253.913 10.1896 257.592 11.9314 261.349 16.8698C265.231 21.9727 268.881 30.1327 272.249 42.01L281.908 39.2713C278.414 26.9491 274.347 17.3737 269.339 10.7911C264.206 4.044 257.822 0.150229 250.092 0.150229V10.1896ZM227.935 42.0084C231.302 30.132 234.953 21.9724 238.835 16.8697C242.592 11.9316 246.271 10.1896 250.092 10.1896V0.150229C242.363 0.150229 235.978 4.04388 230.845 10.7908C225.837 17.3733 221.77 26.9484 218.276 39.2701L227.935 42.0084ZM220.673 88.3248C220.673 76.0961 223.571 57.403 227.935 42.0084L218.276 39.2701C213.725 55.3224 210.634 74.9557 210.634 88.3248H220.673ZM225.985 93.6368C223.05 93.6368 220.673 91.2587 220.673 88.3248H210.634C210.634 96.8025 217.505 103.676 225.985 103.676V93.6368ZM231.297 88.3248C231.297 91.2587 228.919 93.6368 225.985 93.6368V103.676C234.465 103.676 241.336 96.8025 241.336 88.3248H231.297ZM245.816 25.291C242.37 30.8952 238.783 41.6512 236.074 53.079C233.329 64.6586 231.297 77.7405 231.297 88.3248H241.336C241.336 78.8064 243.197 66.5564 245.843 55.3945C248.524 44.0809 251.825 34.686 254.368 30.5496L245.816 25.291ZM268.887 88.3248C268.887 77.7412 266.855 64.6596 264.11 53.0801C261.402 41.6522 257.814 30.896 254.368 25.2912L245.816 30.5493C248.36 34.6866 251.66 44.082 254.342 55.3956C256.987 66.5575 258.848 78.8071 258.848 88.3248H268.887ZM107.867 163.58C110.864 166.577 114.801 168.077 118.723 168.077V158.037C117.355 158.037 116.005 157.52 114.966 156.481L107.867 163.58ZM78.5854 123.488C86.7174 138.057 98.4148 154.125 107.867 163.579L114.967 156.481C106.32 147.832 95.1499 132.566 87.3517 118.595L78.5854 123.488ZM73.4199 73.3289C67.9542 78.7945 66.1937 86.0622 67.3351 94.4626C68.4486 102.658 72.3433 112.305 78.5855 123.488L87.3517 118.595C81.335 107.816 78.1463 99.4644 77.283 93.111C76.4476 86.9624 77.8169 83.1297 80.5188 80.4278L73.4199 73.3289ZM123.579 78.4932C112.397 72.251 102.751 68.3562 94.5556 67.2428C86.1548 66.1016 78.8869 67.8628 73.4202 73.3286L80.5185 80.4281C83.2221 77.725 87.0559 76.3556 93.2042 77.1909C99.5575 78.0539 107.908 81.2425 118.686 87.2592L123.579 78.4932ZM163.672 107.776C154.217 98.3222 138.148 86.6262 123.579 78.4932L118.686 87.2592C132.657 95.059 147.925 106.228 156.574 114.875L163.672 107.776ZM163.672 129.487C169.667 123.492 169.667 113.771 163.672 107.776L156.573 114.875C158.648 116.95 158.648 120.313 156.573 122.388L163.672 129.487ZM141.962 129.487C147.957 135.482 157.676 135.481 163.672 129.487L156.574 122.387C154.498 124.463 151.135 124.462 149.061 122.388L141.962 129.487ZM91.8918 97.8482C96.6158 98.9749 105.593 103.285 115.489 109.389C125.253 115.411 135.231 122.757 141.962 129.487L149.06 122.388C141.576 114.904 130.889 107.091 120.76 100.844C110.763 94.6783 100.621 89.6092 94.221 88.0827L91.8918 97.8482ZM129.579 141.871C122.848 135.14 115.502 125.162 109.48 115.398C103.376 105.501 99.0659 96.5241 97.9391 91.8007L88.1737 94.1302C89.7002 100.529 94.7694 110.672 100.935 120.668C107.182 130.797 114.996 141.485 122.48 148.969L129.579 141.871ZM129.577 163.582C135.574 157.587 135.574 147.866 129.579 141.871L122.48 148.969C124.555 151.044 124.555 154.407 122.479 156.482L129.577 163.582ZM118.723 168.077C122.643 168.077 126.581 166.578 129.578 163.581L122.479 156.482C121.442 157.519 120.091 158.037 118.723 158.037V168.077ZM112.138 250.001C112.138 326.074 174.02 387.955 250.092 387.955V377.916C179.565 377.916 122.178 320.529 122.178 250.001H112.138ZM250.092 112.048C174.02 112.048 112.138 173.929 112.138 250.001H122.178C122.178 179.474 179.565 122.087 250.092 122.087V112.048ZM388.046 250.001C388.046 173.929 326.164 112.048 250.092 112.048V122.087C320.62 122.087 378.007 179.474 378.007 250.001H388.046ZM250.092 387.955C326.164 387.955 388.046 326.074 388.046 250.001H378.007C378.007 320.529 320.62 377.916 250.092 377.916V387.955ZM142.841 250.001C142.841 190.868 190.957 142.75 250.092 142.75V132.711C185.413 132.711 132.802 185.323 132.802 250.001H142.841ZM250.092 357.253C190.957 357.253 142.841 309.135 142.841 250.001H132.802C132.802 314.68 185.413 367.292 250.092 367.292V357.253ZM357.343 250.001C357.343 309.135 309.227 357.253 250.092 357.253V367.292C314.772 367.292 367.383 314.68 367.383 250.001H357.343ZM250.092 142.75C309.226 142.75 357.343 190.866 357.343 250.001H367.383C367.383 185.322 314.771 132.711 250.092 132.711V142.75ZM218.276 460.731C221.77 473.053 225.838 482.629 230.846 489.211C235.979 495.959 242.363 499.852 250.092 499.852V489.813C246.271 489.813 242.592 488.071 238.836 483.133C234.953 478.03 231.303 469.87 227.935 457.993L218.276 460.731ZM210.634 411.676C210.634 425.045 213.725 444.679 218.276 460.731L227.935 457.993C223.571 442.598 220.673 423.905 220.673 411.676H210.634ZM225.985 396.325C217.505 396.325 210.634 403.199 210.634 411.676H220.673C220.673 408.742 223.05 406.364 225.985 406.364V396.325ZM241.336 411.676C241.336 403.199 234.465 396.325 225.985 396.325V406.364C228.919 406.364 231.297 408.742 231.297 411.676H241.336ZM254.368 469.452C251.825 465.315 248.524 455.919 245.843 444.606C243.197 433.444 241.336 421.194 241.336 411.676H231.297C231.297 422.26 233.329 435.342 236.074 446.921C238.783 458.349 242.37 469.105 245.816 474.71L254.368 469.452ZM258.848 411.676C258.848 421.195 256.987 433.445 254.342 444.607C251.66 455.92 248.36 465.315 245.816 469.452L254.368 474.71C257.814 469.106 261.402 458.35 264.11 446.922C266.855 435.343 268.887 422.261 268.887 411.676H258.848ZM274.199 396.325C265.719 396.325 258.848 403.199 258.848 411.676H268.887C268.887 408.742 271.265 406.364 274.199 406.364V396.325ZM289.551 411.676C289.551 403.199 282.679 396.325 274.199 396.325V406.364C277.134 406.364 279.511 408.742 279.511 411.676H289.551ZM281.908 460.731C286.459 444.679 289.551 425.045 289.551 411.676H279.511C279.511 423.905 276.614 442.598 272.249 457.993L281.908 460.731ZM250.092 499.852C257.821 499.852 264.205 495.958 269.338 489.211C274.346 482.629 278.414 473.054 281.908 460.731L272.249 457.993C268.881 469.87 265.231 478.03 261.348 483.133C257.591 488.071 253.913 489.813 250.092 489.813V499.852ZM381.46 158.036C380.092 158.036 378.742 157.519 377.703 156.48L370.604 163.579C373.601 166.576 377.538 168.075 381.46 168.075V158.036ZM385.218 156.48C384.179 157.518 382.827 158.036 381.46 158.036V168.075C385.38 168.075 389.318 166.576 392.315 163.581L385.218 156.48ZM412.833 118.595C405.035 132.566 393.865 147.834 385.217 156.481L392.316 163.58C401.77 154.126 413.467 138.057 421.599 123.488L412.833 118.595ZM419.666 80.4269C422.369 83.129 423.738 86.9617 422.903 93.1101C422.04 99.4635 418.851 107.815 412.833 118.595L421.599 123.488C427.843 112.305 431.738 102.657 432.851 94.4615C433.992 86.0605 432.231 78.7929 426.764 73.3274L419.666 80.4269ZM381.497 87.2608C392.277 81.2435 400.63 78.0544 406.984 77.191C413.133 76.3554 416.965 77.725 419.665 80.426L426.765 73.3283C421.301 67.8618 414.032 66.1015 405.632 67.2431C397.436 68.3568 387.788 72.2518 376.604 78.4947L381.497 87.2608ZM343.613 114.875C352.26 106.228 367.527 95.0593 381.497 87.2608L376.604 78.4947C362.037 86.6264 345.968 98.3224 336.514 107.776L343.613 114.875ZM343.613 122.388C341.538 120.313 341.538 116.95 343.613 114.875L336.514 107.776C330.519 113.771 330.519 123.492 336.514 129.487L343.613 122.388ZM351.126 122.387C349.05 124.463 345.687 124.462 343.613 122.388L336.514 129.487C342.509 135.482 352.228 135.482 358.224 129.488L351.126 122.387ZM405.962 88.0829C399.563 89.6094 389.421 94.6786 379.425 100.844C369.296 107.091 358.609 114.904 351.125 122.388L358.224 129.487C364.954 122.757 374.932 115.411 384.695 109.389C394.591 103.285 403.568 98.9751 408.292 97.8483L405.962 88.0829ZM377.704 148.967C385.188 141.484 393.001 130.797 399.248 120.669C405.414 110.673 410.483 100.53 412.01 94.1302L402.244 91.801C401.117 96.525 396.807 105.502 390.704 115.398C384.682 125.162 377.336 135.139 370.606 141.868L377.704 148.967ZM377.703 156.48C375.629 154.405 375.629 151.042 377.704 148.968L370.606 141.867C364.609 147.863 364.609 157.583 370.604 163.579L377.703 156.48ZM73.4201 426.674C77.7762 431.03 83.36 433.091 89.8414 433.091V423.051C85.6551 423.051 82.7476 421.803 80.519 419.575L73.4201 426.674ZM78.5843 376.513C72.3415 387.697 68.4467 397.344 67.3335 405.54C66.1925 413.941 67.954 421.208 73.4204 426.674L80.5187 419.574C77.8162 416.872 76.4465 413.039 77.2816 406.891C78.1445 400.538 81.3331 392.186 87.3505 381.406L78.5843 376.513ZM107.866 336.423C98.4135 345.876 86.7175 361.944 78.5845 376.513L87.3504 381.406C95.1501 367.435 106.319 352.169 114.965 343.521L107.866 336.423ZM129.577 336.423C123.581 330.427 113.863 330.428 107.866 336.422L114.964 343.522C117.041 341.446 120.403 341.447 122.478 343.521L129.577 336.423ZM129.576 358.132C135.572 352.138 135.571 342.417 129.577 336.423L122.478 343.521C124.553 345.596 124.552 348.96 122.478 351.032L129.576 358.132ZM97.9364 408.2C99.0638 403.476 103.374 394.499 109.478 384.603C115.5 374.839 122.847 364.862 129.577 358.132L122.478 351.033C114.994 358.517 107.181 369.204 100.933 379.332C94.7679 389.328 89.6985 399.47 88.1713 405.869L97.9364 408.2ZM141.959 370.513C135.228 377.244 125.25 384.59 115.486 390.612C105.59 396.715 96.6126 401.025 91.8892 402.152L94.2186 411.917C100.618 410.39 110.76 405.322 120.756 399.156C130.886 392.909 141.574 385.096 149.058 377.612L141.959 370.513ZM163.668 370.512C157.675 364.522 147.955 364.517 141.959 370.513L149.058 377.612C151.131 375.539 154.495 375.539 156.57 377.612L163.668 370.512ZM163.666 392.224C169.664 386.229 169.664 376.508 163.668 370.513L156.569 377.612C158.644 379.686 158.644 383.05 156.569 385.124L163.666 392.224ZM123.577 421.505C138.144 413.373 154.213 401.677 163.667 392.224L156.568 385.125C147.921 393.772 132.653 404.941 118.683 412.739L123.577 421.505ZM89.8414 433.091C99.0773 433.091 110.302 428.919 123.577 421.505L118.682 412.74C105.748 419.963 96.4034 423.051 89.8414 423.051V433.091ZM411.768 279.421C408.834 279.421 406.456 277.043 406.456 274.109H396.417C396.417 282.586 403.288 289.46 411.768 289.46V279.421ZM458.083 272.158C442.69 276.522 423.997 279.421 411.768 279.421V289.46C425.137 289.46 444.771 286.367 460.821 281.817L458.083 272.158ZM489.903 250.001C489.903 253.823 488.161 257.501 483.223 261.258C478.12 265.14 469.96 268.791 458.083 272.158L460.822 281.817C473.144 278.323 482.719 274.256 489.302 269.248C496.049 264.115 499.943 257.731 499.943 250.001H489.903ZM458.083 227.844C469.96 231.211 478.12 234.862 483.223 238.744C488.161 242.501 489.903 246.18 489.903 250.001H499.943C499.943 242.272 496.049 235.888 489.302 230.754C482.719 225.746 473.144 221.679 460.821 218.186L458.083 227.844ZM411.768 220.582C423.997 220.582 442.69 223.48 458.083 227.844L460.822 218.186C444.771 213.635 425.137 210.543 411.768 210.543V220.582ZM406.456 225.894C406.456 222.96 408.834 220.582 411.768 220.582V210.543C403.288 210.543 396.417 217.416 396.417 225.894H406.456ZM411.768 231.206C408.834 231.206 406.456 228.828 406.456 225.894H396.417C396.417 234.372 403.288 241.246 411.768 241.246V231.206ZM474.802 245.726C469.198 242.279 458.442 238.692 447.014 235.983C435.435 233.238 422.352 231.206 411.768 231.206V241.246C421.287 241.246 433.537 243.106 444.699 245.752C456.013 248.434 465.407 251.734 469.543 254.277L474.802 245.726ZM411.768 268.797C422.352 268.797 435.433 266.764 447.013 264.019C458.441 261.31 469.197 257.723 474.801 254.278L469.544 245.725C465.406 248.268 456.011 251.569 444.697 254.25C433.535 256.896 421.286 258.757 411.768 258.757V268.797ZM406.456 274.109C406.456 271.175 408.834 268.797 411.768 268.797V258.757C403.288 258.757 396.417 265.631 396.417 274.109H406.456ZM39.3619 281.817C55.413 286.368 75.0462 289.46 88.4154 289.46V279.421C76.1867 279.421 57.4936 276.523 42.1005 272.158L39.3619 281.817ZM0.240805 250.001C0.240805 257.73 4.13467 264.114 10.8816 269.247C17.4642 274.256 27.0395 278.323 39.3619 281.817L42.1005 272.158C30.2234 268.791 22.0633 265.14 16.9604 261.258C12.0219 257.5 10.2802 253.822 10.2802 250.001H0.240805ZM39.3605 218.186C27.0381 221.68 17.4628 225.747 10.8804 230.755C4.13351 235.889 0.239883 242.273 0.240805 250.002L10.2802 250.001C10.2797 246.181 12.021 242.502 16.9593 238.745C22.062 234.863 30.222 231.212 42.0992 227.844L39.3605 218.186ZM88.4154 210.543C75.0462 210.543 55.413 213.635 39.3607 218.186L42.099 227.844C57.4936 223.48 76.1867 220.582 88.4154 220.582V210.543ZM103.767 225.894C103.767 217.416 96.8953 210.543 88.4154 210.543V220.582C91.3498 220.582 93.7273 222.96 93.7273 225.894H103.767ZM88.4154 241.246C96.8953 241.246 103.767 234.372 103.767 225.894H93.7273C93.7273 228.828 91.3498 231.206 88.4154 231.206V241.246ZM30.6399 254.278C34.7772 251.734 44.1726 248.434 55.4861 245.752C66.648 243.106 78.8977 241.246 88.4154 241.246V231.206C77.8317 231.206 64.7501 233.239 53.1707 235.983C41.7428 238.692 30.9866 242.279 25.3818 245.725L30.6399 254.278ZM88.4154 258.757C78.8976 258.757 66.6477 256.897 55.4856 254.251C44.1718 251.569 34.7766 248.269 30.6402 245.725L25.3815 254.277C30.9858 257.724 41.7422 261.311 53.1702 264.02C64.7498 266.764 77.8317 268.797 88.4154 268.797V258.757ZM103.767 274.109C103.767 265.631 96.8953 258.757 88.4154 258.757V268.797C91.3498 268.797 93.7273 271.175 93.7273 274.109H103.767ZM88.4154 289.46C96.8953 289.46 103.767 282.586 103.767 274.109H93.7273C93.7273 277.043 91.3498 279.421 88.4154 279.421V289.46ZM410.341 423.052C403.78 423.052 394.436 419.965 381.496 412.741L376.603 421.507C389.883 428.921 401.106 433.091 410.341 433.091V423.052ZM419.662 419.577C417.436 421.802 414.528 423.051 410.339 423.052L410.342 433.091C416.821 433.09 422.407 431.03 426.761 426.676L419.662 419.577ZM412.829 381.408C418.846 392.188 422.035 400.539 422.898 406.892C423.733 413.041 422.364 416.874 419.661 419.577L426.761 426.675C432.226 421.209 433.987 413.942 432.846 405.541C431.733 397.345 427.838 387.698 421.595 376.515L412.829 381.408ZM385.214 343.523C393.861 352.171 405.031 367.437 412.829 381.408L421.595 376.515C413.463 361.946 401.766 345.878 392.314 336.425L385.214 343.523ZM377.701 343.524C379.777 341.448 383.14 341.449 385.214 343.524L392.313 336.425C386.318 330.429 376.599 330.43 370.603 336.424L377.701 343.524ZM377.702 351.035C375.627 348.96 375.628 345.597 377.701 343.524L370.603 336.424C364.607 342.418 364.608 352.139 370.603 358.134L377.702 351.035ZM412.008 405.873C410.482 399.474 405.413 389.332 399.247 379.336C393 369.207 385.187 358.519 377.701 351.035L370.603 358.134C377.334 364.865 384.681 374.842 390.703 384.606C396.806 394.502 401.116 403.479 402.243 408.202L412.008 405.873ZM351.124 377.615C358.607 385.099 369.294 392.912 379.422 399.159C389.418 405.325 399.561 410.394 405.961 411.92L408.29 402.155C403.566 401.028 394.589 396.718 384.693 390.615C374.929 384.593 364.952 377.246 358.223 370.517L351.124 377.615ZM343.613 377.613C345.686 375.54 349.049 375.54 351.123 377.615L358.224 370.517C352.231 364.522 342.51 364.517 336.513 370.516L343.613 377.613ZM343.611 385.125C341.536 383.051 341.537 379.688 343.611 377.615L336.515 370.514C330.516 376.508 330.517 386.229 336.512 392.224L343.611 385.125ZM381.496 412.741C367.524 404.941 352.257 393.773 343.611 385.126L336.512 392.224C345.965 401.678 362.034 413.374 376.603 421.507L381.496 412.741Z" fill="white" mask="url(#path-1-outside-1_102_462)"/>
</g>
<defs>
<clipPath id="clip0_102_462">
<rect width="500" height="500" fill="white"/>
</clipPath>
</defs>
</svg>
