<svg width="290" height="499" viewBox="0 0 290 499" fill="none" xmlns="http://www.w3.org/2000/svg">
<mask id="path-1-outside-1_102_42" maskUnits="userSpaceOnUse" x="0.169922" y="0.42334" width="290" height="498" fill="black">
<rect fill="white" x="0.169922" y="0.42334" width="290" height="498"/>
<path fill-rule="evenodd" clip-rule="evenodd" d="M70.7497 319.654L83.2316 312.433V298.014V58.4847C83.2316 43.5391 95.3474 31.4233 110.293 31.4233C125.239 31.4233 137.354 43.5391 137.354 58.4847V298.014V312.434L149.836 319.654C173.551 333.373 189.415 358.952 189.415 388.207C189.415 431.905 153.991 467.329 110.293 467.329C66.5943 467.329 31.1699 431.905 31.1699 388.207C31.1699 358.951 47.0345 333.372 70.7497 319.654ZM110.293 6.42334C81.5403 6.42334 58.2316 29.732 58.2316 58.4847V298.014C27.1091 316.017 6.16989 349.666 6.16989 388.207C6.16989 445.712 52.7872 492.329 110.293 492.329C167.798 492.329 214.415 445.712 214.415 388.207C214.415 349.667 193.476 316.017 162.354 298.014V58.4847C162.354 29.732 139.046 6.42334 110.293 6.42334ZM273.418 53.4608H197.062C193.52 53.4608 190.649 56.3317 190.649 59.8731C190.649 63.4145 193.52 66.2854 197.062 66.2854H273.418C276.96 66.2854 279.831 63.4145 279.831 59.8731C279.831 56.3317 276.96 53.4608 273.418 53.4608ZM197.062 49.4608C191.311 49.4608 186.649 54.1226 186.649 59.8731C186.649 65.6236 191.311 70.2854 197.062 70.2854H273.418C279.169 70.2854 283.831 65.6236 283.831 59.8731C283.831 54.1226 279.169 49.4608 273.418 49.4608H197.062ZM210.945 89.5563H259.535C263.077 89.5563 265.948 92.4272 265.948 95.9686C265.948 99.51 263.077 102.381 259.535 102.381H210.945C207.403 102.381 204.532 99.51 204.532 95.9686C204.532 92.4272 207.403 89.5563 210.945 89.5563ZM200.532 95.9686C200.532 90.218 205.194 85.5563 210.945 85.5563H259.535C265.286 85.5563 269.948 90.218 269.948 95.9686C269.948 101.719 265.286 106.381 259.535 106.381H210.945C205.194 106.381 200.532 101.719 200.532 95.9686ZM273.418 126.346H197.061C193.52 126.346 190.649 129.217 190.649 132.759C190.649 136.3 193.52 139.171 197.061 139.171H273.418C276.959 139.171 279.83 136.3 279.83 132.759C279.83 129.217 276.959 126.346 273.418 126.346ZM197.061 122.346C191.311 122.346 186.649 127.008 186.649 132.759C186.649 138.509 191.311 143.171 197.061 143.171H273.418C279.169 143.171 283.83 138.509 283.83 132.759C283.83 127.008 279.169 122.346 273.418 122.346H197.061ZM210.945 161.054H259.535C263.077 161.054 265.948 163.925 265.948 167.466C265.948 171.007 263.077 173.878 259.535 173.878H210.945C207.403 173.878 204.532 171.007 204.532 167.466C204.532 163.925 207.403 161.054 210.945 161.054ZM200.532 167.466C200.532 161.715 205.194 157.054 210.945 157.054H259.535C265.286 157.054 269.948 161.715 269.948 167.466C269.948 173.216 265.286 177.878 259.535 177.878H210.945C205.194 177.878 200.532 173.216 200.532 167.466ZM273.418 198.537H197.061C193.52 198.537 190.649 201.408 190.649 204.949C190.649 208.491 193.52 211.362 197.061 211.362H273.418C276.959 211.362 279.83 208.491 279.83 204.949C279.83 201.408 276.959 198.537 273.418 198.537ZM197.061 194.537C191.311 194.537 186.649 199.199 186.649 204.949C186.649 210.7 191.311 215.362 197.061 215.362H273.418C279.169 215.362 283.83 210.7 283.83 204.949C283.83 199.199 279.169 194.537 273.418 194.537H197.061ZM210.945 233.94H259.535C263.077 233.94 265.948 236.811 265.948 240.352C265.948 243.893 263.077 246.764 259.535 246.764H210.945C207.403 246.764 204.532 243.893 204.532 240.352C204.532 236.811 207.403 233.94 210.945 233.94ZM200.532 240.352C200.532 234.602 205.194 229.94 210.945 229.94H259.535C265.286 229.94 269.948 234.602 269.948 240.352C269.948 246.103 265.286 250.764 259.535 250.764H210.945C205.194 250.764 200.532 246.103 200.532 240.352ZM197.061 272.811H273.418C276.959 272.811 279.83 275.682 279.83 279.224C279.83 282.765 276.959 285.636 273.418 285.636H197.061C193.52 285.636 190.649 282.765 190.649 279.224C190.649 275.682 193.52 272.811 197.061 272.811ZM186.649 279.224C186.649 273.473 191.311 268.811 197.061 268.811H273.418C279.169 268.811 283.83 273.473 283.83 279.224C283.83 284.974 279.169 289.636 273.418 289.636H197.061C191.311 289.636 186.649 284.974 186.649 279.224Z"/>
</mask>
<path fill-rule="evenodd" clip-rule="evenodd" d="M70.7497 319.654L83.2316 312.433V298.014V58.4847C83.2316 43.5391 95.3474 31.4233 110.293 31.4233C125.239 31.4233 137.354 43.5391 137.354 58.4847V298.014V312.434L149.836 319.654C173.551 333.373 189.415 358.952 189.415 388.207C189.415 431.905 153.991 467.329 110.293 467.329C66.5943 467.329 31.1699 431.905 31.1699 388.207C31.1699 358.951 47.0345 333.372 70.7497 319.654ZM110.293 6.42334C81.5403 6.42334 58.2316 29.732 58.2316 58.4847V298.014C27.1091 316.017 6.16989 349.666 6.16989 388.207C6.16989 445.712 52.7872 492.329 110.293 492.329C167.798 492.329 214.415 445.712 214.415 388.207C214.415 349.667 193.476 316.017 162.354 298.014V58.4847C162.354 29.732 139.046 6.42334 110.293 6.42334ZM273.418 53.4608H197.062C193.52 53.4608 190.649 56.3317 190.649 59.8731C190.649 63.4145 193.52 66.2854 197.062 66.2854H273.418C276.96 66.2854 279.831 63.4145 279.831 59.8731C279.831 56.3317 276.96 53.4608 273.418 53.4608ZM197.062 49.4608C191.311 49.4608 186.649 54.1226 186.649 59.8731C186.649 65.6236 191.311 70.2854 197.062 70.2854H273.418C279.169 70.2854 283.831 65.6236 283.831 59.8731C283.831 54.1226 279.169 49.4608 273.418 49.4608H197.062ZM210.945 89.5563H259.535C263.077 89.5563 265.948 92.4272 265.948 95.9686C265.948 99.51 263.077 102.381 259.535 102.381H210.945C207.403 102.381 204.532 99.51 204.532 95.9686C204.532 92.4272 207.403 89.5563 210.945 89.5563ZM200.532 95.9686C200.532 90.218 205.194 85.5563 210.945 85.5563H259.535C265.286 85.5563 269.948 90.218 269.948 95.9686C269.948 101.719 265.286 106.381 259.535 106.381H210.945C205.194 106.381 200.532 101.719 200.532 95.9686ZM273.418 126.346H197.061C193.52 126.346 190.649 129.217 190.649 132.759C190.649 136.3 193.52 139.171 197.061 139.171H273.418C276.959 139.171 279.83 136.3 279.83 132.759C279.83 129.217 276.959 126.346 273.418 126.346ZM197.061 122.346C191.311 122.346 186.649 127.008 186.649 132.759C186.649 138.509 191.311 143.171 197.061 143.171H273.418C279.169 143.171 283.83 138.509 283.83 132.759C283.83 127.008 279.169 122.346 273.418 122.346H197.061ZM210.945 161.054H259.535C263.077 161.054 265.948 163.925 265.948 167.466C265.948 171.007 263.077 173.878 259.535 173.878H210.945C207.403 173.878 204.532 171.007 204.532 167.466C204.532 163.925 207.403 161.054 210.945 161.054ZM200.532 167.466C200.532 161.715 205.194 157.054 210.945 157.054H259.535C265.286 157.054 269.948 161.715 269.948 167.466C269.948 173.216 265.286 177.878 259.535 177.878H210.945C205.194 177.878 200.532 173.216 200.532 167.466ZM273.418 198.537H197.061C193.52 198.537 190.649 201.408 190.649 204.949C190.649 208.491 193.52 211.362 197.061 211.362H273.418C276.959 211.362 279.83 208.491 279.83 204.949C279.83 201.408 276.959 198.537 273.418 198.537ZM197.061 194.537C191.311 194.537 186.649 199.199 186.649 204.949C186.649 210.7 191.311 215.362 197.061 215.362H273.418C279.169 215.362 283.83 210.7 283.83 204.949C283.83 199.199 279.169 194.537 273.418 194.537H197.061ZM210.945 233.94H259.535C263.077 233.94 265.948 236.811 265.948 240.352C265.948 243.893 263.077 246.764 259.535 246.764H210.945C207.403 246.764 204.532 243.893 204.532 240.352C204.532 236.811 207.403 233.94 210.945 233.94ZM200.532 240.352C200.532 234.602 205.194 229.94 210.945 229.94H259.535C265.286 229.94 269.948 234.602 269.948 240.352C269.948 246.103 265.286 250.764 259.535 250.764H210.945C205.194 250.764 200.532 246.103 200.532 240.352ZM197.061 272.811H273.418C276.959 272.811 279.83 275.682 279.83 279.224C279.83 282.765 276.959 285.636 273.418 285.636H197.061C193.52 285.636 190.649 282.765 190.649 279.224C190.649 275.682 193.52 272.811 197.061 272.811ZM186.649 279.224C186.649 273.473 191.311 268.811 197.061 268.811H273.418C279.169 268.811 283.83 273.473 283.83 279.224C283.83 284.974 279.169 289.636 273.418 289.636H197.061C191.311 289.636 186.649 284.974 186.649 279.224Z" fill="white"/>
<path d="M83.2316 312.433L86.236 317.627L89.2316 315.894V312.433H83.2316ZM70.7497 319.654L67.7454 314.46L67.7453 314.46L70.7497 319.654ZM137.354 312.434H131.354V315.894L134.35 317.627L137.354 312.434ZM149.836 319.654L152.84 314.46L152.84 314.46L149.836 319.654ZM58.2316 298.014L61.236 303.207L64.2316 301.474V298.014H58.2316ZM162.354 298.014H156.354V301.475L159.35 303.208L162.354 298.014ZM80.2273 307.24L67.7454 314.46L73.754 324.847L86.236 317.627L80.2273 307.24ZM77.2316 298.014V312.433H89.2316V298.014H77.2316ZM77.2316 58.4847V298.014H89.2316V58.4847H77.2316ZM110.293 25.4233C92.0337 25.4233 77.2316 40.2254 77.2316 58.4847H89.2316C89.2316 46.8528 98.6611 37.4233 110.293 37.4233V25.4233ZM143.354 58.4847C143.354 40.2254 128.552 25.4233 110.293 25.4233V37.4233C121.925 37.4233 131.354 46.8528 131.354 58.4847H143.354ZM143.354 298.014V58.4847H131.354V298.014H143.354ZM143.354 312.434V298.014H131.354V312.434H143.354ZM152.84 314.46L140.359 307.24L134.35 317.627L146.832 324.848L152.84 314.46ZM195.415 388.207C195.415 356.726 178.336 329.209 152.84 314.46L146.832 324.848C168.766 337.536 183.415 361.177 183.415 388.207H195.415ZM110.293 473.329C157.304 473.329 195.415 435.219 195.415 388.207H183.415C183.415 428.591 150.677 461.329 110.293 461.329V473.329ZM25.1699 388.207C25.1699 435.219 63.2806 473.329 110.293 473.329V461.329C69.908 461.329 37.1699 428.591 37.1699 388.207H25.1699ZM67.7453 314.46C42.2496 329.208 25.1699 356.726 25.1699 388.207H37.1699C37.1699 361.177 51.8193 337.536 73.754 324.847L67.7453 314.46ZM64.2316 58.4847C64.2316 33.0457 84.854 12.4233 110.293 12.4233V0.42334C78.2266 0.42334 52.2316 26.4183 52.2316 58.4847H64.2316ZM64.2316 298.014V58.4847H52.2316V298.014H64.2316ZM12.1699 388.207C12.1699 351.895 31.8912 320.182 61.236 303.207L55.2273 292.82C22.327 311.852 0.169887 347.438 0.169887 388.207H12.1699ZM110.293 486.329C56.1009 486.329 12.1699 442.398 12.1699 388.207H0.169887C0.169887 449.026 49.4735 498.329 110.293 498.329V486.329ZM208.415 388.207C208.415 442.398 164.484 486.329 110.293 486.329V498.329C171.112 498.329 220.415 449.026 220.415 388.207H208.415ZM159.35 303.208C188.694 320.183 208.415 351.895 208.415 388.207H220.415C220.415 347.438 198.258 311.852 165.359 292.82L159.35 303.208ZM156.354 58.4847V298.014H168.354V58.4847H156.354ZM110.293 12.4233C135.732 12.4233 156.354 33.0457 156.354 58.4847H168.354C168.354 26.4183 142.359 0.42334 110.293 0.42334V12.4233ZM197.062 59.4608H273.418V47.4608H197.062V59.4608ZM196.649 59.8731C196.649 59.6454 196.834 59.4608 197.062 59.4608V47.4608C190.207 47.4608 184.649 53.018 184.649 59.8731H196.649ZM197.062 60.2854C196.834 60.2854 196.649 60.1008 196.649 59.8731H184.649C184.649 66.7282 190.207 72.2854 197.062 72.2854V60.2854ZM273.418 60.2854H197.062V72.2854H273.418V60.2854ZM273.831 59.8731C273.831 60.1008 273.646 60.2854 273.418 60.2854V72.2854C280.273 72.2854 285.831 66.7282 285.831 59.8731H273.831ZM273.418 59.4608C273.646 59.4608 273.831 59.6454 273.831 59.8731H285.831C285.831 53.018 280.273 47.4608 273.418 47.4608V59.4608ZM192.649 59.8731C192.649 57.4363 194.625 55.4608 197.062 55.4608V43.4608C187.997 43.4608 180.649 50.8088 180.649 59.8731H192.649ZM197.062 64.2854C194.625 64.2854 192.649 62.3099 192.649 59.8731H180.649C180.649 68.9373 187.997 76.2854 197.062 76.2854V64.2854ZM273.418 64.2854H197.062V76.2854H273.418V64.2854ZM277.831 59.8731C277.831 62.3099 275.855 64.2854 273.418 64.2854V76.2854C282.483 76.2854 289.831 68.9373 289.831 59.8731H277.831ZM273.418 55.4608C275.855 55.4608 277.831 57.4363 277.831 59.8731H289.831C289.831 50.8088 282.483 43.4608 273.418 43.4608V55.4608ZM197.062 55.4608H273.418V43.4608H197.062V55.4608ZM259.535 83.5563H210.945V95.5563H259.535V83.5563ZM271.948 95.9686C271.948 89.1135 266.39 83.5563 259.535 83.5563V95.5563C259.763 95.5563 259.948 95.7409 259.948 95.9686H271.948ZM259.535 108.381C266.39 108.381 271.948 102.824 271.948 95.9686H259.948C259.948 96.1963 259.763 96.3809 259.535 96.3809V108.381ZM210.945 108.381H259.535V96.3809H210.945V108.381ZM198.532 95.9686C198.532 102.824 204.09 108.381 210.945 108.381V96.3809C210.717 96.3809 210.532 96.1963 210.532 95.9686H198.532ZM210.945 83.5563C204.09 83.5563 198.532 89.1135 198.532 95.9686H210.532C210.532 95.7409 210.717 95.5563 210.945 95.5563V83.5563ZM210.945 79.5563C201.88 79.5563 194.532 86.9043 194.532 95.9686H206.532C206.532 93.5318 208.508 91.5563 210.945 91.5563V79.5563ZM259.535 79.5563H210.945V91.5563H259.535V79.5563ZM275.948 95.9686C275.948 86.9043 268.599 79.5563 259.535 79.5563V91.5563C261.972 91.5563 263.948 93.5318 263.948 95.9686H275.948ZM259.535 112.381C268.6 112.381 275.948 105.033 275.948 95.9686H263.948C263.948 98.4054 261.972 100.381 259.535 100.381V112.381ZM210.945 112.381H259.535V100.381H210.945V112.381ZM194.532 95.9686C194.532 105.033 201.88 112.381 210.945 112.381V100.381C208.508 100.381 206.532 98.4054 206.532 95.9686H194.532ZM197.061 132.346H273.418V120.346H197.061V132.346ZM196.649 132.759C196.649 132.531 196.834 132.346 197.061 132.346V120.346C190.206 120.346 184.649 125.903 184.649 132.759H196.649ZM197.061 133.171C196.834 133.171 196.649 132.986 196.649 132.759H184.649C184.649 139.614 190.206 145.171 197.061 145.171V133.171ZM273.418 133.171H197.061V145.171H273.418V133.171ZM273.83 132.759C273.83 132.986 273.646 133.171 273.418 133.171V145.171C280.273 145.171 285.83 139.614 285.83 132.759H273.83ZM273.418 132.346C273.646 132.346 273.83 132.531 273.83 132.759H285.83C285.83 125.903 280.273 120.346 273.418 120.346V132.346ZM192.649 132.759C192.649 130.322 194.625 128.346 197.061 128.346V116.346C187.997 116.346 180.649 123.694 180.649 132.759H192.649ZM197.061 137.171C194.625 137.171 192.649 135.195 192.649 132.759H180.649C180.649 141.823 187.997 149.171 197.061 149.171V137.171ZM273.418 137.171H197.061V149.171H273.418V137.171ZM277.83 132.759C277.83 135.195 275.855 137.171 273.418 137.171V149.171C282.482 149.171 289.83 141.823 289.83 132.759H277.83ZM273.418 128.346C275.855 128.346 277.83 130.322 277.83 132.759H289.83C289.83 123.694 282.482 116.346 273.418 116.346V128.346ZM197.061 128.346H273.418V116.346H197.061V128.346ZM259.535 155.054H210.945V167.054H259.535V155.054ZM271.948 167.466C271.948 160.611 266.39 155.054 259.535 155.054V167.054C259.763 167.054 259.948 167.238 259.948 167.466H271.948ZM259.535 179.878C266.39 179.878 271.948 174.321 271.948 167.466H259.948C259.948 167.694 259.763 167.878 259.535 167.878V179.878ZM210.945 179.878H259.535V167.878H210.945V179.878ZM198.532 167.466C198.532 174.321 204.09 179.878 210.945 179.878V167.878C210.717 167.878 210.532 167.694 210.532 167.466H198.532ZM210.945 155.054C204.09 155.054 198.532 160.611 198.532 167.466H210.532C210.532 167.238 210.717 167.054 210.945 167.054V155.054ZM210.945 151.054C201.88 151.054 194.532 158.402 194.532 167.466H206.532C206.532 165.029 208.508 163.054 210.945 163.054V151.054ZM259.535 151.054H210.945V163.054H259.535V151.054ZM275.948 167.466C275.948 158.402 268.599 151.054 259.535 151.054V163.054C261.972 163.054 263.948 165.029 263.948 167.466H275.948ZM259.535 183.878C268.6 183.878 275.948 176.53 275.948 167.466H263.948C263.948 169.903 261.972 171.878 259.535 171.878V183.878ZM210.945 183.878H259.535V171.878H210.945V183.878ZM194.532 167.466C194.532 176.53 201.88 183.878 210.945 183.878V171.878C208.508 171.878 206.532 169.903 206.532 167.466H194.532ZM197.061 204.537H273.418V192.537H197.061V204.537ZM196.649 204.949C196.649 204.722 196.834 204.537 197.061 204.537V192.537C190.206 192.537 184.649 198.094 184.649 204.949H196.649ZM197.061 205.362C196.834 205.362 196.649 205.177 196.649 204.949H184.649C184.649 211.804 190.206 217.362 197.061 217.362V205.362ZM273.418 205.362H197.061V217.362H273.418V205.362ZM273.83 204.949C273.83 205.177 273.646 205.362 273.418 205.362V217.362C280.273 217.362 285.83 211.804 285.83 204.949H273.83ZM273.418 204.537C273.646 204.537 273.83 204.722 273.83 204.949H285.83C285.83 198.094 280.273 192.537 273.418 192.537V204.537ZM192.649 204.949C192.649 202.513 194.625 200.537 197.061 200.537V188.537C187.997 188.537 180.649 195.885 180.649 204.949H192.649ZM197.061 209.362C194.625 209.362 192.649 207.386 192.649 204.949H180.649C180.649 214.014 187.997 221.362 197.061 221.362V209.362ZM273.418 209.362H197.061V221.362H273.418V209.362ZM277.83 204.949C277.83 207.386 275.855 209.362 273.418 209.362V221.362C282.482 221.362 289.83 214.014 289.83 204.949H277.83ZM273.418 200.537C275.855 200.537 277.83 202.512 277.83 204.949H289.83C289.83 195.885 282.482 188.537 273.418 188.537V200.537ZM197.061 200.537H273.418V188.537H197.061V200.537ZM259.535 227.94H210.945V239.94H259.535V227.94ZM271.948 240.352C271.948 233.497 266.39 227.94 259.535 227.94V239.94C259.763 239.94 259.948 240.124 259.948 240.352H271.948ZM259.535 252.764C266.39 252.764 271.948 247.207 271.948 240.352H259.948C259.948 240.58 259.763 240.764 259.535 240.764V252.764ZM210.945 252.764H259.535V240.764H210.945V252.764ZM198.532 240.352C198.532 247.207 204.09 252.764 210.945 252.764V240.764C210.717 240.764 210.532 240.58 210.532 240.352H198.532ZM210.945 227.94C204.09 227.94 198.532 233.497 198.532 240.352H210.532C210.532 240.124 210.717 239.94 210.945 239.94V227.94ZM210.945 223.94C201.88 223.94 194.532 231.288 194.532 240.352H206.532C206.532 237.915 208.508 235.94 210.945 235.94V223.94ZM259.535 223.94H210.945V235.94H259.535V223.94ZM275.948 240.352C275.948 231.288 268.599 223.94 259.535 223.94V235.94C261.972 235.94 263.948 237.915 263.948 240.352H275.948ZM259.535 256.764C268.6 256.764 275.948 249.416 275.948 240.352H263.948C263.948 242.789 261.972 244.764 259.535 244.764V256.764ZM210.945 256.764H259.535V244.764H210.945V256.764ZM194.532 240.352C194.532 249.416 201.88 256.764 210.945 256.764V244.764C208.508 244.764 206.532 242.789 206.532 240.352H194.532ZM273.418 266.811H197.061V278.811H273.418V266.811ZM285.83 279.224C285.83 272.369 280.273 266.811 273.418 266.811V278.811C273.646 278.811 273.83 278.996 273.83 279.224H285.83ZM273.418 291.636C280.273 291.636 285.83 286.079 285.83 279.224H273.83C273.83 279.451 273.646 279.636 273.418 279.636V291.636ZM197.061 291.636H273.418V279.636H197.061V291.636ZM184.649 279.224C184.649 286.079 190.206 291.636 197.061 291.636V279.636C196.834 279.636 196.649 279.451 196.649 279.224H184.649ZM197.061 266.811C190.206 266.811 184.649 272.369 184.649 279.224H196.649C196.649 278.996 196.834 278.811 197.061 278.811V266.811ZM197.061 262.811C187.997 262.811 180.649 270.159 180.649 279.224H192.649C192.649 276.787 194.625 274.811 197.061 274.811V262.811ZM273.418 262.811H197.061V274.811H273.418V262.811ZM289.83 279.224C289.83 270.159 282.482 262.811 273.418 262.811V274.811C275.855 274.811 277.83 276.787 277.83 279.224H289.83ZM273.418 295.636C282.482 295.636 289.83 288.288 289.83 279.224H277.83C277.83 281.661 275.855 283.636 273.418 283.636V295.636ZM197.061 295.636H273.418V283.636H197.061V295.636ZM180.649 279.224C180.649 288.288 187.997 295.636 197.061 295.636V283.636C194.625 283.636 192.649 281.661 192.649 279.224H180.649Z" fill="white" mask="url(#path-1-outside-1_102_42)"/>
</svg>
