<svg width="500" height="500" viewBox="0 0 500 500" fill="none" xmlns="http://www.w3.org/2000/svg">
<g clip-path="url(#clip0_102_422)">
<path d="M487.51 210.744H289.849V210.546H187.946L188.541 34.2968C188.541 26.5648 183.584 20.419 177.439 20.2207H171.887C165.741 20.2207 160.587 26.5649 160.587 34.0986L159.992 221.45C159.992 221.45 159.992 221.45 159.992 221.648V227.199C159.992 230.173 161.38 232.75 163.561 234.733C165.543 236.914 168.12 238.302 171.094 238.302H173.672C173.672 238.302 173.672 238.302 173.87 238.302H176.249H176.844H485.924C493.656 238.302 500 233.345 500 227.001V221.45C499.802 215.899 494.449 211.339 487.51 210.744Z" fill="white"/>
<path d="M474.624 251.189H160.984C160.984 264.273 162.966 276.367 166.138 288.064C166.138 288.064 166.336 288.857 166.733 290.047H117.367C109.041 290.047 102.3 283.306 102.3 274.979V234.535H125.496C130.452 234.535 134.616 230.174 134.616 225.019V9.91174C134.616 4.55885 130.65 0.395508 125.496 0.395508H9.11995C4.16356 0.395508 0.000244141 4.55885 0.000244141 9.91174L31.9193 224.821C31.9193 229.975 35.8844 234.337 41.039 234.337H72.1653V274.781C72.1653 299.563 92.3872 319.785 117.169 319.785H181.602C209.556 387.787 273.394 400.475 273.394 400.475C273.394 400.475 272.601 448.453 272.403 471.252H250.992V499.603H414.75V471.252H393.537C392.149 420.697 392.149 420.499 392.149 420.499C392.149 420.499 474.624 346.748 474.624 251.189Z" fill="white"/>
</g>
<defs>
<clipPath id="clip0_102_422">
<rect width="500" height="500" fill="white" transform="translate(0.000244141)"/>
</clipPath>
</defs>
</svg>
