<svg width="370" height="513" viewBox="0 0 370 513" fill="none" xmlns="http://www.w3.org/2000/svg">
<g clip-path="url(#clip0_2_10)">
<path d="M358.967 110.211H259.07V11.211L358.967 110.211ZM369.77 146.789V457.634C369.756 464.846 368.314 471.985 365.527 478.638C362.741 485.292 358.665 491.329 353.534 496.403C343.126 506.704 329.071 512.488 314.42 512.5H56.12C41.472 512.494 27.4173 506.717 17.006 496.423C11.8726 491.347 7.79528 485.306 5.00878 478.649C2.22228 471.992 0.781697 464.85 0.77002 457.634L0.77002 55.3659C0.781697 48.1501 2.22228 41.008 5.00878 34.3508C7.79528 27.6936 11.8726 21.653 17.006 16.5768C27.4173 6.28289 41.472 0.506063 56.12 0.5L222.17 0.5V128.5C222.173 130.904 222.653 133.284 223.582 135.502C224.511 137.72 225.87 139.733 227.582 141.423C231.045 144.866 235.734 146.795 240.62 146.789H369.77ZM203.72 402.789C203.717 400.384 203.237 398.004 202.308 395.786C201.379 393.568 200.02 391.556 198.308 389.866C194.835 386.433 190.146 384.507 185.26 384.507C180.374 384.507 175.685 386.433 172.212 389.866C170.499 391.557 169.139 393.571 168.211 395.791C167.283 398.011 166.806 400.393 166.806 402.799C166.806 405.205 167.283 407.587 168.211 409.807C169.139 412.027 170.499 414.041 172.212 415.732C175.685 419.165 180.374 421.091 185.26 421.091C190.146 421.091 194.835 419.165 198.308 415.732C200.022 414.039 201.383 412.024 202.312 409.802C203.241 407.58 203.719 405.196 203.72 402.789ZM257.922 225.104C255.597 212.492 249.983 200.715 241.645 190.964C233.617 181.567 223.363 174.328 211.816 169.906C200.269 165.485 187.798 164.022 175.54 165.651C163.282 167.28 151.628 171.949 141.639 179.232C131.651 186.516 123.647 196.181 118.358 207.348C113.802 217.022 111.443 227.582 111.45 238.273C111.453 240.677 111.933 243.057 112.862 245.275C113.791 247.493 115.15 249.505 116.862 251.196C120.335 254.629 125.024 256.554 129.91 256.554C134.796 256.554 139.485 254.629 142.958 251.196C144.67 249.505 146.029 247.493 146.958 245.275C147.887 243.057 148.367 240.677 148.37 238.273C148.379 232.884 149.582 227.565 151.893 222.696C154.204 217.827 157.565 213.53 161.736 210.113C169.032 204.111 178.346 201.119 187.776 201.747C197.206 202.375 206.04 206.576 212.474 213.492C216.489 217.827 219.39 223.07 220.929 228.773C222.468 234.475 222.597 240.465 221.307 246.229C220.016 251.992 217.344 257.356 213.52 261.86C209.696 266.364 204.835 269.873 199.354 272.085C189.565 276.261 181.239 283.246 175.43 292.156C169.637 301.033 166.638 311.44 166.82 322.036V348.005C166.823 350.409 167.303 352.789 168.232 355.007C169.161 357.225 170.521 359.237 172.232 360.928C175.705 364.361 180.394 366.286 185.28 366.286C190.166 366.286 194.855 364.361 198.329 360.928C200.04 359.237 201.399 357.225 202.328 355.007C203.257 352.789 203.737 350.409 203.741 348.005V322.036C203.606 318.698 204.454 315.394 206.18 312.533C207.916 309.661 210.452 307.355 213.478 305.898C229.074 299.568 242.02 288.08 250.153 273.355C258.242 258.68 260.995 241.659 257.943 225.186L257.922 225.104Z" fill="#EE2727"/>
</g>
<defs>
<clipPath id="clip0_2_10">
<rect width="369" height="512" fill="white" transform="translate(0.77002 0.5)"/>
</clipPath>
</defs>
</svg>
