<svg width="500" height="500" viewBox="0 0 500 500" fill="none" xmlns="http://www.w3.org/2000/svg">
<g clip-path="url(#clip0_102_230)">
<path fill-rule="evenodd" clip-rule="evenodd" d="M249.944 251.843C319.488 251.843 375.865 195.466 375.865 125.922C375.865 56.3771 319.488 0 249.944 0C180.399 0 124.022 56.3771 124.022 125.922C124.022 195.466 180.399 251.843 249.944 251.843ZM478.312 472.402C491.504 455.53 491.504 428.343 491.504 384.537C491.504 320.769 383.354 269.074 249.943 269.074C116.533 269.074 8.38306 320.769 8.38306 384.537C8.38306 428.344 8.38306 455.53 21.5748 472.402C43.1535 500 100.03 500 249.943 500C399.857 500 456.733 500 478.312 472.402Z" fill="white"/>
</g>
<defs>
<clipPath id="clip0_102_230">
<rect width="500" height="500" fill="white" transform="translate(0.000244141)"/>
</clipPath>
</defs>
</svg>
