<svg width="500" height="500" viewBox="0 0 500 500" fill="none" xmlns="http://www.w3.org/2000/svg">
<g clip-path="url(#clip0_102_18)">
<path fill-rule="evenodd" clip-rule="evenodd" d="M265.544 137.448C290.171 120.111 313.672 86.5442 313.672 62.1306C313.672 27.8168 285.855 0 251.542 0C217.228 0 189.224 26.8879 179.17 72.3719C174.121 95.2135 174.1 111.451 178.179 122.902C179.171 127.921 181.024 134.303 183.899 142.38C185.82 146.221 187.631 149.853 189.341 153.284C205.29 185.28 212.582 199.91 220.595 205.689C212.916 210.926 206.696 218.144 202.671 226.608C200.098 224.656 196.935 222.803 193.573 220.834C186.284 216.563 178.06 211.745 172.881 204.182C168.194 197.336 164.338 188.236 160.997 178.642C157.753 148.7 139.761 111.881 118.399 100.059C88.3756 83.4454 50.5684 94.3159 33.9544 124.339C17.3404 154.363 27.3076 191.884 62.2365 222.703C79.777 238.18 93.9738 246.06 105.968 248.036C110.84 249.598 117.321 251.067 125.78 252.462C130.058 252.64 134.099 252.814 137.919 252.978L137.956 252.98H137.956C172.029 254.446 188.459 255.153 197.658 251.558C198.114 261.696 201.442 271.087 206.847 278.936C203.526 280.024 199.908 281.857 196.035 283.82C188.5 287.638 179.998 291.947 170.835 292.209C162.539 292.445 152.798 290.763 142.92 288.379C115.985 274.906 75.2913 270.112 53.7918 281.678C23.5732 297.934 12.2546 335.61 28.511 365.828C44.7674 396.047 81.7133 407.97 126.532 395.276C149.041 388.901 163.35 381.226 171.503 372.209C175.452 368.957 180.195 364.302 185.945 357.944C188.411 354.442 190.745 351.136 192.951 348.012L192.97 347.985C214.055 318.125 223.438 304.836 224.389 294.979C232.008 299.276 240.806 301.727 250.176 301.727C252.432 301.727 254.655 301.585 256.836 301.31C256.187 304.84 256.124 309.043 256.057 313.555V313.555C255.93 322.002 255.788 331.532 251.756 339.764C248.106 347.217 242.084 355.055 235.378 362.689C210.918 380.26 187.738 414.05 187.971 438.463C188.299 472.775 216.38 500.325 250.692 499.997C285.004 499.669 312.75 472.515 322.37 426.938C327.201 404.047 327.066 387.81 322.877 376.398C321.837 371.389 319.924 365.026 316.972 356.978C315.014 353.156 313.17 349.543 311.427 346.129L311.426 346.126C294.492 312.952 287.134 298.537 278.656 293.352C287.273 287.788 294.158 279.773 298.326 270.294C300.885 272.478 304.131 274.566 307.594 276.793C314.699 281.363 322.716 286.519 327.575 294.292C331.974 301.328 335.449 310.583 338.387 320.31C340.385 350.36 356.827 387.892 377.678 400.591C406.984 418.44 445.21 409.152 463.06 379.846C480.909 350.54 472.512 312.637 438.896 280.39C422.011 264.193 408.152 255.729 396.248 253.258C391.446 251.496 385.034 249.759 376.645 248.014C372.364 247.657 368.322 247.314 364.501 246.99C327.822 243.878 311.642 242.505 302.695 246.778C302.226 236.227 298.646 226.485 292.852 218.447C295.79 217.331 298.945 215.72 302.291 214.01L302.291 214.01C309.814 210.166 318.301 205.83 327.463 205.538C335.758 205.273 345.505 206.924 355.39 209.275C382.369 222.659 423.079 227.318 444.54 215.681C474.705 199.325 485.899 161.612 469.542 131.448C453.186 101.283 416.201 89.482 371.424 102.324C348.935 108.774 334.651 116.497 326.529 125.542C322.59 128.807 317.864 133.477 312.136 139.853C309.675 143.373 307.345 146.695 305.144 149.835C284.635 179.084 275.249 192.47 273.976 202.267C266.83 198.632 258.742 196.583 250.176 196.583C248.009 196.583 245.872 196.715 243.774 196.969C244.214 193.813 244.303 190.209 244.397 186.383C244.604 177.938 244.837 168.409 248.948 160.216C252.669 152.798 258.765 145.017 265.544 137.448ZM250.176 269.005C261.111 269.005 269.976 260.14 269.976 249.205C269.976 238.27 261.111 229.405 250.176 229.405C239.241 229.405 230.376 238.27 230.376 249.205C230.376 260.14 239.241 269.005 250.176 269.005Z" fill="white"/>
</g>
<defs>
<clipPath id="clip0_102_18">
<rect width="500" height="500" fill="white"/>
</clipPath>
</defs>
</svg>
