<svg width="500" height="500" viewBox="0 0 500 500" fill="none" xmlns="http://www.w3.org/2000/svg">
<g clip-path="url(#clip0_102_234)">
<path fill-rule="evenodd" clip-rule="evenodd" d="M351.878 346.288C412.419 242.332 423.39 223.493 423.39 159.084C423.39 71.2245 352.166 0 264.306 0C176.446 0 105.221 71.2245 105.221 159.084C105.221 221.4 116.325 240.563 171.62 335.988C194.285 375.103 224.376 427.032 264.171 500C301.22 433.273 329.835 384.139 351.878 346.288ZM264.17 204.991C302.37 204.991 333.337 174.023 333.337 135.824C333.337 97.6236 302.37 66.6565 264.17 66.6565C225.97 66.6565 195.003 97.6236 195.003 135.824C195.003 174.023 225.97 204.991 264.17 204.991Z" fill="white"/>
</g>
<defs>
<clipPath id="clip0_102_234">
<rect width="500" height="500" fill="white" transform="translate(0.000244141)"/>
</clipPath>
</defs>
</svg>
