<svg width="500" height="500" viewBox="0 0 500 500" fill="none" xmlns="http://www.w3.org/2000/svg">
<g clip-path="url(#clip0_102_87)">
<path d="M254.505 0C245.159 0 237.582 7.57674 237.582 16.9233V483.077C237.582 492.423 245.159 500 254.505 500C263.852 500 271.429 492.423 271.429 483.077V16.9233C271.428 7.57674 263.852 0 254.505 0Z" fill="white"/>
<path d="M103.085 155.973C132.936 155.973 157.128 131.779 157.128 101.93C157.128 72.0851 132.936 47.8862 103.085 47.8862C73.2387 47.8862 49.0446 72.0862 49.0446 101.93C49.0469 131.779 73.2399 155.973 103.085 155.973Z" fill="white"/>
<path d="M163.036 161.589H43.1387C38.0027 161.589 33.0957 163.733 29.6062 167.502C26.1143 171.271 24.3538 176.326 24.7469 181.449L33.2562 292.042C33.619 296.76 35.7783 301.155 39.2911 304.324L58.698 321.831V433.669C58.698 443.856 66.9562 452.114 77.1422 452.114H85.2143C93.8166 452.114 101.043 446.227 103.083 438.262C105.125 446.227 112.352 452.114 120.952 452.114H129.026C139.212 452.114 147.471 443.854 147.471 433.669V321.833L166.877 304.324C170.39 301.156 172.552 296.759 172.913 292.042L181.421 181.449C181.814 176.326 180.056 171.271 176.563 167.502C173.078 163.733 168.174 161.589 163.036 161.589Z" fill="white"/>
<path d="M393.196 155.972C423.043 155.972 447.239 131.776 447.239 101.929C447.239 72.0821 423.043 47.8862 393.196 47.8862C363.349 47.8862 339.153 72.0821 339.153 101.929C339.153 131.776 363.349 155.972 393.196 155.972Z" fill="white"/>
<path d="M484.084 369.866L465.471 260.233L471.534 181.449C471.928 176.326 470.167 171.271 466.674 167.502C463.182 163.732 458.277 161.589 453.14 161.589H333.245C328.111 161.589 323.204 163.733 319.712 167.502C316.221 171.271 314.458 176.326 314.854 181.449L320.917 260.251L302.202 370.589C301.76 373.714 302.699 376.875 304.768 379.257C306.835 381.639 309.836 383.006 312.991 383.006H348.804V433.67C348.804 443.858 357.064 452.116 367.248 452.116H375.32C383.92 452.116 391.147 446.228 393.191 438.263C395.231 446.228 402.456 452.116 411.057 452.116H419.127C429.314 452.116 437.575 443.855 437.575 433.67V383.006H473.388C473.388 383.006 473.403 383.007 473.412 383.006C479.429 383.006 484.305 378.128 484.305 372.109C484.313 371.339 484.235 370.589 484.084 369.866Z" fill="white"/>
</g>
<defs>
<clipPath id="clip0_102_87">
<rect width="500" height="500" fill="white"/>
</clipPath>
</defs>
</svg>
