<svg width="500" height="500" viewBox="0 0 500 500" fill="none" xmlns="http://www.w3.org/2000/svg">
<g clip-path="url(#clip0_102_374)">
<path d="M398.649 239.832C398.402 222.327 391.681 206.367 380.794 194.212C383.695 185.324 385.18 176.055 385.18 166.578C385.18 117.444 345.21 77.4707 296.081 77.4707C288.927 77.4707 281.805 78.3219 274.914 80.0012C270.701 81.0273 268.117 85.2759 269.143 89.4899C270.17 93.7029 274.423 96.2858 278.631 95.2598C284.308 93.8767 290.178 93.1753 296.081 93.1753C336.55 93.1753 369.475 126.104 369.475 166.578C369.475 172.079 368.863 177.492 367.675 182.769C356.527 175.26 343.112 170.87 328.689 170.87C320.061 170.87 311.502 172.478 303.496 175.569C297.333 156.885 285.796 140.116 270.364 127.641C252.141 112.908 229.176 104.794 205.698 104.794C150.431 104.794 105.197 148.579 102.861 203.281C85.2725 208.492 69.4371 219.022 57.778 233.372C44.5956 249.597 37.3369 270.064 37.3369 291.006C37.3369 341.442 78.3688 382.475 128.805 382.475H367.373C408.587 382.475 442.118 348.944 442.118 307.729C442.119 278.543 424.867 251.94 398.649 239.832ZM367.374 366.77H128.806C87.0304 366.77 53.0425 332.782 53.0425 291.006C53.0425 273.66 59.0532 256.709 69.9679 243.275C80.7318 230.027 95.7789 220.71 112.338 217.041C115.981 216.234 118.554 212.975 118.491 209.244L118.487 208.984C118.478 208.565 118.471 208.146 118.471 207.724C118.471 159.628 157.602 120.497 205.698 120.497C225.882 120.497 244.829 127.19 260.491 139.851C275.709 152.155 286.462 169.377 290.763 188.342C291.31 190.757 292.966 192.772 295.228 193.779C297.493 194.786 300.094 194.667 302.256 193.456C310.303 188.952 319.443 186.571 328.689 186.571C358.61 186.571 382.952 210.914 382.952 240.834C382.952 241.91 382.908 243.068 382.813 244.478C382.582 247.946 384.658 251.153 387.915 252.363C410.942 260.912 426.414 283.161 426.414 307.727C426.415 340.285 399.928 366.77 367.374 366.77Z" fill="white" stroke="white" stroke-width="2.46154"/>
<path d="M104.824 389.62C100.486 389.62 96.9717 393.136 96.9717 397.472V423.382C96.9717 427.718 100.486 431.234 104.824 431.234C109.162 431.234 112.676 427.718 112.676 423.382V397.472C112.676 393.136 109.162 389.62 104.824 389.62Z" fill="white" stroke="white" stroke-width="2.46154"/>
<path d="M104.824 440.028C100.486 440.028 96.9717 443.544 96.9717 447.881V492.148C96.9717 496.484 100.486 500 104.824 500C109.162 500 112.676 496.484 112.676 492.148V447.881C112.676 443.544 109.162 440.028 104.824 440.028Z" fill="white" stroke="white" stroke-width="2.46154"/>
<path d="M138.547 389.62C134.209 389.62 130.695 393.136 130.695 397.472V492.146C130.695 496.482 134.209 499.998 138.547 499.998C142.885 499.998 146.399 496.482 146.399 492.146V397.472C146.399 393.136 142.885 389.62 138.547 389.62Z" fill="white" stroke="white" stroke-width="2.46154"/>
<path d="M172.28 389.62C167.942 389.62 164.427 393.136 164.427 397.472V448.572C164.427 452.909 167.942 456.424 172.28 456.424C176.617 456.424 180.132 452.909 180.132 448.572V397.472C180.132 393.136 176.617 389.62 172.28 389.62Z" fill="white" stroke="white" stroke-width="2.46154"/>
<path d="M172.28 464.358C167.942 464.358 164.427 467.874 164.427 472.211V492.146C164.427 496.483 167.942 499.998 172.28 499.998C176.617 499.998 180.132 496.483 180.132 492.146V472.211C180.132 467.874 176.617 464.358 172.28 464.358Z" fill="white" stroke="white" stroke-width="2.46154"/>
<path d="M206.004 389.62C201.666 389.62 198.151 393.136 198.151 397.472V492.146C198.151 496.482 201.666 499.998 206.004 499.998C210.341 499.998 213.856 496.482 213.856 492.146V397.472C213.856 393.136 210.341 389.62 206.004 389.62Z" fill="white" stroke="white" stroke-width="2.46154"/>
<path d="M273.453 471.372C269.115 471.372 265.601 474.888 265.601 479.224V492.147C265.601 496.484 269.115 499.999 273.453 499.999C277.79 499.999 281.305 496.484 281.305 492.147V479.224C281.305 474.888 277.789 471.372 273.453 471.372Z" fill="white" stroke="white" stroke-width="2.46154"/>
<path d="M273.453 389.62C269.115 389.62 265.601 393.136 265.601 397.472V454.933C265.601 459.27 269.115 462.786 273.453 462.786C277.79 462.786 281.305 459.27 281.305 454.933V397.472C281.305 393.136 277.789 389.62 273.453 389.62Z" fill="white" stroke="white" stroke-width="2.46154"/>
<path d="M239.728 389.62C235.39 389.62 231.875 393.136 231.875 397.472V408.448C231.875 412.784 235.39 416.3 239.728 416.3C244.065 416.3 247.58 412.784 247.58 408.448V397.472C247.58 393.136 244.065 389.62 239.728 389.62Z" fill="white" stroke="white" stroke-width="2.46154"/>
<path d="M239.728 427.682C235.39 427.682 231.875 431.197 231.875 435.534V492.147C231.875 496.483 235.39 499.999 239.728 499.999C244.065 499.999 247.58 496.483 247.58 492.147V435.534C247.58 431.197 244.065 427.682 239.728 427.682Z" fill="white" stroke="white" stroke-width="2.46154"/>
<path d="M307.176 389.62C302.838 389.62 299.324 393.136 299.324 397.472V441.051C299.324 445.387 302.838 448.903 307.176 448.903C311.514 448.903 315.028 445.387 315.028 441.051V397.472C315.028 393.136 311.512 389.62 307.176 389.62Z" fill="white" stroke="white" stroke-width="2.46154"/>
<path d="M307.176 456.925C302.838 456.925 299.324 460.441 299.324 464.777V492.148C299.324 496.485 302.838 500 307.176 500C311.514 500 315.028 496.485 315.028 492.148V464.777C315.028 460.441 311.512 456.925 307.176 456.925Z" fill="white" stroke="white" stroke-width="2.46154"/>
<path d="M340.909 389.62C336.572 389.62 333.057 393.136 333.057 397.472V412.057C333.057 416.393 336.572 419.909 340.909 419.909C345.247 419.909 348.761 416.393 348.761 412.057V397.472C348.761 393.136 345.247 389.62 340.909 389.62Z" fill="white" stroke="white" stroke-width="2.46154"/>
<path d="M340.909 430.253C336.572 430.253 333.057 433.769 333.057 438.105V492.146C333.057 496.482 336.572 499.998 340.909 499.998C345.247 499.998 348.761 496.482 348.761 492.146V438.105C348.761 433.769 345.247 430.253 340.909 430.253Z" fill="white" stroke="white" stroke-width="2.46154"/>
<path d="M374.634 389.62C370.297 389.62 366.782 393.136 366.782 397.472V492.146C366.782 496.482 370.297 499.998 374.634 499.998C378.972 499.998 382.487 496.482 382.487 492.146V397.472C382.487 393.136 378.972 389.62 374.634 389.62Z" fill="white" stroke="white" stroke-width="2.46154"/>
<path d="M248.625 104.175C248.529 104.111 248.458 104.065 248.653 104.198C248.846 104.325 248.776 104.278 248.683 104.215C251.577 106.101 255.477 105.892 258.113 103.635C260.672 101.443 261.535 97.7748 260.264 94.6611C258.976 91.5055 255.628 89.511 252.241 89.8523C249.094 90.1696 246.394 92.3996 245.487 95.4254C244.506 98.6992 245.828 102.25 248.625 104.175Z" fill="white" stroke="white" stroke-width="2.46154"/>
<path d="M296.086 61.3515C300.424 61.3515 303.938 57.8358 303.938 53.4992V7.85229C303.938 3.51573 300.424 0 296.086 0C291.748 0 288.234 3.51573 288.234 7.85229V53.4992C288.234 57.8358 291.748 61.3515 296.086 61.3515Z" fill="white" stroke="white" stroke-width="2.46154"/>
<path d="M376.043 94.4707C378.053 94.4707 380.063 93.7044 381.597 92.1705L413.875 59.8924C416.941 56.8258 416.941 51.8537 413.875 48.7882C410.808 45.7216 405.837 45.7216 402.769 48.7882L370.491 81.0664C367.425 84.1329 367.425 89.105 370.491 92.1705C372.024 93.7044 374.034 94.4707 376.043 94.4707Z" fill="white" stroke="white" stroke-width="2.46154"/>
<path d="M454.812 158.724H409.164C404.826 158.724 401.312 162.239 401.312 166.576C401.312 170.912 404.826 174.428 409.164 174.428H454.812C459.149 174.428 462.664 170.912 462.664 166.576C462.664 162.239 459.149 158.724 454.812 158.724Z" fill="white" stroke="white" stroke-width="2.46154"/>
<path d="M210.575 92.1705C212.109 93.7044 214.118 94.4707 216.128 94.4707C218.138 94.4707 220.148 93.7044 221.682 92.1705C224.748 89.104 224.748 84.1319 221.682 81.0664L189.403 48.7882C186.337 45.7216 181.366 45.7216 178.298 48.7882C175.232 51.8548 175.232 56.8269 178.298 59.8924L210.575 92.1705Z" fill="white" stroke="white" stroke-width="2.46154"/>
</g>
<defs>
<clipPath id="clip0_102_374">
<rect width="500" height="500" fill="white"/>
</clipPath>
</defs>
</svg>
