<svg width="500" height="500" viewBox="0 0 500 500" fill="none" xmlns="http://www.w3.org/2000/svg">
<g clip-path="url(#clip0_102_405)">
<path d="M250 62.3477C168.2 62.3477 86.2783 91.527 25.1116 150.13L9.60623 165.147C-2.84689 176.989 -3.21314 196.768 8.62951 209.221C20.5942 221.674 40.3727 222.04 52.8258 210.198L68.4532 195.303C164.904 102.881 335.096 102.881 431.547 195.303L447.174 210.198C459.627 222.04 479.406 221.674 491.37 209.221C503.213 196.768 502.847 176.989 490.394 165.147L474.888 150.008C413.722 91.527 331.8 62.3477 250 62.3477ZM249.023 187.611C199.943 187.978 151.23 207.268 117.533 244.261L101.906 261.475C96.2896 267.58 93.2374 275.638 93.7257 283.94C94.092 292.242 97.7547 300.055 103.981 305.672C110.086 311.288 118.144 314.218 126.446 313.729C134.748 313.363 142.561 309.701 148.178 303.474L163.683 286.381C203.606 242.551 293.708 239.621 336.317 286.504L351.945 303.474C357.439 309.701 365.252 313.363 373.554 313.729C381.856 314.218 389.914 311.288 396.141 305.672C402.245 300.055 405.908 292.242 406.274 283.94C406.641 275.76 403.71 267.58 398.094 261.475L382.467 244.383C347.427 205.803 297.981 187.245 249.023 187.611ZM250 312.631C234.006 312.631 218.013 318.735 205.804 330.944C181.386 355.362 181.386 394.919 205.804 419.337C230.222 443.754 269.778 443.754 294.196 419.337C318.614 394.919 318.614 355.362 294.196 330.944C281.987 318.735 265.994 312.631 250 312.631Z" fill="white"/>
</g>
<defs>
<clipPath id="clip0_102_405">
<rect width="500" height="500" fill="white"/>
</clipPath>
</defs>
</svg>
